<svg width="119" height="50" viewBox="0 0 119 50" fill="none" xmlns="http://www.w3.org/2000/svg">
<path d="M4.876 31.9041V20.2041H7.788C8.79333 20.2041 9.634 20.3515 10.31 20.6461C11.0033 20.9235 11.558 21.3308 11.974 21.8681C12.39 22.4055 12.6847 23.0555 12.858 23.8181C13.0487 24.5635 13.144 25.4041 13.144 26.3401C13.144 27.3628 13.014 28.2295 12.754 28.9401C12.494 29.6508 12.1473 30.2315 11.714 30.6821C11.2807 31.1155 10.7867 31.4275 10.232 31.6181C9.67733 31.8088 9.10533 31.9041 8.516 31.9041H4.876ZM0.794 16.7721V35.3361H8.802C10.2233 35.3361 11.454 35.1021 12.494 34.6341C13.5513 34.1488 14.4267 33.4901 15.12 32.6581C15.8307 31.8261 16.3593 30.8381 16.706 29.6941C17.0527 28.5501 17.226 27.3021 17.226 25.9501C17.226 24.4075 17.0093 23.0641 16.576 21.9201C16.16 20.7761 15.5707 19.8228 14.808 19.0601C14.0627 18.2975 13.17 17.7255 12.13 17.3441C11.1073 16.9628 9.998 16.7721 8.802 16.7721H0.794ZM22.9515 28.6281C22.9515 28.0908 23.0035 27.5621 23.1075 27.0421C23.2115 26.5221 23.3848 26.0628 23.6275 25.6641C23.8875 25.2655 24.2255 24.9448 24.6415 24.7021C25.0575 24.4421 25.5775 24.3121 26.2015 24.3121C26.8255 24.3121 27.3455 24.4421 27.7615 24.7021C28.1948 24.9448 28.5328 25.2655 28.7755 25.6641C29.0355 26.0628 29.2175 26.5221 29.3215 27.0421C29.4255 27.5621 29.4775 28.0908 29.4775 28.6281C29.4775 29.1655 29.4255 29.6941 29.3215 30.2141C29.2175 30.7168 29.0355 31.1761 28.7755 31.5921C28.5328 31.9908 28.1948 32.3115 27.7615 32.5541C27.3455 32.7968 26.8255 32.9181 26.2015 32.9181C25.5775 32.9181 25.0575 32.7968 24.6415 32.5541C24.2255 32.3115 23.8875 31.9908 23.6275 31.5921C23.3848 31.1761 23.2115 30.7168 23.1075 30.2141C23.0035 29.6941 22.9515 29.1655 22.9515 28.6281ZM19.2595 28.6281C19.2595 29.7028 19.4242 30.6735 19.7535 31.5401C20.0828 32.4068 20.5508 33.1521 21.1575 33.7761C21.7642 34.3828 22.4922 34.8508 23.3415 35.1801C24.1908 35.5095 25.1442 35.6741 26.2015 35.6741C27.2588 35.6741 28.2122 35.5095 29.0615 35.1801C29.9282 34.8508 30.6648 34.3828 31.2715 33.7761C31.8782 33.1521 32.3462 32.4068 32.6755 31.5401C33.0048 30.6735 33.1695 29.7028 33.1695 28.6281C33.1695 27.5535 33.0048 26.5828 32.6755 25.7161C32.3462 24.8321 31.8782 24.0868 31.2715 23.4801C30.6648 22.8561 29.9282 22.3795 29.0615 22.0501C28.2122 21.7035 27.2588 21.5301 26.2015 21.5301C25.1442 21.5301 24.1908 21.7035 23.3415 22.0501C22.4922 22.3795 21.7642 22.8561 21.1575 23.4801C20.5508 24.0868 20.0828 24.8321 19.7535 25.7161C19.4242 26.5828 19.2595 27.5535 19.2595 28.6281ZM43.1963 16.7721V35.3361H47.2783V16.7721H43.1963ZM54.9723 20.2041V35.3361H59.0543V20.2041H64.6183V16.7721H49.4083V20.2041H54.9723ZM78.0772 24.2861V19.9441H81.8992C82.2632 19.9441 82.6098 19.9788 82.9392 20.0481C83.2858 20.1001 83.5892 20.2041 83.8492 20.3601C84.1092 20.5161 84.3172 20.7328 84.4732 21.0101C84.6292 21.2875 84.7072 21.6428 84.7072 22.0761C84.7072 22.8561 84.4732 23.4195 84.0052 23.7661C83.5372 24.1128 82.9392 24.2861 82.2112 24.2861H78.0772ZM73.9952 16.7721V35.3361H82.9912C83.8232 35.3361 84.6292 35.2321 85.4092 35.0241C86.2065 34.8161 86.9085 34.4955 87.5152 34.0621C88.1392 33.6288 88.6332 33.0741 88.9972 32.3981C89.3612 31.7048 89.5432 30.8901 89.5432 29.9541C89.5432 28.7928 89.2572 27.8048 88.6852 26.9901C88.1305 26.1581 87.2812 25.5775 86.1372 25.2481C86.9692 24.8495 87.5932 24.3381 88.0092 23.7141C88.4425 23.0901 88.6592 22.3101 88.6592 21.3741C88.6592 20.5075 88.5118 19.7795 88.2172 19.1901C87.9398 18.6008 87.5412 18.1328 87.0212 17.7861C86.5012 17.4221 85.8772 17.1621 85.1492 17.0061C84.4212 16.8501 83.6152 16.7721 82.7312 16.7721H73.9952ZM78.0772 32.1641V27.0681H82.5232C83.4072 27.0681 84.1178 27.2761 84.6552 27.6921C85.1925 28.0908 85.4612 28.7668 85.4612 29.7201C85.4612 30.2055 85.3745 30.6041 85.2012 30.9161C85.0452 31.2281 84.8285 31.4795 84.5512 31.6701C84.2738 31.8435 83.9532 31.9735 83.5892 32.0601C83.2252 32.1295 82.8438 32.1641 82.4452 32.1641H78.0772ZM95.7078 19.8141V16.7721H92.0158V19.8141H95.7078ZM92.0158 21.8941V35.3361H95.7078V21.8941H92.0158ZM104.881 32.1641C104.309 32.1641 103.832 32.0428 103.451 31.8001C103.07 31.5575 102.758 31.2455 102.515 30.8641C102.29 30.4828 102.125 30.0581 102.021 29.5901C101.934 29.1048 101.891 28.6195 101.891 28.1341C101.891 27.6315 101.943 27.1548 102.047 26.7041C102.168 26.2361 102.35 25.8288 102.593 25.4821C102.853 25.1181 103.165 24.8321 103.529 24.6241C103.91 24.4161 104.361 24.3121 104.881 24.3121C105.488 24.3121 105.99 24.4248 106.389 24.6501C106.788 24.8755 107.108 25.1788 107.351 25.5601C107.594 25.9415 107.767 26.3835 107.871 26.8861C107.975 27.3715 108.027 27.8915 108.027 28.4461C108.027 28.9315 107.958 29.3995 107.819 29.8501C107.698 30.2835 107.507 30.6735 107.247 31.0201C106.987 31.3668 106.658 31.6441 106.259 31.8521C105.86 32.0601 105.401 32.1641 104.881 32.1641ZM111.537 34.4781V21.8941H108.027V23.6881H107.975C107.524 22.9081 106.961 22.3535 106.285 22.0241C105.626 21.6948 104.855 21.5301 103.971 21.5301C103.035 21.5301 102.203 21.7121 101.475 22.0761C100.764 22.4401 100.166 22.9341 99.6809 23.5581C99.1956 24.1648 98.8229 24.8755 98.5629 25.6901C98.3203 26.4875 98.1989 27.3195 98.1989 28.1861C98.1989 29.1048 98.3029 29.9801 98.5109 30.8121C98.7363 31.6268 99.0829 32.3461 99.5509 32.9701C100.019 33.5768 100.617 34.0621 101.345 34.4261C102.073 34.7728 102.94 34.9461 103.945 34.9461C104.76 34.9461 105.531 34.7815 106.259 34.4521C107.004 34.1055 107.576 33.5768 107.975 32.8661H108.027V34.6341C108.044 35.5875 107.81 36.3761 107.325 37.0001C106.857 37.6241 106.103 37.9361 105.063 37.9361C104.404 37.9361 103.824 37.7975 103.321 37.5201C102.818 37.2601 102.48 36.7835 102.307 36.0901H98.6409C98.6929 36.8528 98.9009 37.5028 99.2649 38.0401C99.6463 38.5948 100.114 39.0455 100.669 39.3921C101.241 39.7388 101.865 39.9901 102.541 40.1461C103.234 40.3195 103.91 40.4061 104.569 40.4061C106.112 40.4061 107.342 40.1981 108.261 39.7821C109.18 39.3661 109.882 38.8548 110.367 38.2481C110.852 37.6588 111.164 37.0175 111.303 36.3241C111.459 35.6308 111.537 35.0155 111.537 34.4781Z" fill="white"/>
<path d="M114.691 31.3321V35.3361H118.773V31.3321H114.691ZM118.643 21.7641V16.7721H114.795V21.7641L115.783 29.7721H117.629L118.643 21.7641Z" fill="#000029"/>
</svg>
