<svg width="517" height="400" viewBox="0 0 517 400" fill="none" xmlns="http://www.w3.org/2000/svg">
<path opacity="0.1" d="M161.432 400C222.5 400 272.005 392.483 272.005 383.211C272.005 373.938 222.5 366.421 161.432 366.421C100.365 366.421 50.8595 373.938 50.8595 383.211C50.8595 392.483 100.365 400 161.432 400Z" fill="#4863D0"/>
<path opacity="0.1" d="M159.643 17.651C177.181 2.16755 204.715 -1.00376 229.781 0.246109C308.499 4.1263 379.549 41.7483 441.028 84.3138C463.282 99.7273 485.192 116.33 499.634 137.555C529.039 180.75 520.314 240.594 479.428 276.178C465.517 288.304 448.654 297.57 431.344 305.797C400.561 320.427 367.347 332.17 332.411 335.514C307.498 337.897 282.278 335.957 257.51 332.632C188.308 323.342 120.381 302.784 63.4517 267.634C38.4833 252.235 14.9488 233.048 4.65506 208.102C-5.63866 183.156 0.930511 151.546 26.4483 136.785C36.9935 130.676 49.601 127.924 61.9433 125.326C80.1004 121.516 98.5742 117.757 114.972 110.011C131.904 102.003 151.956 86.5244 148.604 68.8117C145.005 49.7978 142.11 33.1065 159.643 17.651Z" fill="#4863D0"/>
<path d="M428.715 41.2595C431.862 62.0409 423.105 80.6071 423.105 80.6071C423.105 80.6071 409.245 65.4827 406.088 44.7013C404.324 33.0421 406.302 22.0917 408.379 14.7138C408.641 13.7556 409.175 12.8943 409.916 12.2343C410.657 11.5743 411.574 11.1441 412.554 10.996C413.535 10.8478 414.538 10.9881 415.44 11.3997C416.343 11.8113 417.107 12.4765 417.639 13.3147C421.815 19.7319 426.95 29.6049 428.715 41.2595Z" fill="#003A9E"/>
<path d="M487.237 74.3811C490.355 74.3666 493.462 74.7601 496.478 75.5517C501.558 76.8575 501.637 84.063 496.585 85.4807C493.587 86.3364 490.489 86.7973 487.372 86.8518C475.951 86.9778 466.626 80.8403 466.626 80.8403C466.626 80.8403 475.816 74.507 487.237 74.3811Z" fill="#003A9E"/>
<path d="M455.122 42.7894C444.493 54.4906 442.244 69.7828 442.244 69.7828C442.244 69.7828 457.226 66.0985 467.85 54.3926C472.776 48.9687 475.905 42.7754 477.841 37.6919C478.208 36.7296 478.277 35.679 478.04 34.6768C477.802 33.6746 477.269 32.7673 476.509 32.0729C475.75 31.3785 474.799 30.9292 473.781 30.7835C472.763 30.6378 471.725 30.8025 470.802 31.256C465.904 33.6672 460.047 37.3655 455.122 42.7894Z" fill="#003A9E"/>
<path d="M468.209 40.5834H247.343C242.252 40.5834 238.125 44.7176 238.125 49.8175V320.018C238.125 325.118 242.252 329.252 247.343 329.252H468.209C473.3 329.252 477.427 325.118 477.427 320.018V49.8175C477.427 44.7176 473.3 40.5834 468.209 40.5834Z" fill="#000029"/>
<path opacity="0.1" d="M456.784 69.7035H258.768V300.132H456.784V69.7035Z" fill="#4863D0"/>
<path d="M357.776 323.767C362.43 323.767 366.203 319.988 366.203 315.326C366.203 310.664 362.43 306.885 357.776 306.885C353.122 306.885 349.349 310.664 349.349 315.326C349.349 319.988 353.122 323.767 357.776 323.767Z" fill="white"/>
<path d="M357.776 61.4533C356.989 61.4533 356.219 61.2194 355.565 60.7813C354.91 60.3432 354.4 59.7204 354.099 58.9918C353.797 58.2632 353.718 57.4614 353.872 56.6879C354.026 55.9144 354.405 55.2039 354.961 54.6463C355.518 54.0886 356.227 53.7089 357 53.555C357.772 53.4012 358.572 53.4801 359.299 53.7819C360.027 54.0837 360.649 54.5948 361.086 55.2505C361.523 55.9063 361.757 56.6772 361.757 57.4659C361.754 58.5226 361.334 59.5354 360.588 60.2827C359.842 61.0299 358.831 61.4508 357.776 61.4533Z" fill="white"/>
<path d="M357.776 53.7117C358.517 53.7117 359.242 53.9319 359.858 54.3444C360.474 54.7569 360.955 55.3432 361.239 56.0292C361.522 56.7152 361.596 57.4701 361.452 58.1984C361.307 58.9266 360.95 59.5956 360.426 60.1206C359.902 60.6457 359.234 61.0032 358.507 61.1481C357.78 61.2929 357.027 61.2186 356.342 60.9344C355.657 60.6503 355.072 60.1691 354.66 59.5517C354.248 58.9343 354.028 58.2085 354.028 57.4659C354.029 56.4706 354.425 55.5164 355.127 54.8126C355.83 54.1088 356.782 53.7129 357.776 53.7117ZM357.776 53.2453C356.942 53.2407 356.125 53.4843 355.429 53.9452C354.733 54.4062 354.189 55.0637 353.867 55.8346C353.544 56.6054 353.458 57.4547 353.617 58.275C353.777 59.0952 354.177 59.8494 354.765 60.442C355.353 61.0346 356.104 61.4389 356.922 61.6037C357.74 61.7684 358.588 61.6862 359.36 61.3675C360.131 61.0487 360.79 60.5078 361.254 59.8132C361.718 59.1186 361.966 58.3017 361.966 57.4659C361.969 56.9128 361.863 56.3645 361.654 55.8525C361.445 55.3406 361.136 54.8751 360.747 54.4829C360.358 54.0907 359.895 53.7794 359.385 53.567C358.875 53.3546 358.328 53.2453 357.776 53.2453Z" fill="white"/>
<path d="M307.034 141.086H269.97C268.864 141.086 267.968 141.984 267.968 143.091V195.008C267.968 196.115 268.864 197.013 269.97 197.013H307.034C308.139 197.013 309.035 196.115 309.035 195.008V143.091C309.035 141.984 308.139 141.086 307.034 141.086Z" fill="white" stroke="white" stroke-width="0.461711" stroke-miterlimit="10"/>
<path opacity="0.5" d="M301.861 155.18H275.142C273.306 155.18 271.818 156.67 271.818 158.509V169.595C271.818 171.434 273.306 172.925 275.142 172.925H301.861C303.697 172.925 305.185 171.434 305.185 169.595V158.509C305.185 156.67 303.697 155.18 301.861 155.18Z" fill="#8090FF"/>
<path d="M297.434 180.163H279.57C279.136 180.163 278.783 180.516 278.783 180.951V182.131C278.783 182.566 279.136 182.919 279.57 182.919H297.434C297.869 182.919 298.221 182.566 298.221 182.131V180.951C298.221 180.516 297.869 180.163 297.434 180.163Z" fill="#003A9E"/>
<path d="M376.464 141.086H339.4C338.294 141.086 337.398 141.984 337.398 143.091V195.008C337.398 196.115 338.294 197.013 339.4 197.013H376.464C377.57 197.013 378.466 196.115 378.466 195.008V143.091C378.466 141.984 377.57 141.086 376.464 141.086Z" fill="white" stroke="white" stroke-width="0.461711" stroke-miterlimit="10"/>
<path opacity="0.5" d="M367.199 149.821H348.879C348.504 149.821 348.199 150.126 348.199 150.502V159.605C348.199 159.981 348.504 160.286 348.879 160.286H367.199C367.574 160.286 367.879 159.981 367.879 159.605V150.502C367.879 150.126 367.574 149.821 367.199 149.821Z" fill="#8090FF"/>
<path d="M369.657 170.094H346.109C345.674 170.094 345.322 170.447 345.322 170.882V172.062C345.322 172.497 345.674 172.85 346.109 172.85H369.657C370.092 172.85 370.444 172.497 370.444 172.062V170.882C370.444 170.447 370.092 170.094 369.657 170.094Z" fill="#003A9E"/>
<path d="M369.657 175.233H346.109C345.674 175.233 345.322 175.586 345.322 176.022V177.201C345.322 177.637 345.674 177.99 346.109 177.99H369.657C370.092 177.99 370.444 177.637 370.444 177.201V176.022C370.444 175.586 370.092 175.233 369.657 175.233Z" fill="#003A9E"/>
<path d="M445.582 101.356H408.518C407.413 101.356 406.517 102.254 406.517 103.361V155.278C406.517 156.385 407.413 157.283 408.518 157.283H445.582C446.688 157.283 447.584 156.385 447.584 155.278V103.361C447.584 102.254 446.688 101.356 445.582 101.356Z" fill="white" stroke="white" stroke-width="0.461711" stroke-miterlimit="10"/>
<path opacity="0.5" d="M439.739 110.035H414.361C413.986 110.035 413.682 110.34 413.682 110.716V121.853C413.682 122.229 413.986 122.534 414.361 122.534H439.739C440.115 122.534 440.419 122.229 440.419 121.853V110.716C440.419 110.34 440.115 110.035 439.739 110.035Z" fill="#8090FF"/>
<path opacity="0.5" d="M439.739 128.2H414.361C413.986 128.2 413.682 128.505 413.682 128.881V140.018C413.682 140.394 413.986 140.699 414.361 140.699H439.739C440.115 140.699 440.419 140.394 440.419 140.018V128.881C440.419 128.505 440.115 128.2 439.739 128.2Z" fill="#8090FF"/>
<path d="M418.533 150.772H413.328C412.343 150.772 411.545 151.572 411.545 152.559V152.843C411.545 153.83 412.343 154.629 413.328 154.629H418.533C419.518 154.629 420.316 153.83 420.316 152.843V152.559C420.316 151.572 419.518 150.772 418.533 150.772Z" fill="#003A9E"/>
<path d="M429.655 150.772H424.45C423.465 150.772 422.667 151.572 422.667 152.559V152.843C422.667 153.83 423.465 154.629 424.45 154.629H429.655C430.64 154.629 431.438 153.83 431.438 152.843V152.559C431.438 151.572 430.64 150.772 429.655 150.772Z" fill="#003A9E"/>
<path d="M440.777 150.772H435.572C434.588 150.772 433.789 151.572 433.789 152.559V152.843C433.789 153.83 434.588 154.629 435.572 154.629H440.777C441.762 154.629 442.561 153.83 442.561 152.843V152.559C442.561 151.572 441.762 150.772 440.777 150.772Z" fill="#003A9E"/>
<path d="M445.484 180.816H408.421C407.315 180.816 406.419 181.714 406.419 182.821V234.738C406.419 235.845 407.315 236.743 408.421 236.743H445.484C446.59 236.743 447.486 235.845 447.486 234.738V182.821C447.486 181.714 446.59 180.816 445.484 180.816Z" fill="white" stroke="white" stroke-width="0.461711" stroke-miterlimit="10"/>
<path opacity="0.5" d="M421.182 187.354H410.269C409.894 187.354 409.589 187.659 409.589 188.035V199.172C409.589 199.548 409.894 199.853 410.269 199.853H421.182C421.557 199.853 421.862 199.548 421.862 199.172V188.035C421.862 187.659 421.557 187.354 421.182 187.354Z" fill="#8090FF"/>
<path d="M438.729 207.464H415.181C414.746 207.464 414.394 207.817 414.394 208.252V209.432C414.394 209.868 414.746 210.22 415.181 210.22H438.729C439.164 210.22 439.516 209.868 439.516 209.432V208.252C439.516 207.817 439.164 207.464 438.729 207.464Z" fill="#003A9E"/>
<path d="M438.729 213.037H415.181C414.746 213.037 414.394 213.39 414.394 213.825V215.005C414.394 215.441 414.746 215.793 415.181 215.793H438.729C439.164 215.793 439.516 215.441 439.516 215.005V213.825C439.516 213.39 439.164 213.037 438.729 213.037Z" fill="#003A9E"/>
<path d="M438.729 218.61H415.181C414.746 218.61 414.394 218.963 414.394 219.399V220.578C414.394 221.014 414.746 221.367 415.181 221.367H438.729C439.164 221.367 439.516 221.014 439.516 220.578V219.399C439.516 218.963 439.164 218.61 438.729 218.61Z" fill="#003A9E"/>
<path d="M332.663 167.715L332.035 168.019L326.941 170.472L326.476 170.691C326.445 170.705 326.411 170.713 326.377 170.714C326.343 170.715 326.309 170.709 326.277 170.697C326.245 170.684 326.216 170.665 326.192 170.641C326.168 170.616 326.149 170.588 326.136 170.556C326.131 170.525 326.131 170.493 326.136 170.462V169.012C326.136 168.946 326.11 168.884 326.064 168.837C326.017 168.791 325.955 168.765 325.889 168.765H313.51C313.444 168.765 313.381 168.739 313.334 168.693C313.287 168.646 313.26 168.584 313.258 168.518V166.47C313.26 166.404 313.287 166.341 313.334 166.295C313.381 166.249 313.444 166.223 313.51 166.223H325.903C325.969 166.222 326.032 166.195 326.078 166.148C326.124 166.101 326.15 166.037 326.15 165.971V164.488C326.145 164.457 326.145 164.426 326.15 164.395C326.163 164.363 326.182 164.335 326.207 164.311C326.231 164.287 326.26 164.269 326.292 164.257C326.324 164.244 326.358 164.239 326.392 164.24C326.426 164.241 326.459 164.25 326.49 164.264L326.955 164.484L332.035 166.96L332.663 167.268C332.706 167.288 332.742 167.319 332.767 167.359C332.792 167.399 332.805 167.445 332.805 167.492C332.805 167.539 332.792 167.585 332.767 167.624C332.742 167.664 332.706 167.696 332.663 167.715Z" fill="white" stroke="white" stroke-width="0.461711" stroke-miterlimit="10"/>
<path d="M401.581 155.138L401.172 155.702L397.838 160.254L397.545 160.659C397.524 160.686 397.498 160.709 397.468 160.726C397.439 160.742 397.406 160.753 397.372 160.757C397.338 160.761 397.304 160.758 397.271 160.748C397.239 160.739 397.208 160.723 397.182 160.701C397.158 160.681 397.139 160.655 397.126 160.627L396.446 159.349C396.415 159.29 396.361 159.246 396.298 159.226C396.235 159.206 396.166 159.212 396.106 159.242L385.166 165.076C385.137 165.091 385.105 165.101 385.073 165.104C385.04 165.107 385.008 165.104 384.977 165.095C384.945 165.085 384.916 165.069 384.891 165.049C384.866 165.028 384.845 165.002 384.83 164.973L383.871 163.159C383.856 163.13 383.846 163.099 383.843 163.066C383.84 163.034 383.843 163.001 383.853 162.97C383.862 162.939 383.878 162.91 383.898 162.885C383.919 162.859 383.945 162.839 383.974 162.823L394.915 156.998C394.943 156.983 394.969 156.962 394.99 156.937C395.01 156.912 395.026 156.883 395.036 156.852C395.045 156.821 395.048 156.788 395.045 156.755C395.042 156.723 395.032 156.691 395.017 156.663L394.323 155.352C394.306 155.326 394.296 155.295 394.295 155.264C394.291 155.229 394.293 155.195 394.303 155.162C394.313 155.129 394.33 155.098 394.352 155.072C394.374 155.046 394.402 155.025 394.433 155.011C394.465 154.996 394.498 154.989 394.533 154.988H395.031L400.674 154.783L401.372 154.76C401.416 154.76 401.459 154.772 401.497 154.794C401.535 154.816 401.566 154.848 401.588 154.887C401.609 154.926 401.62 154.969 401.619 155.013C401.618 155.057 401.605 155.1 401.581 155.138Z" fill="white" stroke="white" stroke-width="0.461711" stroke-miterlimit="10"/>
<path d="M401.544 179.044H400.851H395.213H394.714C394.68 179.044 394.647 179.037 394.616 179.023C394.584 179.01 394.556 178.99 394.533 178.965C394.51 178.94 394.492 178.91 394.481 178.878C394.47 178.846 394.465 178.812 394.468 178.778C394.469 178.747 394.477 178.717 394.491 178.689L395.115 177.379C395.129 177.349 395.137 177.317 395.139 177.285C395.141 177.252 395.136 177.22 395.126 177.189C395.115 177.158 395.098 177.13 395.076 177.106C395.054 177.081 395.028 177.062 394.998 177.048L383.825 171.675C383.765 171.646 383.719 171.594 383.697 171.531C383.676 171.468 383.68 171.399 383.708 171.339L384.593 169.497C384.606 169.467 384.626 169.44 384.65 169.418C384.674 169.396 384.702 169.379 384.733 169.368C384.764 169.357 384.797 169.352 384.83 169.355C384.862 169.357 384.894 169.366 384.924 169.381L396.097 174.758C396.157 174.785 396.226 174.789 396.288 174.767C396.351 174.745 396.402 174.7 396.432 174.641L397.075 173.303C397.092 173.264 397.119 173.231 397.153 173.206C397.187 173.181 397.227 173.166 397.269 173.161C397.311 173.156 397.353 173.162 397.392 173.179C397.43 173.196 397.464 173.222 397.489 173.256L397.801 173.643L401.307 178.083L401.74 178.633C401.772 178.67 401.793 178.715 401.799 178.763C401.806 178.811 401.798 178.859 401.777 178.903C401.757 178.947 401.723 178.984 401.682 179.009C401.641 179.033 401.593 179.046 401.544 179.044Z" fill="white" stroke="white" stroke-width="0.461711" stroke-miterlimit="10"/>
<path opacity="0.1" d="M197.495 282.927L197.458 284.294L195.083 368.273H191.089L193.049 284.294L193.086 282.718L197.495 282.927Z" fill="#000029"/>
<path d="M197.495 282.927L197.458 284.294L195.083 368.273H191.089L193.049 284.294L193.086 282.718L197.495 282.927Z" fill="#000029"/>
<path d="M220.61 354.067L217.621 354.058L173.183 353.965L170.818 353.96L172.075 350.066H220.294L220.61 354.067Z" fill="#000029"/>
<path opacity="0.1" d="M197.495 282.927L197.458 284.294H193.049L193.086 282.718L197.495 282.927Z" fill="black"/>
<path d="M199.18 280.875H191.773V283.664H199.18V280.875Z" fill="#504F60"/>
<path opacity="0.1" d="M173.58 350.066L173.184 353.965L170.818 353.96L172.075 350.066H173.58Z" fill="black"/>
<path d="M179.957 280.824L179.831 282.032L169.975 379.424L165.459 379.214L175.846 282.032L175.962 280.927L179.957 280.824Z" fill="#000029"/>
<path opacity="0.1" d="M220.61 354.067L217.621 354.058L217.216 350.066H220.294L220.61 354.067Z" fill="black"/>
<path d="M225.34 379.214L220.82 379.424L210.964 282.032L210.843 280.824L214.833 280.927L214.949 282.032L225.34 379.214Z" fill="#000029"/>
<path d="M244.564 184.794H144.974V280.451H244.564V184.794Z" fill="white"/>
<path d="M264.602 184.794H125.052C123.99 184.794 123.13 185.656 123.13 186.72V278.525C123.13 279.589 123.99 280.451 125.052 280.451H264.602C265.664 280.451 266.525 279.589 266.525 278.525V186.72C266.525 185.656 265.664 184.794 264.602 184.794Z" fill="white"/>
<path d="M196.708 152.806V175.905H192.825V152.806C192.825 152.29 193.03 151.795 193.394 151.431C193.758 151.066 194.252 150.861 194.767 150.861C195.281 150.861 195.775 151.066 196.139 151.431C196.503 151.795 196.708 152.29 196.708 152.806Z" fill="#000029"/>
<path opacity="0.1" d="M196.713 173.802H192.825V175.905H196.713V173.802Z" fill="black"/>
<path d="M198.235 175.378V183.008H191.303V175.378C191.303 175.13 191.401 174.893 191.575 174.718C191.75 174.543 191.987 174.445 192.234 174.445H197.276C197.401 174.441 197.525 174.463 197.641 174.508C197.757 174.553 197.863 174.621 197.953 174.708C198.042 174.795 198.113 174.899 198.162 175.014C198.21 175.129 198.235 175.253 198.235 175.378Z" fill="#000029"/>
<path opacity="0.1" d="M194.767 180.746C195.58 180.746 196.238 180.086 196.238 179.272C196.238 178.458 195.58 177.798 194.767 177.798C193.954 177.798 193.295 178.458 193.295 179.272C193.295 180.086 193.954 180.746 194.767 180.746Z" fill="black"/>
<path d="M194.767 180.429C195.58 180.429 196.238 179.769 196.238 178.955C196.238 178.141 195.58 177.481 194.767 177.481C193.954 177.481 193.295 178.141 193.295 178.955C193.295 179.769 193.954 180.429 194.767 180.429Z" fill="white"/>
<path opacity="0.1" d="M198.235 182.061H191.303V183.008H198.235V182.061Z" fill="black"/>
<path opacity="0.1" d="M201.07 183.325H188.463V185.428H201.07V183.325Z" fill="black"/>
<path d="M201.07 182.691H188.463V184.794H201.07V182.691Z" fill="#000029"/>
<path opacity="0.1" d="M169.765 277.961H221.713C222.454 277.961 223.165 278.255 223.689 278.78C224.213 279.305 224.507 280.017 224.507 280.759H166.981C166.981 280.018 167.274 279.308 167.796 278.783C168.318 278.259 169.026 277.963 169.765 277.961Z" fill="black"/>
<path opacity="0.1" d="M175.962 280.927L179.957 280.824L179.831 282.032H175.846L175.962 280.927Z" fill="black"/>
<path opacity="0.1" d="M199.18 280.875H191.773V282.032H199.18V280.875Z" fill="black"/>
<path opacity="0.1" d="M214.949 282.032H210.964L210.843 280.824L214.833 280.927L214.949 282.032Z" fill="black"/>
<path d="M169.765 278.613H221.713C222.454 278.613 223.165 278.908 223.689 279.433C224.213 279.958 224.507 280.669 224.507 281.412H166.981C166.981 280.669 167.276 279.958 167.799 279.433C168.323 278.908 169.034 278.613 169.775 278.613H169.765Z" fill="#000029"/>
<path d="M241.086 196.029C241.192 196.012 241.299 196.02 241.401 196.053C241.503 196.085 241.596 196.14 241.673 196.214C241.75 196.288 241.809 196.379 241.845 196.479C241.882 196.58 241.894 196.687 241.882 196.794C241.207 203.323 241.64 210.011 242.371 216.526C242.711 219.506 243.172 222.658 244.489 224.869C244.573 225.003 244.61 225.162 244.593 225.319C244.576 225.476 244.507 225.623 244.396 225.736C244.028 226.023 243.567 226.161 243.102 226.124L222.324 226.24C222.218 226.241 222.114 226.218 222.019 226.172C221.924 226.127 221.84 226.06 221.775 225.977C221.709 225.895 221.663 225.798 221.641 225.695C221.618 225.592 221.619 225.485 221.644 225.382C223.315 218.247 222.957 210.458 222.286 203.057C221.956 199.415 221.765 197.461 224.479 197.204C227.273 196.952 230.066 196.836 232.859 196.602C233.53 196.546 238.903 196.388 241.086 196.029Z" fill="white" stroke="#33313F" stroke-width="1.38513" stroke-miterlimit="10"/>
<path d="M225.187 238.79C225.081 238.774 224.973 238.782 224.872 238.814C224.77 238.846 224.677 238.901 224.6 238.975C224.523 239.049 224.464 239.14 224.427 239.241C224.391 239.341 224.379 239.449 224.391 239.555C225.066 246.084 224.633 252.772 223.897 259.287C223.562 262.267 223.101 265.42 221.783 267.635C221.699 267.768 221.662 267.926 221.679 268.083C221.696 268.24 221.766 268.386 221.876 268.498C222.244 268.785 222.706 268.923 223.171 268.885L243.949 269.006C244.054 269.006 244.158 268.981 244.253 268.935C244.347 268.888 244.43 268.821 244.496 268.738C244.561 268.656 244.607 268.559 244.63 268.456C244.653 268.353 244.653 268.246 244.629 268.144C242.957 261.008 243.316 253.22 243.986 245.818C244.317 242.176 244.508 240.222 241.794 239.966C239.079 239.709 236.207 239.597 233.413 239.364C232.743 239.308 227.37 239.149 225.187 238.79Z" fill="white" stroke="#33313F" stroke-width="1.38513" stroke-miterlimit="10"/>
<path d="M231.29 250.804C233.705 250.691 236.124 250.721 238.535 250.892C238.691 250.908 238.837 250.976 238.949 251.086C239.061 251.197 239.132 251.342 239.149 251.499L239.377 253.406C239.389 253.449 239.39 253.494 239.38 253.537C239.37 253.58 239.35 253.62 239.321 253.653C239.27 253.69 239.207 253.707 239.145 253.7C238.13 253.728 237.115 253.611 236.104 253.7C235.476 253.751 234.852 253.873 234.242 253.942C233.211 254.033 232.175 254.052 231.141 253.998C229.685 254.024 228.232 253.845 226.826 253.467C226.826 253.467 226.909 251.886 226.909 251.737C226.909 251 226.886 250.934 227.645 250.916L231.29 250.804Z" stroke="#33313F" stroke-width="0.923421" stroke-miterlimit="10" stroke-linecap="round"/>
<path d="M231.29 259.404C233.705 259.517 236.124 259.486 238.535 259.31C238.691 259.295 238.837 259.227 238.949 259.117C239.061 259.006 239.132 258.861 239.149 258.704L239.377 256.801C239.389 256.758 239.39 256.712 239.38 256.669C239.37 256.625 239.35 256.584 239.321 256.55C239.27 256.513 239.207 256.496 239.145 256.503C238.13 256.475 237.115 256.596 236.104 256.503C235.476 256.456 234.852 256.335 234.242 256.265C233.211 256.172 232.175 256.153 231.141 256.209C229.685 256.184 228.232 256.363 226.826 256.741C226.826 256.741 226.909 258.317 226.909 258.471C226.909 259.208 226.886 259.268 227.645 259.292L231.29 259.404Z" stroke="#33313F" stroke-width="0.923421" stroke-miterlimit="10" stroke-linecap="round"/>
<path d="M231.29 262.771C233.705 262.657 236.124 262.688 238.535 262.864C238.691 262.879 238.837 262.948 238.949 263.058C239.061 263.168 239.132 263.314 239.149 263.47L239.377 265.373C239.389 265.417 239.39 265.462 239.38 265.506C239.37 265.55 239.35 265.591 239.321 265.625C239.27 265.662 239.207 265.678 239.145 265.672C238.13 265.7 237.115 265.578 236.104 265.672C235.476 265.718 234.852 265.844 234.242 265.914C233.211 266.004 232.175 266.021 231.141 265.965C229.685 265.992 228.233 265.815 226.826 265.438C226.826 265.438 226.909 263.857 226.909 263.704C226.909 262.967 226.886 262.906 227.645 262.887L231.29 262.771Z" stroke="#33313F" stroke-width="0.923421" stroke-miterlimit="10" stroke-linecap="round"/>
<path d="M234.349 222.854C234.562 223.367 234.633 223.928 234.554 224.477C234.555 224.522 234.543 224.565 234.521 224.603C234.496 224.628 234.465 224.647 234.431 224.659C234.397 224.671 234.362 224.676 234.326 224.673L229.903 224.846C229.903 224.846 230.15 223.54 230.182 223.447C230.336 222.915 230.722 223.055 231.221 223.027L234.349 222.854Z" fill="white" stroke="#33313F" stroke-width="0.923421" stroke-miterlimit="10" stroke-linecap="round"/>
<path d="M241.03 222.854C241.241 223.367 241.311 223.928 241.23 224.477C241.233 224.521 241.223 224.565 241.202 224.603C241.176 224.628 241.146 224.647 241.112 224.659C241.078 224.671 241.042 224.676 241.007 224.673L236.579 224.846C236.579 224.846 236.831 223.54 236.863 223.447C237.012 222.915 237.399 223.055 237.902 223.027L241.03 222.854Z" fill="white" stroke="#33313F" stroke-width="0.923421" stroke-miterlimit="10" stroke-linecap="round"/>
<path d="M238.362 200.59L238.958 205.72C238.978 205.905 238.961 206.093 238.907 206.271C238.854 206.45 238.765 206.616 238.647 206.76C238.529 206.904 238.383 207.022 238.218 207.109C238.053 207.195 237.873 207.248 237.687 207.264C233.909 207.563 230.111 207.538 226.337 207.189C226.001 207.157 225.689 207.004 225.457 206.759C225.225 206.514 225.089 206.193 225.075 205.855C225.004 204.941 224.87 204.032 224.675 203.136C224.521 202.204 224.353 201.304 225.452 201.028C226.551 200.753 228.055 200.949 229.256 200.926C230.696 200.898 232.131 200.857 233.562 200.805C233.963 200.805 238.362 200.567 238.362 200.59Z" stroke="#33313F" stroke-width="1.38513" stroke-miterlimit="10"/>
<path d="M238.362 219.123L238.949 213.993C238.969 213.808 238.952 213.621 238.898 213.442C238.845 213.263 238.756 213.097 238.638 212.954C238.519 212.81 238.373 212.691 238.209 212.605C238.044 212.518 237.863 212.465 237.678 212.45C233.899 212.151 230.102 212.175 226.327 212.52C225.991 212.552 225.678 212.706 225.446 212.952C225.214 213.198 225.079 213.52 225.066 213.858C224.995 214.773 224.861 215.681 224.665 216.577C224.512 217.51 224.344 218.41 225.443 218.685C226.542 218.96 228.045 218.764 229.246 218.788C230.685 218.816 232.119 218.853 233.553 218.909C233.963 218.923 238.362 219.161 238.362 219.123Z" stroke="#33313F" stroke-width="1.38513" stroke-miterlimit="10"/>
<path d="M232.38 242.241C232.225 243.948 232.127 245.658 232.087 247.371C230.378 247.357 228.675 247.162 227.007 246.789C226.876 246.782 226.747 246.747 226.631 246.686C226.515 246.625 226.413 246.538 226.334 246.433C226.254 246.328 226.199 246.207 226.171 246.078C226.143 245.95 226.144 245.816 226.174 245.688C226.141 244.625 225.583 242.251 227.077 242.102C227.524 242.055 232.375 242.325 232.38 242.241Z" stroke="#33313F" stroke-width="0.923421" stroke-miterlimit="10" stroke-linecap="round"/>
<path d="M150.174 218.942C150.393 218.918 150.615 218.943 150.823 219.016C151.031 219.088 151.22 219.206 151.377 219.361C151.534 219.516 151.654 219.704 151.73 219.911C151.805 220.119 151.834 220.34 151.813 220.56C151.278 226.767 151.701 233.124 152.4 239.313C152.712 242.064 153.126 244.96 154.225 247.129C154.32 247.315 154.367 247.522 154.359 247.731C154.352 247.94 154.291 248.144 154.183 248.323C154.075 248.502 153.922 248.65 153.74 248.752C153.558 248.855 153.353 248.91 153.145 248.91L132.529 249.032C132.406 249.032 132.284 249.006 132.173 248.953C132.062 248.9 131.964 248.823 131.887 248.727C131.809 248.631 131.754 248.519 131.726 248.399C131.698 248.279 131.697 248.154 131.724 248.034C133.358 240.936 132.999 233.184 132.334 225.844C131.998 222.201 131.812 220.247 134.522 219.991C137.315 219.744 140.109 219.627 142.879 219.389C143.47 219.343 147.697 219.212 150.174 218.942Z" fill="white" stroke="#33313F" stroke-width="1.38513" stroke-miterlimit="10" stroke-linecap="round"/>
<path d="M178.854 218.825C178.741 218.808 178.626 218.817 178.517 218.851C178.408 218.886 178.309 218.945 178.227 219.025C178.145 219.104 178.082 219.202 178.044 219.309C178.006 219.417 177.993 219.532 178.006 219.646C178.672 226.142 178.239 232.821 177.508 239.313C177.173 242.293 176.712 245.431 175.399 247.647C175.307 247.803 175.276 247.989 175.312 248.167C175.348 248.345 175.449 248.504 175.595 248.612C175.947 248.836 176.361 248.94 176.777 248.91L197.5 249.032C197.613 249.032 197.726 249.006 197.828 248.956C197.93 248.906 198.019 248.833 198.089 248.743C198.158 248.653 198.207 248.548 198.23 248.436C198.253 248.325 198.25 248.209 198.221 248.099C196.569 240.978 196.922 233.198 197.593 225.83C197.923 222.188 198.114 220.233 195.405 219.977C192.611 219.73 189.818 219.613 187.024 219.375C186.34 219.333 181.079 219.179 178.854 218.825Z" fill="white" stroke="#33313F" stroke-width="1.38513" stroke-miterlimit="10"/>
<path d="M137.832 223.064L148.372 237.149" stroke="#33313F" stroke-width="0.923421" stroke-miterlimit="10" stroke-linecap="round"/>
<path d="M148.373 222.01L138.181 237.853" stroke="#33313F" stroke-width="0.923421" stroke-miterlimit="10" stroke-linecap="round"/>
<path d="M184.869 223.727L190.609 231.398" stroke="#33313F" stroke-width="0.923421" stroke-miterlimit="10" stroke-linecap="round"/>
<path d="M190.609 223.148L185.059 231.781" stroke="#33313F" stroke-width="0.923421" stroke-miterlimit="10" stroke-linecap="round"/>
<path d="M141.314 241.649C143.73 241.536 146.151 241.566 148.563 241.738C148.719 241.754 148.865 241.823 148.976 241.933C149.088 242.044 149.159 242.188 149.178 242.344L149.401 244.251C149.412 244.295 149.414 244.34 149.405 244.383C149.396 244.427 149.377 244.468 149.35 244.503C149.297 244.535 149.235 244.552 149.173 244.55C148.158 244.578 147.139 244.457 146.128 244.55C145.5 244.597 144.881 244.718 144.266 244.788C143.235 244.879 142.199 244.897 141.166 244.844C139.711 244.869 138.26 244.69 136.854 244.312C136.826 244.312 136.938 242.736 136.938 242.582C136.938 241.845 136.91 241.784 137.669 241.761L141.314 241.649Z" stroke="#33313F" stroke-width="0.923421" stroke-miterlimit="10" stroke-linecap="round"/>
<path d="M185.6 234.607C188.016 234.493 190.436 234.524 192.848 234.7C193.005 234.715 193.151 234.784 193.263 234.894C193.375 235.004 193.446 235.15 193.463 235.306L193.686 237.209C193.698 237.252 193.699 237.297 193.69 237.341C193.681 237.385 193.662 237.426 193.635 237.461C193.584 237.497 193.521 237.514 193.458 237.508C192.443 237.536 191.424 237.414 190.413 237.508C189.785 237.554 189.166 237.68 188.551 237.746C187.52 237.839 186.484 237.857 185.451 237.801C183.994 237.827 182.542 237.648 181.135 237.27C181.111 237.27 181.219 235.694 181.219 235.54C181.219 234.803 181.195 234.742 181.954 234.719L185.6 234.607Z" stroke="#33313F" stroke-width="0.923421" stroke-miterlimit="10" stroke-linecap="round"/>
<path d="M189.291 239.891C186.877 239.778 184.458 239.808 182.047 239.979C181.891 239.995 181.744 240.063 181.633 240.173C181.521 240.284 181.45 240.429 181.433 240.586L181.218 242.489C181.205 242.531 181.203 242.577 181.212 242.621C181.221 242.665 181.241 242.706 181.27 242.74C181.321 242.777 181.384 242.794 181.447 242.787C182.462 242.815 183.477 242.698 184.491 242.787C185.12 242.834 185.739 242.96 186.354 243.03C187.385 243.118 188.421 243.137 189.454 243.085C190.911 243.111 192.363 242.932 193.77 242.554C193.793 242.554 193.686 240.973 193.686 240.824C193.686 240.082 193.714 240.021 192.955 240.003L189.291 239.891Z" stroke="#33313F" stroke-width="0.923421" stroke-miterlimit="10" stroke-linecap="round"/>
<path d="M159.164 236.44C159.164 236.44 166.013 236.09 167.242 236.44" stroke="#33313F" stroke-width="1.38513" stroke-miterlimit="10"/>
<path d="M167.251 232.746C167.251 232.746 170.236 235.736 170.236 236.44C170.236 237.144 166.371 239.606 166.371 239.606" stroke="#33313F" stroke-width="1.38513" stroke-miterlimit="10"/>
<path d="M203.957 230.06C203.957 230.06 210.163 227.15 211.434 227.01" stroke="#33313F" stroke-width="1.38513" stroke-miterlimit="10"/>
<path d="M210.047 223.591C210.047 223.591 213.934 225.233 214.199 225.881C214.465 226.529 211.816 230.274 211.816 230.274" stroke="#33313F" stroke-width="1.38513" stroke-miterlimit="10"/>
<path d="M203.892 237.512C203.892 237.512 210.2 240.194 211.155 241.052" stroke="#33313F" stroke-width="1.38513" stroke-miterlimit="10"/>
<path d="M212.765 237.727C212.765 237.727 214.162 241.724 213.836 242.358C213.51 242.992 208.98 243.515 208.98 243.515" stroke="#33313F" stroke-width="1.38513" stroke-miterlimit="10"/>
<path d="M228.376 222.854C228.587 223.367 228.657 223.928 228.576 224.477C228.579 224.521 228.569 224.565 228.548 224.603C228.522 224.628 228.491 224.647 228.458 224.659C228.424 224.671 228.388 224.676 228.353 224.673L223.925 224.846C223.925 224.846 224.177 223.54 224.209 223.447C224.358 222.915 224.749 223.055 225.247 223.027L228.376 222.854Z" fill="white" stroke="#33313F" stroke-width="0.923421" stroke-miterlimit="10" stroke-linecap="round"/>
<path d="M144.737 263.046L146.301 261.586L144.904 261.53L144.173 262.654L144.737 263.046Z" fill="#33313F"/>
<path d="M133.484 273.269L135.141 271.138L135.509 270.755L140.584 265.429L142.311 263.62L143.121 263.522L144.285 262.365L144.969 262.967L143.838 264.291L143.857 264.986L142.092 266.903L137.111 272.322L136.789 272.667L134.787 274.523L133.484 273.269Z" fill="#65617D"/>
<path d="M135.509 270.755L140.584 265.429L142.092 266.903L137.11 272.322L135.509 270.755Z" fill="#33313F"/>
<path d="M143.168 272.807C141.692 271.432 140.41 269.863 139.355 268.144C137.12 264.655 133.386 262.771 130.825 261.834V260.7L130.984 260.668L130.914 259.614H130.984L130.802 256.815V256.792L129.88 242.908C129.88 242.908 126.598 233.651 132.432 225.112C138.265 216.572 132.795 208.383 127.31 205.179C127.31 205.179 124.759 191.654 126.947 188.45C123.979 186.739 120.92 185.19 117.785 183.81C117.734 183.642 117.692 183.474 117.65 183.297C117.589 182.038 117.51 180.779 117.44 179.519C117.513 178.865 117.633 178.217 117.799 177.579C117.869 177.313 117.948 177.048 118.031 176.772C120.639 175.775 122.885 174.012 124.475 171.714C126.066 169.417 126.928 166.692 126.947 163.896C126.948 162.265 126.655 160.647 126.081 159.12C126.376 158.635 126.6 158.111 126.747 157.563C127.096 156.122 126.7 154.583 125.881 153.123C124.419 149.961 120.774 146.999 118.129 145.904C114.34 144.365 108.636 144.728 104.688 145.204C102.472 145.47 99.9441 146.211 99.1434 148.245C98.8501 148.991 98.8454 149.816 98.6406 150.577C97.8118 153.683 94.2316 155.128 92.0202 157.507C90.0648 159.605 89.2268 162.446 88.575 165.211C86.7595 173.137 86.3264 181.318 87.2946 189.392C87.5181 191.258 87.8161 193.1 88.1327 194.947C86.8011 196.812 85.6 200.11 86.1493 205.837L81.773 226.478L79.9526 238.58C79.9526 238.58 78.8585 243.561 83.2116 247.833C86.005 250.557 89.3804 255.16 91.4615 258.14C90.5553 260.779 90.1066 263.553 90.1346 266.343C90.1812 267.612 90.251 268.838 90.3395 270.004C90.5238 272.481 90.9925 274.929 91.7362 277.298C92.2483 282.27 93.2586 288.626 95.2373 292.689L95.9635 314.398C95.9635 314.398 94.8695 334.331 92.7046 338.243C90.5397 342.156 97.4394 375.259 97.4394 375.259V379.886L96.2755 383.309L95.9822 383.09C90.5164 389.852 95.9822 392.342 95.9822 392.342C95.9822 392.342 97.472 392.412 99.851 392.505C99.6491 393.454 99.7683 394.443 100.19 395.316C100.611 396.19 101.311 396.897 102.179 397.328C102.179 397.328 133.153 398.75 138.624 397.328C144.094 395.905 142.632 390.92 139.713 391.265C138.6 391.405 136.957 391.111 135.351 390.696C137.05 388.714 135.69 386.032 133.521 386.284C130.606 386.639 124.047 384.055 124.047 384.055L124.014 384.097C123.805 384.017 123.59 383.951 123.372 383.901C120.935 383.352 118.528 382.678 116.16 381.882C114.763 378.883 111.504 370.824 113.832 364.575C114.884 361.748 115.229 357.99 115.229 354.343C115.284 343.34 116.9 332.402 120.029 321.855L124.4 306.931C124.4 306.931 130.597 288.776 130.96 283.795L130.937 276.547C136.058 279.812 140.132 278.833 142.73 277.308C143.109 277.084 143.43 276.773 143.666 276.402C143.903 276.03 144.048 275.608 144.091 275.169C144.133 274.73 144.072 274.288 143.912 273.877C143.751 273.467 143.496 273.1 143.168 272.807ZM94.5296 235.031C94.6553 234.509 94.7577 233.94 94.8462 233.338C95.7028 233.338 96.5641 233.338 97.4208 233.31C98.4863 235.479 98.9342 237.899 98.715 240.306C96.741 239.695 93.7893 238.198 94.5296 235.055V235.031Z" fill="url(#paint0_linear)"/>
<path d="M97.9936 378.155L96.5969 382.353L101.155 386.918L116.235 390.43L127.106 389.376L126.403 385.51C126.194 384.68 125.761 383.924 125.151 383.325C124.542 382.725 123.78 382.305 122.948 382.11C118.479 381.056 109.959 378.659 108.166 375.324L97.9936 378.155Z" fill="#DB8B8B"/>
<path opacity="0.1" d="M97.9936 378.155L96.5969 382.353L101.155 386.918L116.235 390.43L127.106 389.376L126.403 385.51C126.194 384.68 125.761 383.924 125.151 383.325C124.542 382.725 123.78 382.305 122.948 382.11C118.479 381.056 109.959 378.659 108.166 375.324L97.9936 378.155Z" fill="black"/>
<path d="M123.595 388.322L121.491 385.524L123.595 382.259C123.595 382.259 129.904 384.81 132.711 384.461C135.518 384.111 136.901 389.026 131.659 390.43C126.416 391.834 96.5921 390.43 96.5921 390.43C96.5921 390.43 91.3312 387.972 96.5921 381.299L101.15 384.81C101.15 384.81 108.864 389.008 112.724 388.322H123.595Z" fill="#000029"/>
<path d="M133.06 394.296L122.189 395.35L107.109 391.834L102.538 387.268L102.91 386.153L103.431 384.586L103.944 383.052L114.112 380.254C114.628 381.095 115.334 381.803 116.174 382.32C119.475 384.582 125.411 386.219 128.893 387.035C129.038 387.072 129.187 387.114 129.326 387.165C130.063 387.411 130.727 387.839 131.255 388.41C131.783 388.98 132.159 389.675 132.348 390.43L133.06 394.296Z" fill="#DB8B8B"/>
<path opacity="0.1" d="M133.06 394.296L122.189 395.35L107.109 391.834L102.538 387.268L102.91 386.154L107.1 389.376C107.1 389.376 114.819 393.573 118.674 392.888H129.541L127.436 390.09L129.326 387.166C130.063 387.411 130.727 387.839 131.255 388.41C131.783 388.98 132.159 389.675 132.348 390.43L133.06 394.296Z" fill="black"/>
<path d="M129.541 393.242L127.436 390.444L129.541 387.179C129.541 387.179 135.854 389.731 138.656 389.381C141.459 389.031 142.847 393.946 137.609 395.355C132.371 396.763 102.538 395.355 102.538 395.355C102.538 395.355 97.2767 392.892 102.538 386.219L107.096 389.731C107.096 389.731 114.815 393.928 118.67 393.247L129.541 393.242Z" fill="#000029"/>
<path d="M120.787 189.5C120.787 189.5 103.957 191.253 106.411 184.23C107.098 182.238 107.276 180.105 106.927 178.027C106.492 175.45 105.476 173.007 103.957 170.882L119.735 173.34C118.79 174.923 118.07 176.631 117.598 178.414C115.717 185.871 120.787 189.5 120.787 189.5Z" fill="#DB8B8B"/>
<path d="M92.0342 269.589C92.0342 269.589 92.3834 284.695 95.8891 292.073L96.5922 313.498C96.5922 313.498 95.54 333.174 93.4356 337.036C91.3312 340.897 97.9935 373.571 97.9935 373.571V379.191C97.9935 379.191 109.214 383.388 112.37 378.486L109.214 336.686L110.61 278.725L92.0342 269.589Z" fill="#000029"/>
<path opacity="0.1" d="M92.0294 269.589C92.0294 269.589 92.3785 284.695 95.8843 292.073L96.5873 313.498C96.5873 313.498 95.5351 333.174 93.4307 337.036C91.3264 340.897 97.9886 373.571 97.9886 373.571V379.191C97.9886 379.191 109.209 383.388 112.365 378.486L109.209 336.686L110.606 278.725L92.0294 269.589Z" fill="#000029"/>
<path d="M85.0179 221.115L82.9135 226.735L81.163 238.678C80.926 240.342 81.0887 242.039 81.6377 243.627C82.1867 245.215 83.1061 246.649 84.3195 247.81C88.5097 252.007 94.1384 260.807 94.1384 260.807L100.801 240.786C100.801 240.786 94.1384 239.732 95.2139 235.166C96.2893 230.601 95.9122 222.169 95.9122 222.169L85.0179 221.115Z" fill="#8090FF"/>
<path opacity="0.1" d="M116.188 382.311C111.686 389.404 104.689 385.384 103.445 384.586L103.958 383.052L114.126 380.254C114.643 381.092 115.349 381.796 116.188 382.311Z" fill="black"/>
<path d="M130.257 283.291C129.904 288.207 123.944 306.143 123.944 306.143L119.754 320.885C116.732 331.301 115.169 342.087 115.108 352.934C115.108 356.53 114.777 360.242 113.767 363.031C110.974 370.759 116.56 381.299 116.56 381.299C111.653 390.08 103.236 384.097 103.236 384.097V378.5C103.236 378.5 96.5922 347.925 98.3474 341.956C100.103 335.986 100.806 319.822 100.806 319.822V290.669C95.184 285.06 91.7677 277.609 91.1823 269.682C91.0985 268.531 91.0287 267.323 90.9868 266.068C90.7028 258.14 96.108 248.85 98.2217 245.548C98.7338 244.746 99.0504 244.298 99.0504 244.298L130.006 256.601L130.076 256.629V257.827V260.486L130.257 283.291Z" fill="#000029"/>
<path opacity="0.1" d="M119.735 173.34C118.79 174.923 118.07 176.631 117.598 178.414C115.884 179.069 114.057 179.372 112.224 179.305C110.391 179.239 108.59 178.804 106.927 178.027C106.492 175.45 105.476 173.007 103.957 170.882L119.735 173.34Z" fill="black"/>
<path d="M112.724 178.61C120.278 178.61 126.402 172.475 126.402 164.908C126.402 157.341 120.278 151.206 112.724 151.206C105.17 151.206 99.0457 157.341 99.0457 164.908C99.0457 172.475 105.17 178.61 112.724 178.61Z" fill="#DB8B8B"/>
<path opacity="0.1" d="M130.257 260.458L130.104 260.486C115.401 263.512 96.9506 248.164 96.9506 248.164C97.4467 247.329 97.8734 246.454 98.2262 245.548C98.7383 244.746 99.0549 244.298 99.0549 244.298L130.006 256.601L130.085 257.827L130.257 260.458Z" fill="black"/>
<path d="M126.398 189.15C126.398 189.15 106.76 177.206 100.447 182.122L91.6805 193.361C91.6805 193.361 86.0704 195.119 87.1226 206.359L82.9325 226.735L95.5541 229.897C95.5541 229.897 102.919 236.92 96.9508 247.11C96.9508 247.11 115.536 262.566 130.267 259.404L129.205 242.908C129.205 242.908 126.049 233.772 131.659 225.345C137.269 216.917 132.008 208.835 126.752 205.673C126.747 205.659 124.294 192.307 126.398 189.15Z" fill="#8090FF"/>
<path d="M127.45 260.807C127.45 260.807 134.815 262.207 138.321 267.836C139.333 269.526 140.569 271.071 141.994 272.429C142.311 272.723 142.556 273.086 142.709 273.49C142.862 273.894 142.92 274.328 142.877 274.758C142.835 275.188 142.694 275.603 142.464 275.969C142.235 276.335 141.925 276.643 141.557 276.869C138.763 278.548 134.238 279.579 128.521 274.859C118.683 266.782 127.45 260.807 127.45 260.807Z" fill="#DB8B8B"/>
<path opacity="0.1" d="M116.579 195.805C116.579 195.805 109.567 195.101 107.812 213.368C106.057 231.636 103.254 235.847 103.254 235.847C103.254 235.847 101.499 245.333 105.708 250.953C109.917 256.573 117.98 268.559 117.98 268.559C117.98 268.559 126.751 271.021 128.502 262.235L117.631 241.864C117.631 241.864 115.88 234.835 120.085 229.92C124.289 225.004 127.45 192.307 116.579 195.805Z" fill="black"/>
<path d="M117.282 194.77C117.282 194.77 110.266 194.065 108.516 212.333C106.765 230.601 103.958 234.812 103.958 234.812C103.958 234.812 102.202 244.307 106.411 249.904C110.62 255.5 118.684 267.467 118.684 267.467C118.684 267.467 127.45 269.93 129.205 261.148L118.334 240.772C118.334 240.772 116.579 233.744 120.788 228.829C124.997 223.913 128.144 191.253 117.282 194.77Z" fill="#8090FF"/>
<path opacity="0.1" d="M123.069 207.931C123.069 207.931 123.767 218.82 120.611 224.794C117.454 230.769 117.454 238.492 120.611 242.708" fill="black"/>
<path opacity="0.1" d="M124.82 194.592C124.82 194.592 122.026 191.794 113.949 191.43C105.871 191.067 102.379 188.632 102.379 188.632" fill="black"/>
<path opacity="0.1" d="M105.331 147.205C103.199 147.466 100.764 148.198 99.9955 150.208C99.7115 150.945 99.7068 151.756 99.5066 152.54C98.7105 155.609 95.2653 157.036 93.1376 159.382C91.2753 161.452 90.4327 164.255 89.8228 166.983C88.0718 174.807 87.6484 182.869 88.5704 190.833C89.2548 196.658 90.6515 202.39 91.0472 208.243C91.443 214.096 90.7213 220.252 87.5275 225.168C86.1308 227.285 84.343 229.141 83.37 231.468C85.3813 233.101 88.156 233.334 90.7446 233.422C93.7615 233.525 96.7784 233.525 99.7952 233.422C101.378 233.366 103.031 233.264 104.395 232.462C105.405 231.815 106.236 230.923 106.811 229.869C108.534 226.935 108.972 223.409 108.897 220.005C108.823 216.6 108.287 213.219 108.222 209.815C108.189 207.949 108.334 205.99 109.4 204.47C110.168 203.374 111.337 202.637 112.338 201.747C116.095 198.417 117.38 193.072 117.505 188.049C117.631 183.026 116.807 177.994 117.231 172.99C117.394 171.027 118.125 168.676 120.052 168.294C120.657 168.173 121.305 168.294 121.882 168.061C123.428 167.468 123.279 165.286 123.716 163.691C124.214 161.895 125.741 160.51 126.17 158.701C127.18 154.452 121.779 149.373 118.255 147.9C114.6 146.37 109.111 146.738 105.331 147.205Z" fill="black"/>
<path d="M104.963 146.505C102.831 146.766 100.396 147.498 99.6276 149.504C99.4295 150.272 99.2741 151.05 99.162 151.836C98.3659 154.904 94.9161 156.331 92.7884 158.682C90.9261 160.748 90.0835 163.551 89.4736 166.284C87.7306 174.113 87.3151 182.18 88.2445 190.148C88.9289 195.973 90.3256 201.709 90.7166 207.557C91.1077 213.406 90.3954 219.566 87.2016 224.482C85.8049 226.599 84.0171 228.455 83.0441 230.783C85.0553 232.42 87.8301 232.648 90.4187 232.737C93.4356 232.839 96.4524 232.839 99.4693 232.737C101.052 232.681 102.705 232.583 104.069 231.776C105.08 231.131 105.91 230.239 106.481 229.183C108.208 226.249 108.641 222.724 108.571 219.319C108.501 215.915 107.957 212.534 107.896 209.129C107.864 207.264 108.008 205.305 109.069 203.789C109.842 202.689 111.011 201.952 112.012 201.066C115.764 197.731 117.054 192.386 117.18 187.364C117.305 182.341 116.477 177.309 116.9 172.305C117.068 170.346 117.799 167.991 119.722 167.613C120.331 167.492 120.979 167.613 121.556 167.375C123.102 166.783 122.953 164.605 123.39 163.005C123.884 161.21 125.411 159.829 125.844 158.02C126.854 153.766 121.453 148.692 117.929 147.214C114.246 145.675 108.762 146.034 104.963 146.505Z" fill="#000029"/>
<defs>
<linearGradient id="paint0_linear" x1="111.97" y1="397.981" x2="111.97" y2="144.812" gradientUnits="userSpaceOnUse">
<stop stop-color="#808080" stop-opacity="0.25"/>
<stop offset="0.54" stop-color="#808080" stop-opacity="0.12"/>
<stop offset="1" stop-color="#808080" stop-opacity="0.1"/>
</linearGradient>
</defs>
</svg>
