<svg width="228" height="162" viewBox="0 0 228 162" fill="none" xmlns="http://www.w3.org/2000/svg">
<g clip-path="url(#clip0)">
<path d="M207.658 154.521C207.658 157.395 198.769 160.018 184.163 162H47.1208C32.5166 160.018 23.6282 157.395 23.6282 154.521C23.6282 152.332 28.7847 150.288 37.7002 148.561L37.9518 148.513C40.4681 148.031 43.2806 147.574 46.3543 147.146L46.5885 147.113C49.0274 146.776 51.6218 146.458 54.3717 146.159L54.631 146.132C55.6918 146.016 56.7744 145.903 57.879 145.795L58.3049 145.754C66.3474 144.98 75.4893 144.353 85.4036 143.933H85.4152C86.8037 143.875 88.207 143.821 89.6252 143.77C91.2021 143.712 92.7983 143.661 94.4139 143.615C95.6469 143.579 96.8954 143.548 98.1477 143.519H98.1768C103.827 143.385 109.665 143.315 115.634 143.315C130.395 143.315 144.347 143.739 156.71 144.492H156.745C158.646 144.608 160.512 144.73 162.331 144.862L163.88 144.976C165.933 145.131 167.933 145.295 169.88 145.468C192.784 147.506 207.658 150.802 207.658 154.521Z" fill="#003A9E"/>
<path opacity="0.03" d="M61.3419 20.3861V26.2569C61.3422 26.3612 61.3219 26.4646 61.2821 26.5612C61.2423 26.6577 61.1839 26.7454 61.1102 26.8193C61.0365 26.8932 60.9489 26.9518 60.8525 26.9918C60.7561 27.0318 60.6527 27.0524 60.5483 27.0524H49.8018C52.1021 24.4011 54.5789 21.9081 57.2152 19.5906H60.5503C60.6545 19.5908 60.7576 19.6116 60.8538 19.6517C60.95 19.6918 61.0374 19.7505 61.1109 19.8244C61.1844 19.8983 61.2426 19.9859 61.2823 20.0823C61.3219 20.1786 61.3422 20.2819 61.3419 20.3861V20.3861Z" stroke="white" stroke-width="0.371873" stroke-miterlimit="10"/>
<path d="M192.848 20.3744V108.565C192.848 109.181 192.603 109.772 192.168 110.208C191.732 110.643 191.141 110.888 190.525 110.888H33.0642C32.4482 110.888 31.8574 110.643 31.4218 110.208C30.9862 109.772 30.7415 109.181 30.7415 108.565V46.9331C31.5157 46.7995 32.29 46.7008 33.0642 46.6369C33.6797 46.5866 34.3004 46.5576 34.9263 46.5498C35.0405 46.5498 35.1508 46.5498 35.265 46.5498C35.9541 46.5498 36.6393 46.5827 37.3187 46.635C37.3903 46.4685 37.4677 46.3021 37.5394 46.1356C37.8103 45.5394 38.091 44.9471 38.3736 44.3626C38.3742 44.3574 38.3742 44.3523 38.3736 44.3471C38.422 44.2465 38.4704 44.1535 38.5207 44.0471C38.7491 43.5709 38.9872 43.0986 39.2311 42.6302C39.3434 42.4134 39.4537 42.1986 39.5679 41.9837C39.5931 41.9334 39.6182 41.885 39.6473 41.8347C39.7634 41.6121 39.8815 41.3914 40.0015 41.1707C40.5989 40.07 41.2203 38.9861 41.8655 37.9189C41.9216 37.8279 41.9739 37.737 42.03 37.6479C42.1307 37.4834 42.2236 37.3189 42.3358 37.1563C42.603 36.7227 42.8778 36.291 43.1546 35.8633C43.3482 35.5613 43.5417 35.2594 43.7508 34.9613C44.254 34.2064 44.7702 33.4612 45.2993 32.7256C45.8283 31.9901 46.3781 31.2546 46.9484 30.519C47.0258 30.4184 47.1033 30.3255 47.1846 30.219L48.0111 29.1796L48.1253 29.0383L48.4253 28.6724C48.8686 28.1324 49.3234 27.5982 49.7802 27.0697C52.0806 24.4184 54.5574 21.9255 57.1937 19.6079C57.2963 19.5131 57.4008 19.4144 57.5034 19.3331C57.995 18.9053 58.4944 18.4833 58.9938 18.0691H159.298C159.751 18.442 160.197 18.8208 160.637 19.2053C161.171 18.8091 161.715 18.4304 162.267 18.0691H190.527C191.14 18.0696 191.727 18.3121 192.162 18.7439C192.597 19.1757 192.843 19.7617 192.848 20.3744Z" fill="white"/>
<path d="M183.563 34.9497V37.1447H42.3496C42.6167 36.7111 42.8916 36.2795 43.1703 35.8517C43.3639 35.5498 43.5574 35.2478 43.7645 34.9497H183.563Z" fill="#000029"/>
<path d="M153.274 107.816V24.2263H151.079V107.816H153.274Z" fill="#000029"/>
<path d="M112.891 107.816V24.2263H110.696V107.816H112.891Z" fill="#000029"/>
<path d="M72.5085 107.816V24.2263H70.3135V107.816H72.5085Z" fill="#000029"/>
<path d="M47.3067 41.823V50.4675H38.3796V44.3509C38.3796 44.3509 38.3796 44.3412 38.3796 44.3354C38.428 44.2348 38.4764 44.1419 38.5267 44.0354C38.7571 43.5593 38.9932 43.087 39.2391 42.6185C39.3494 42.4017 39.4597 42.1869 39.5739 41.972C39.5991 41.9217 39.6262 41.8733 39.6533 41.823H47.3067Z" fill="url(#paint0_linear)"/>
<path d="M47.1537 41.9721V50.3185H38.5344V44.0297C38.7648 43.5535 39.0009 43.0812 39.2467 42.6128C39.3571 42.396 39.4674 42.1812 39.5816 41.9663L47.1537 41.9721Z" fill="#F1EDED"/>
<path d="M83.4659 39.1885H74.5369V47.833H83.4659V39.1885Z" fill="url(#paint1_linear)"/>
<path d="M83.3132 39.3376H74.6919V47.6841H83.3132V39.3376Z" fill="#F1EDED"/>
<path d="M123.795 55.9724H114.866V64.6169H123.795V55.9724Z" fill="url(#paint2_linear)"/>
<path d="M123.642 56.1216H115.021V64.468H123.642V56.1216Z" fill="#F1EDED"/>
<path d="M164.946 61.698H156.017V70.3425H164.946V61.698Z" fill="url(#paint3_linear)"/>
<path d="M164.791 61.8469H156.17V70.1933H164.791V61.8469Z" fill="#000029"/>
<path d="M175.971 67.2939H167.042V75.9384H175.971V67.2939Z" fill="url(#paint4_linear)"/>
<path d="M175.819 67.4429H167.197V75.7893H175.819V67.4429Z" fill="#000029"/>
<path d="M189.799 52.3411H180.87V60.9856H189.799V52.3411Z" fill="url(#paint5_linear)"/>
<path d="M189.644 52.4902H181.023V60.8366H189.644V52.4902Z" fill="#F1EDED"/>
<path d="M187.001 64.47H178.072V73.1145H187.001V64.47Z" fill="url(#paint6_linear)"/>
<path d="M186.846 64.6189H178.224V72.9653H186.846V64.6189Z" fill="#F1EDED"/>
<path d="M95.6468 39.1885H86.7178V47.833H95.6468V39.1885Z" fill="url(#paint7_linear)"/>
<path d="M95.4938 39.3376H86.8726V47.6841H95.4938V39.3376Z" fill="#000029"/>
<path d="M53.9263 60.1455H44.9973V68.79H53.9263V60.1455Z" fill="url(#paint8_linear)"/>
<path d="M53.7716 60.2947H45.1504V68.6411H53.7716V60.2947Z" fill="#F9CE43"/>
<path d="M89.9097 51.6501H80.9807V60.2946H89.9097V51.6501Z" fill="url(#paint9_linear)"/>
<path d="M89.7568 51.7993H81.1355V60.1457H89.7568V51.7993Z" fill="#F9CE43"/>
<path d="M136.45 46.4839H127.521V55.1284H136.45V46.4839Z" fill="url(#paint10_linear)"/>
<path d="M136.295 46.6331H127.674V54.9795H136.295V46.6331Z" fill="#F9CE43"/>
<path d="M183.561 40.4216H174.632V49.0661H183.561V40.4216Z" fill="url(#paint11_linear)"/>
<path d="M183.408 40.5706H174.787V48.917H183.408V40.5706Z" fill="#F9CE43"/>
<path d="M148.23 39.1885H139.301V47.833H148.23V39.1885Z" fill="url(#paint12_linear)"/>
<path d="M148.075 39.3376H139.454V47.6841H148.075V39.3376Z" fill="#F9CE43"/>
<path d="M147.723 55.9724H138.794V64.6169H147.723V55.9724Z" fill="url(#paint13_linear)"/>
<path d="M147.57 56.1216H138.949V64.468H147.57V56.1216Z" fill="#F9CE43"/>
<path d="M107.636 43.3638H98.707V52.0083H107.636V43.3638Z" fill="url(#paint14_linear)"/>
<path d="M107.483 43.5107H98.8618V51.8571H107.483V43.5107Z" fill="#F9CE43"/>
<path d="M60.1939 46.1453H51.2649V54.7898H60.1939V46.1453Z" fill="url(#paint15_linear)"/>
<path d="M60.0412 46.2942H51.4199V54.6406H60.0412V46.2942Z" fill="#E23553"/>
<path d="M64.6595 55.9724H55.7305V64.6169H64.6595V55.9724Z" fill="url(#paint16_linear)"/>
<path d="M64.5046 56.1216H55.8833V64.468H64.5046V56.1216Z" fill="#E23553"/>
<path d="M101.696 57.3757H92.7666V66.0202H101.696V57.3757Z" fill="url(#paint17_linear)"/>
<path d="M101.541 57.5247H92.9197V65.8711H101.541V57.5247Z" fill="#E23553"/>
<path d="M167.042 40.4216H158.113V49.0661H167.042V40.4216Z" fill="url(#paint18_linear)"/>
<path d="M166.889 40.5706H158.268V48.917H166.889V40.5706Z" fill="#E23553"/>
<path d="M174.943 52.3411H166.014V60.9856H174.943V52.3411Z" fill="url(#paint19_linear)"/>
<path d="M174.791 52.4902H166.169V60.8366H174.791V52.4902Z" fill="#E23553"/>
<path d="M124.575 39.1885H115.646V47.833H124.575V39.1885Z" fill="url(#paint20_linear)"/>
<path d="M124.422 39.3376H115.801V47.6841H124.422V39.3376Z" fill="#E23553"/>
<path d="M135.439 64.47H126.51V73.1145H135.439V64.47Z" fill="url(#paint21_linear)"/>
<path d="M135.285 64.6189H126.663V72.9653H135.285V64.6189Z" fill="#E23553"/>
<path d="M160.211 59.2049C160.186 60.1863 159.853 61.1405 159.801 62.12C162.705 62.2632 165.548 60.8599 168.411 61.2896C167.611 60.7728 167.184 59.8379 166.932 58.9184C166.61 57.7326 166.514 56.4969 166.649 55.2756C166.657 55.2104 166.668 55.1457 166.684 55.082C166.791 54.602 167.071 53.9207 166.992 53.5432C166.895 53.0438 166.423 53.1425 165.999 53.1716C164.705 53.2706 163.416 53.4367 162.139 53.669C161.806 53.7271 158.564 54.5362 158.516 54.453C159.05 55.3763 159.594 56.3363 159.919 57.3428C160.121 57.9427 160.219 58.5722 160.211 59.2049Z" fill="#EE8E9E"/>
<path d="M131.605 56.1697C131.853 56.5092 132.152 56.8094 132.489 57.0601C132.708 57.2401 132.933 57.424 133.169 57.5885C133.589 57.9102 134.089 58.111 134.615 58.1692C135.304 58.2157 136.767 57.8111 137.195 57.2208C137.375 56.9243 137.461 56.58 137.441 56.2336C137.434 55.7635 137.354 55.2974 137.205 54.8516C136.936 54.1269 136.559 53.447 136.088 52.8346C135.59 52.1417 135.037 51.4604 134.295 51.0403C134.048 50.9083 133.794 50.7913 133.533 50.69L132.178 50.1364C132.101 50.0998 132.017 50.0782 131.932 50.0725C131.57 50.0725 131.504 50.628 131.709 50.9261C132.12 51.5281 133.043 51.7004 133.302 52.3778C133.083 52.383 132.871 52.4578 132.697 52.5914C132.523 52.725 132.396 52.9106 132.335 53.1211C132.324 53.233 132.279 53.3387 132.205 53.4231C132.087 53.5179 131.901 53.4637 131.766 53.5353C131.527 53.6631 131.632 54.0192 131.607 54.2902C131.584 54.5302 131.433 54.7374 131.359 54.9677C131.309 55.1738 131.305 55.3884 131.348 55.5962C131.39 55.804 131.478 55.9998 131.605 56.1697Z" fill="#EE8E9E"/>
<path d="M171.479 154.654C171.256 154.432 170.898 154.471 170.581 154.519C168.911 154.783 167.224 154.919 165.535 154.927C165.324 153.894 165.937 152.889 166.135 151.854C166.161 151.587 166.226 151.326 166.328 151.079C166.564 150.623 167.102 150.413 167.606 150.305C168.515 150.112 169.928 149.775 170.445 150.692C171.063 151.797 171.258 153.427 171.479 154.654Z" fill="#65617D"/>
<path d="M152.992 150.752C153.677 151.22 154.528 151.366 155.353 151.472C156.178 151.579 157.025 151.656 157.772 152.024C158.417 152.341 158.959 152.864 159.642 153.092C160.262 153.299 160.939 153.243 161.578 153.123C162.352 152.98 163.161 152.699 163.575 152.037C163.945 151.457 163.905 150.704 163.854 150.011C163.794 149.236 163.738 148.443 163.68 147.659C163.682 147.46 163.632 147.264 163.535 147.09C162.979 146.283 161.632 147.429 160.912 147.427C159.768 147.427 158.541 146.807 157.718 146.049C157.647 145.971 157.563 145.906 157.471 145.855C157.143 145.708 156.818 145.979 156.528 146.215C156.497 146.242 156.464 146.267 156.431 146.292C155.763 146.823 154.869 146.929 154.044 147.144C153.22 147.359 152.335 147.791 152.08 148.604C152.063 148.655 152.05 148.707 152.041 148.76C151.894 149.521 152.351 150.313 152.992 150.752Z" fill="#000029"/>
<path opacity="0.05" d="M152.992 150.752C153.677 151.22 154.528 151.366 155.353 151.472C156.178 151.579 157.025 151.656 157.772 152.024C158.417 152.341 158.959 152.864 159.642 153.092C160.262 153.299 160.939 153.243 161.578 153.123C162.352 152.98 163.161 152.699 163.575 152.037C163.945 151.457 163.905 150.704 163.854 150.011C163.794 149.236 163.738 148.443 163.68 147.659C163.682 147.46 163.632 147.264 163.535 147.09C162.979 146.283 161.632 147.429 160.912 147.427C159.768 147.427 158.541 146.807 157.718 146.049C157.647 145.971 157.563 145.906 157.471 145.855C157.143 145.708 156.818 145.979 156.528 146.215C156.497 146.242 156.464 146.267 156.431 146.292C155.763 146.823 154.869 146.929 154.044 147.144C153.22 147.359 152.335 147.791 152.08 148.604C152.063 148.655 152.05 148.707 152.041 148.76C151.894 149.521 152.351 150.313 152.992 150.752Z" fill="#000029"/>
<path d="M152.992 151.015C153.677 151.484 154.528 151.629 155.353 151.735C156.178 151.842 157.025 151.919 157.773 152.287C158.417 152.606 158.959 153.127 159.642 153.355C160.262 153.563 160.939 153.506 161.578 153.386C162.395 153.212 163.112 152.726 163.576 152.031C163.945 151.451 163.905 150.698 163.854 150.005C163.794 149.231 163.738 148.437 163.68 147.653C163.682 147.454 163.632 147.258 163.535 147.084C162.979 146.277 161.632 147.423 160.912 147.421C159.768 147.421 158.541 146.801 157.718 146.043C157.647 145.965 157.563 145.9 157.471 145.849C157.143 145.702 156.818 145.973 156.528 146.209C156.719 146.795 156.989 147.353 157.331 147.866C157.912 148.716 158.826 149.366 159.848 149.442C160.359 149.478 160.883 149.378 161.377 149.509C161.87 149.641 162.331 150.146 162.151 150.626C161.971 151.106 161.377 151.207 160.877 151.224C160.179 151.261 159.462 151.296 158.8 151.079C158.396 150.944 158.026 150.721 157.639 150.557C155.965 149.862 153.849 150.251 152.465 149.078C152.334 148.957 152.193 148.849 152.043 148.754C151.681 149.521 152.351 150.576 152.992 151.015Z" fill="#E8EAF2"/>
<path opacity="0.05" d="M152.992 151.015C153.677 151.484 154.528 151.629 155.353 151.735C156.178 151.842 157.025 151.919 157.773 152.287C158.417 152.606 158.959 153.127 159.642 153.355C160.262 153.563 160.939 153.506 161.578 153.386C162.395 153.212 163.112 152.726 163.576 152.031C163.945 151.451 163.905 150.698 163.854 150.005C163.794 149.231 163.738 148.437 163.68 147.653C163.682 147.454 163.632 147.258 163.535 147.084C162.979 146.277 161.632 147.423 160.912 147.421C159.768 147.421 158.541 146.801 157.718 146.043C157.647 145.965 157.563 145.9 157.471 145.849C157.143 145.702 156.818 145.973 156.528 146.209C156.719 146.795 156.989 147.353 157.331 147.866C157.912 148.716 158.826 149.366 159.848 149.442C160.359 149.478 160.883 149.378 161.377 149.509C161.87 149.641 162.331 150.146 162.151 150.626C161.971 151.106 161.377 151.207 160.877 151.224C160.179 151.261 159.462 151.296 158.8 151.079C158.396 150.944 158.026 150.721 157.639 150.557C155.965 149.862 153.849 150.251 152.465 149.078C152.334 148.957 152.193 148.849 152.043 148.754C151.681 149.521 152.351 150.576 152.992 151.015Z" fill="#000029"/>
<path d="M171.167 99.7619C171.701 102.382 171.194 105.108 169.754 107.361C169.367 107.969 168.902 108.54 168.608 109.2C168.415 109.672 168.265 110.16 168.159 110.659L166.889 115.922C166.545 117.343 166.2 118.791 166.309 120.249C166.38 121.265 166.636 122.407 166.011 123.21C165.856 123.363 165.726 123.538 165.623 123.729C165.563 123.953 165.563 124.19 165.623 124.414C166.266 128.235 166.744 132.228 165.583 135.925C164.53 139.276 164.468 142.988 163.574 146.378C163.463 146.8 163.335 147.243 163.016 147.539C162.776 147.737 162.49 147.87 162.184 147.926C160.864 148.242 159.474 147.872 158.239 147.303C157.374 146.902 156.443 146.199 156.516 145.249C156.553 144.796 156.816 144.399 156.996 143.983C157.347 143.166 157.383 142.255 157.471 141.37C157.709 139.148 158.394 137.005 158.911 134.832C159.427 132.658 159.78 130.389 159.342 128.198C158.451 123.668 157.021 119.261 155.084 115.071C155 114.85 154.868 114.652 154.697 114.49C154.523 114.347 154.292 114.281 154.143 114.103C153.994 113.925 153.95 113.654 153.892 113.416C153.698 112.723 153.127 112.212 152.744 111.602C151.776 110.065 152.082 108.095 152.119 106.279C152.153 104.512 151.9 102.729 152.188 100.987C152.477 99.2451 153.475 97.4643 155.156 96.9224C155.988 96.6533 156.888 96.7133 157.759 96.8004C162.354 97.2592 166.833 98.105 171.167 99.7619Z" fill="#000029"/>
<path opacity="0.05" d="M171.167 99.7619C171.701 102.382 171.194 105.108 169.754 107.361C169.367 107.969 168.902 108.54 168.608 109.2C168.415 109.672 168.265 110.16 168.159 110.659L166.889 115.922C166.545 117.343 166.2 118.791 166.309 120.249C166.38 121.265 166.636 122.407 166.011 123.21C165.856 123.363 165.726 123.538 165.623 123.729C165.563 123.953 165.563 124.19 165.623 124.414C166.266 128.235 166.744 132.228 165.583 135.925C164.53 139.276 164.468 142.988 163.574 146.378C163.463 146.8 163.335 147.243 163.016 147.539C162.776 147.737 162.49 147.87 162.184 147.926C160.864 148.242 159.474 147.872 158.239 147.303C157.374 146.902 156.443 146.199 156.516 145.249C156.553 144.796 156.816 144.399 156.996 143.983C157.347 143.166 157.383 142.255 157.471 141.37C157.709 139.148 158.394 137.005 158.911 134.832C159.427 132.658 159.78 130.389 159.342 128.198C158.451 123.668 157.021 119.261 155.084 115.071C155 114.85 154.868 114.652 154.697 114.49C154.523 114.347 154.292 114.281 154.143 114.103C153.994 113.925 153.95 113.654 153.892 113.416C153.698 112.723 153.127 112.212 152.744 111.602C151.776 110.065 152.082 108.095 152.119 106.279C152.153 104.512 151.9 102.729 152.188 100.987C152.477 99.2451 153.475 97.4643 155.156 96.9224C155.988 96.6533 156.888 96.7133 157.759 96.8004C162.354 97.2592 166.833 98.105 171.167 99.7619Z" fill="#000029"/>
<path d="M152.376 110.84C152.391 111.525 152.468 112.208 152.608 112.88C153.421 117.441 154.288 121.993 155.208 126.534C155.289 126.921 155.369 127.321 155.475 127.709C155.818 128.972 156.418 130.151 157.236 131.173C161.069 135.95 161.4 142.89 163.481 148.652C163.62 149.039 163.761 149.426 163.91 149.813C164.285 150.79 164.714 151.746 165.194 152.676C165.249 152.812 165.34 152.93 165.457 153.019C165.586 153.084 165.731 153.112 165.875 153.1C167.749 153.113 169.6 152.693 171.285 151.875C171.528 151.787 171.733 151.619 171.866 151.399C171.929 151.223 171.95 151.034 171.926 150.849C171.868 149.707 171.798 148.526 171.254 147.52C170.892 146.919 170.443 146.375 169.923 145.905C169.76 142.321 169.406 138.728 168.618 135.226C168.213 133.436 167.712 131.626 166.682 130.113C165.908 128.996 164.816 127.894 164.952 126.545C165.012 125.965 165.26 125.217 164.778 124.869C164.567 124.716 164.255 124.697 164.114 124.482C164.057 124.38 164.025 124.266 164.021 124.149C163.921 123.224 163.979 122.289 164.191 121.383C164.33 120.783 164.54 120.194 164.603 119.581C164.667 118.967 164.559 118.299 164.15 117.839C164.125 116.608 164.15 115.322 164.133 114.103C164.121 113.4 164.108 112.688 164.305 112.016C164.4 111.693 164.541 111.385 164.613 111.049C164.871 109.868 164.226 108.451 165 107.514C165.32 107.127 165.811 106.933 166.227 106.651C167.062 106.093 167.608 105.184 167.911 104.229C168.215 103.275 168.299 102.265 168.389 101.264C168.412 101.051 168.412 100.836 168.389 100.623C168.377 100.513 168.348 100.406 168.304 100.304C168.066 99.7697 167.427 99.5626 166.858 99.4252C163.245 98.5583 159.541 98.1256 155.825 98.1361C154.451 97.1992 153.677 97.5341 153.094 98.5232C152.774 99.1288 152.514 99.7649 152.32 100.422C152.053 101.225 152.037 105.728 151.778 106.535C151.416 107.592 152.39 109.736 152.376 110.84Z" fill="#000029"/>
<path d="M177.228 69.8779C177.33 70.5863 176.989 71.2832 176.951 71.9974C176.918 72.6207 177.117 73.2304 177.231 73.8459C177.675 76.2461 176.823 78.6753 175.954 80.9555C175.79 81.3233 175.688 81.7157 175.652 82.1168C175.629 82.8621 176.057 83.5434 176.175 84.2789C176.42 85.8274 175.282 87.2772 175.257 88.8431C175.257 89.5632 175.474 90.2968 175.294 90.9936C175.174 91.4601 174.884 91.8588 174.676 92.2943C174.311 93.0686 174.214 93.9377 173.863 94.7139C173.234 96.1191 171.879 97.0366 170.592 97.8786C169.859 97.6347 169.065 97.3444 168.657 96.6843C168.48 96.3594 168.367 96.0042 168.322 95.6372C168.043 94.0364 168.053 92.4027 168.062 90.7788C168.042 89.3867 168.119 87.9948 168.291 86.6133C168.55 84.848 169.123 83.1466 169.533 81.4103C170.052 79.2212 170.308 76.9584 171.125 74.8583C171.833 73.0117 172.938 71.3548 174.102 69.7695C174.545 69.1637 174.895 68.2984 175.756 68.4378C176.119 68.4992 176.455 68.67 176.718 68.9274C176.981 69.1848 177.158 69.5165 177.228 69.8779Z" fill="#004DD1"/>
<path opacity="0.05" d="M177.228 69.8779C177.33 70.5863 176.989 71.2832 176.951 71.9974C176.918 72.6207 177.117 73.2304 177.231 73.8459C177.675 76.2461 176.823 78.6753 175.954 80.9555C175.79 81.3233 175.688 81.7157 175.652 82.1168C175.629 82.8621 176.057 83.5434 176.175 84.2789C176.42 85.8274 175.282 87.2772 175.257 88.8431C175.257 89.5632 175.474 90.2968 175.294 90.9936C175.174 91.4601 174.884 91.8588 174.676 92.2943C174.311 93.0686 174.214 93.9377 173.863 94.7139C173.234 96.1191 171.879 97.0366 170.592 97.8786C169.859 97.6347 169.065 97.3444 168.657 96.6843C168.48 96.3594 168.367 96.0042 168.322 95.6372C168.043 94.0364 168.053 92.4027 168.062 90.7788C168.042 89.3867 168.119 87.9948 168.291 86.6133C168.55 84.848 169.123 83.1466 169.533 81.4103C170.052 79.2212 170.308 76.9584 171.125 74.8583C171.833 73.0117 172.938 71.3548 174.102 69.7695C174.545 69.1637 174.895 68.2984 175.756 68.4378C176.119 68.4992 176.455 68.67 176.718 68.9274C176.981 69.1848 177.158 69.5165 177.228 69.8779Z" fill="#000029"/>
<path opacity="0.1" d="M158.51 54.4452C159.044 55.3684 159.588 56.3285 159.913 57.335C160.435 57.4635 160.969 57.5285 161.506 57.5286C163.591 57.5286 165.068 56.3421 166.293 54.8439C166.4 54.3619 167.067 53.9148 166.986 53.5354C166.889 53.036 166.417 53.1347 165.993 53.1638C164.699 53.2628 163.411 53.4288 162.134 53.6612C161.801 53.7193 158.564 54.5284 158.51 54.4452Z" fill="#000029"/>
<path d="M161.512 57.3467C165.201 57.3467 168.192 54.3561 168.192 50.6669C168.192 46.9777 165.201 43.9871 161.512 43.9871C157.823 43.9871 154.832 46.9777 154.832 50.6669C154.832 54.3561 157.823 57.3467 161.512 57.3467Z" fill="#EE8E9E"/>
<path opacity="0.1" d="M153.071 98.5289C154.232 98.4612 155.394 98.5076 156.555 98.5541C157.281 98.5612 158.004 98.6358 158.715 98.7767C159.592 98.9702 160.413 99.3748 161.278 99.6245C162.664 100.029 164.127 100.046 165.562 100.188C166.504 100.28 167.441 100.427 168.366 100.627C168.353 100.517 168.325 100.41 168.281 100.308C168.043 99.7735 167.404 99.5664 166.835 99.429C163.222 98.5621 159.518 98.1293 155.802 98.1398C154.428 97.203 153.654 97.5379 153.071 98.5289Z" fill="#000029"/>
<path d="M157.624 61.6032C157.916 61.94 158.307 62.3117 158.739 62.2033C158.894 62.1492 159.041 62.0708 159.172 61.971C159.946 61.4736 160.887 61.3574 161.793 61.2219C163.619 60.9467 165.423 60.5411 167.191 60.0083C167.705 59.8211 168.243 59.7115 168.788 59.6831C169.921 59.6831 170.917 60.4419 171.634 61.3245C172.35 62.2072 172.845 63.2388 173.542 64.1312C174.038 64.768 174.628 65.3293 175.091 65.9894C176.252 67.6559 176.511 69.8316 176.209 71.8466C175.908 73.8615 175.102 75.7585 174.305 77.6341C173.848 78.7083 173.387 79.7884 172.756 80.7678C173.025 82.2989 172.884 84.0487 172.156 85.4133C171.918 85.8605 171.628 86.296 171.55 86.7973C171.514 87.1355 171.527 87.4774 171.591 87.8116L171.932 90.2292C172.034 90.9666 172.139 91.7022 172.272 92.4338C172.518 93.7733 172.853 95.227 172.232 96.4387C171.489 97.8884 172.269 99.7486 172.073 101.367C169.983 100.559 167.793 100.038 165.564 99.8182C164.127 99.6769 162.66 99.6595 161.28 99.2569C160.415 99.0053 159.596 98.6065 158.717 98.4052C158.005 98.2657 157.281 98.1919 156.555 98.1846C154.954 98.1207 153.342 98.0568 151.759 98.293C151.629 98.3123 151.474 98.322 151.397 98.2175C151.362 98.1591 151.345 98.0918 151.348 98.0239C151.324 97.4302 151.466 96.8416 151.759 96.3244C151.952 95.9683 152.241 95.6179 152.233 95.2095C152.218 95.0184 152.171 94.8311 152.094 94.6559L151.393 92.7823C150.799 91.2028 151.081 89.3659 150.773 87.7071C150.533 86.4096 150.379 85.0976 150.313 83.7797C150.255 82.6531 150.291 81.4318 150.971 80.5317C151.17 80.315 151.342 80.0752 151.484 79.8175C151.582 79.5441 151.623 79.2537 151.606 78.9638C151.621 76.7108 151.557 74.4584 151.412 72.2066C152.006 71.142 152.624 70.0522 153.216 68.9876C153.905 67.7488 154.606 66.4849 154.885 65.0951C155.078 64.1737 155.063 63.2272 155.194 62.2981C155.207 62.0616 155.29 61.8342 155.431 61.6439C155.657 61.3884 156.038 61.3516 156.381 61.3613C156.805 61.3782 157.224 61.4598 157.624 61.6032Z" fill="#004DD1"/>
<path opacity="0.1" d="M133.167 57.5886C133.587 57.9103 134.087 58.1111 134.613 58.1693C135.302 58.2158 136.765 57.8112 137.193 57.2209C137.373 56.9245 137.459 56.5801 137.439 56.2337C137.346 56.2034 137.25 56.1845 137.152 56.1776C136.403 56.1331 135.639 56.0885 134.911 56.2686C134.183 56.4486 133.479 56.8899 133.169 57.5751L133.167 57.5886Z" fill="#000029"/>
<path d="M155.394 72.0381C154.985 72.5433 154.563 73.0659 153.987 73.364C153.323 73.7086 152.541 73.7163 151.793 73.7008C148.715 73.6351 145.648 73.2983 142.628 72.6943C142.285 72.6352 141.947 72.5445 141.62 72.4233C141.257 72.2505 140.915 72.0375 140.6 71.7884C139.607 71.0742 138.598 70.3464 137.842 69.3824C136.943 68.2193 136.379 66.8335 136.208 65.3738C135.488 64.7118 135.107 63.7691 134.746 62.8575C134.569 62.4713 134.457 62.0587 134.414 61.6361C134.394 61.2044 134.681 60.7515 134.607 60.3257C134.469 59.5927 134.097 58.9241 133.548 58.4191C133.431 58.3365 133.342 58.2194 133.295 58.0842C133.281 57.9714 133.302 57.8569 133.357 57.7571C133.663 57.0719 134.367 56.6306 135.099 56.4505C135.83 56.2705 136.591 56.317 137.34 56.3615C137.611 56.3789 137.809 56.5047 138.074 56.5551L138.596 57.9313C138.667 58.1613 138.784 58.3746 138.939 58.5584C139.055 58.6637 139.179 58.7607 139.309 58.8488C139.573 59.0743 139.779 59.3612 139.907 59.6845C140.035 60.0077 140.082 60.3575 140.044 60.7031C140.516 60.8862 140.901 61.2423 141.12 61.6989C141.339 62.1556 141.376 62.6785 141.223 63.1614C141.616 63.2458 141.981 63.4297 142.282 63.6954C142.584 63.9611 142.812 64.2997 142.946 64.6789C142.983 64.8516 143.06 65.0133 143.17 65.1512C143.342 65.2847 143.555 65.3532 143.772 65.3447C144.353 65.3815 144.878 65.8461 145.414 65.5944C146.019 65.3105 146.695 65.2154 147.355 65.3215C147.491 65.354 147.632 65.3663 147.771 65.3583C147.89 65.3374 148.005 65.2975 148.112 65.2402C148.353 65.1002 148.614 64.9971 148.886 64.9344C149.023 64.906 149.165 64.9178 149.295 64.9683C149.425 65.0188 149.538 65.1058 149.62 65.2189C149.813 65.0137 149.92 64.7505 150.09 64.5318C150.166 64.4145 150.272 64.3204 150.398 64.2603C150.524 64.2001 150.664 64.1762 150.802 64.1911C150.624 64.0324 150.802 63.7169 151.037 63.6588C151.271 63.6007 151.511 63.6859 151.749 63.6859C152.366 63.6859 152.841 63.1207 153.441 62.9736C153.992 62.84 154.728 63.0007 155.01 62.5071C155.111 62.3329 155.13 62.0968 155.301 61.9903C155.416 61.9329 155.547 61.9172 155.672 61.9458C156.065 61.9983 156.446 62.114 156.801 62.2884C157.382 64.5511 157.076 66.901 156.634 69.1947C156.423 70.2844 156.091 71.1671 155.394 72.0381Z" fill="#004DD1"/>
<path opacity="0.1" d="M155.413 80.1464L158.289 85.9533C157.978 85.4171 157.322 85.2081 156.805 84.8655C156.147 84.3914 155.651 83.7255 155.386 82.9589C155.12 82.1943 154.935 81.4042 154.832 80.6013C154.774 80.2335 154.652 79.7167 154.832 79.3838C155.167 79.4515 155.276 79.8735 155.413 80.1464Z" fill="#000029"/>
<path opacity="0.1" d="M163.688 85.0648C164.336 85.7074 165.132 86.1797 165.846 86.7488C167.515 88.0766 168.703 89.9 169.865 91.6885C170.193 92.1588 170.468 92.6639 170.685 93.1944C170.55 93.3125 170.347 93.1944 170.213 93.0725L167.952 91.0865C167.675 90.8594 167.423 90.6038 167.199 90.3239C166.812 89.7974 166.634 89.1373 166.278 88.5818C165.922 88.0263 165.403 87.614 164.905 87.1824C164.408 86.7507 162.002 84.7222 162.583 83.9402C163.003 84.1492 163.349 84.7299 163.688 85.0648Z" fill="#000029"/>
<path d="M158.752 59.927C159.468 59.4798 160.312 59.2921 161.143 59.1392C161.641 59.0259 162.154 58.9894 162.664 59.0308C163.134 59.0888 163.585 59.2708 164.059 59.2959C164.723 59.3347 165.36 59.0637 165.995 58.8895C166.63 58.7153 167.379 58.6456 167.919 59.0346C168.034 59.1477 168.179 59.225 168.337 59.2572C168.501 59.2373 168.653 59.1622 168.769 59.0443C169.224 58.7193 169.775 58.5584 170.333 58.5879C170.891 58.6175 171.423 58.8357 171.841 59.2069C173.066 60.3547 172.929 62.5981 174.357 63.4653C174.754 63.7053 175.259 63.833 175.489 64.2395C175.544 64.3676 175.609 64.4912 175.683 64.6092C175.779 64.7149 175.896 64.7988 176.027 64.855C176.444 65.0409 176.841 65.2686 177.212 65.5345C177.397 65.6691 177.552 65.8396 177.669 66.0359C177.786 66.2321 177.863 66.45 177.893 66.6765C177.9 67.0112 177.828 67.3427 177.682 67.6443C176.98 69.3673 175.762 70.8305 174.195 71.8329C172.627 72.8353 170.788 73.3276 168.93 73.2421C168.602 73.2266 168.248 73.1821 168.012 72.9556C167.874 72.8003 167.765 72.6212 167.691 72.4272C167.017 71.0123 165.755 69.967 164.944 68.6218C164.464 67.8204 164.156 66.9242 163.657 66.1345C162.914 64.9344 161.762 64.0421 160.639 63.1923C160.004 62.7084 159.298 62.2013 158.498 62.2342C157.788 62.2652 157.269 62.3039 157.531 61.4309C157.745 60.7998 158.178 60.2662 158.752 59.927Z" fill="#004DD1"/>
<path opacity="0.05" d="M158.752 59.927C159.468 59.4798 160.312 59.2921 161.143 59.1392C161.641 59.0259 162.154 58.9894 162.664 59.0308C163.134 59.0888 163.585 59.2708 164.059 59.2959C164.723 59.3347 165.36 59.0637 165.995 58.8895C166.63 58.7153 167.379 58.6456 167.919 59.0346C168.034 59.1477 168.179 59.225 168.337 59.2572C168.501 59.2373 168.653 59.1622 168.769 59.0443C169.224 58.7193 169.775 58.5584 170.333 58.5879C170.891 58.6175 171.423 58.8357 171.841 59.2069C173.066 60.3547 172.929 62.5981 174.357 63.4653C174.754 63.7053 175.259 63.833 175.489 64.2395C175.544 64.3676 175.609 64.4912 175.683 64.6092C175.779 64.7149 175.896 64.7988 176.027 64.855C176.444 65.0409 176.841 65.2686 177.212 65.5345C177.397 65.6691 177.552 65.8396 177.669 66.0359C177.786 66.2321 177.863 66.45 177.893 66.6765C177.9 67.0112 177.828 67.3427 177.682 67.6443C176.98 69.3673 175.762 70.8305 174.195 71.8329C172.627 72.8353 170.788 73.3276 168.93 73.2421C168.602 73.2266 168.248 73.1821 168.012 72.9556C167.874 72.8003 167.765 72.6212 167.691 72.4272C167.017 71.0123 165.755 69.967 164.944 68.6218C164.464 67.8204 164.156 66.9242 163.657 66.1345C162.914 64.9344 161.762 64.0421 160.639 63.1923C160.004 62.7084 159.298 62.2013 158.498 62.2342C157.788 62.2652 157.269 62.3039 157.531 61.4309C157.745 60.7998 158.178 60.2662 158.752 59.927Z" fill="#000029"/>
<path d="M155.276 156.751C155.759 157.202 156.425 157.399 157.07 157.54C158.539 157.862 160.041 157.976 161.539 158.092L162.999 158.204C164.423 158.311 165.85 158.421 167.28 158.427C169.045 158.433 170.807 158.281 172.545 157.972C172.615 157.979 172.685 157.97 172.751 157.945C172.816 157.92 172.875 157.88 172.922 157.827C172.969 157.775 173.003 157.713 173.021 157.645C173.04 157.578 173.042 157.506 173.027 157.438C172.997 155.658 172.781 153.886 172.381 152.152C172.214 151.439 170.937 153.036 170.881 153.104C170.526 153.507 170.257 153.685 169.719 153.719C168.25 153.801 166.603 152.907 165.436 152.113C165.186 151.926 164.92 151.762 164.642 151.621C164.439 151.526 164.223 151.46 164.001 151.428C163.245 151.358 162.484 151.512 161.814 151.871C160.937 152.306 160.167 152.932 159.298 153.379C158.592 153.743 157.829 153.984 157.043 154.093C156.247 154.203 155.301 154.256 154.888 154.945C154.55 155.522 154.794 156.296 155.276 156.751Z" fill="#000029"/>
<path d="M155.276 157.014C155.76 157.465 156.426 157.662 157.07 157.804C158.539 158.125 160.041 158.239 161.539 158.355L162.999 158.467C164.424 158.574 165.85 158.684 167.28 158.69C169.046 158.696 170.808 158.544 172.545 158.235C172.625 158.233 172.703 158.215 172.774 158.182C172.846 158.148 172.911 158.101 172.963 158.042C173.025 157.945 173.291 157.56 173.289 157.445C173.26 155.667 172.778 153.892 172.379 152.159C172.212 151.447 170.935 153.044 170.879 153.112C170.525 153.514 170.256 153.692 169.717 153.727C168.248 153.808 166.601 152.914 165.434 152.121C165.184 151.934 164.919 151.769 164.64 151.629C164.437 151.533 164.222 151.468 164 151.435C164.193 152.492 165.705 153.77 166.487 154.159C168.07 154.945 169.952 154.546 171.713 154.645C171.842 154.641 171.97 154.673 172.083 154.736C172.296 154.875 172.307 155.175 172.302 155.428C172.286 155.85 172.232 156.344 171.868 156.559C171.687 156.646 171.488 156.688 171.287 156.681C166.933 156.872 162.571 156.72 158.241 156.224C157.512 156.175 156.794 156.016 156.112 155.752C155.667 155.544 155.252 155.277 154.879 154.958C154.329 155.398 154.794 156.563 155.276 157.014Z" fill="#E8EAF2"/>
<path d="M158.913 50.5952C158.938 51.2863 158.467 52.6257 159.759 52.2521C160.533 52.0276 160.746 51.1159 161.723 51.3192C162.701 51.5224 162.925 52.7264 163.256 53.5142C163.526 54.1405 163.943 54.6918 164.473 55.1204C165.004 55.549 165.63 55.8421 166.299 55.9743C166.575 56.0392 166.862 56.0392 167.137 55.9743C167.768 55.7943 168.128 55.1439 168.386 54.542C168.607 54.0321 168.792 53.5068 168.937 52.9702C169.036 52.5896 169.101 52.2009 169.131 51.8089C169.151 51.5434 169.151 51.2768 169.131 51.0114C169.013 49.4416 168.12 48.0092 166.975 46.9253C165.829 45.8413 164.441 45.0613 163.068 44.289C162.62 44.0088 162.135 43.7925 161.626 43.6464C161.126 43.5454 160.612 43.5244 160.105 43.5844C159.437 43.6113 158.78 43.7657 158.169 44.0393C157.919 44.163 157.689 44.3242 157.488 44.5174C157.204 44.7837 157.003 45.1256 156.907 45.5026C156.66 46.5188 157.306 47.4382 157.833 48.2338C158.299 48.95 158.878 49.7068 158.913 50.5952Z" fill="#000029"/>
<path opacity="0.1" d="M137.174 65.42C137.451 64.7252 138.612 62.8011 138.275 62.1392C137.927 62.6331 137.632 63.1618 137.393 63.7167C137.174 64.2548 137.352 64.9768 137.174 65.42Z" fill="#000029"/>
<path opacity="0.1" d="M157.804 48.2376C157.277 47.4343 156.629 46.5207 156.876 45.5064C156.999 45.0606 157.263 44.6662 157.627 44.3818C157.542 44.5303 157.476 44.6899 157.434 44.8561C157.186 45.8703 157.835 46.7917 158.361 47.5872C158.828 48.2995 159.406 49.0564 159.441 49.9448C159.466 50.6339 158.994 51.9753 160.287 51.6017C161.061 51.3791 161.274 50.4655 162.252 50.6707C163.229 50.8758 163.452 52.0759 163.783 52.8637C164.053 53.4906 164.472 54.0422 165.004 54.4708C165.535 54.8994 166.163 55.1922 166.833 55.3239C167.109 55.3888 167.396 55.3888 167.671 55.3239C167.811 55.2823 167.942 55.2168 168.059 55.1303C167.861 55.5251 167.519 55.8278 167.102 55.9743C166.827 56.0391 166.54 56.0391 166.264 55.9743C165.596 55.8409 164.971 55.5473 164.442 55.1188C163.912 54.6902 163.495 54.1396 163.225 53.5141C162.894 52.7263 162.679 51.5262 161.694 51.3191C160.709 51.112 160.5 52.0295 159.73 52.2521C158.437 52.6257 158.909 51.2843 158.884 50.5952C158.851 49.7067 158.27 48.9499 157.804 48.2376Z" fill="#000029"/>
<path opacity="0.1" d="M157.517 46.8653C157.635 47.0609 157.765 47.2496 157.904 47.4305C158.178 47.7743 158.484 48.0912 158.818 48.377C159.011 48.5493 159.222 48.7099 159.435 48.8609C159.832 49.1395 160.249 49.3885 160.682 49.6061C161.946 50.243 163.312 50.6417 164.673 51.0346L167.34 51.8089C167.668 52.0566 168.268 52.5038 168.93 52.9702C169.028 52.5896 169.093 52.2009 169.123 51.8089C169.143 51.5434 169.143 51.2768 169.123 51.0114C169.005 49.4416 168.113 48.0092 166.967 46.9253C165.821 45.8413 164.433 45.0613 163.061 44.289C162.612 44.0088 162.127 43.7925 161.619 43.6464C161.118 43.5454 160.605 43.5244 160.097 43.5844C159.429 43.6113 158.772 43.7657 158.162 44.0393C157.912 44.163 157.682 44.3242 157.48 44.5174C157.329 44.7391 157.213 44.9834 157.138 45.2413C156.987 45.791 157.219 46.3795 157.517 46.8653Z" fill="#000029"/>
<path d="M157.517 46.6854C157.635 46.881 157.764 47.0697 157.904 47.2506C158.178 47.5944 158.484 47.9113 158.818 48.1971C159.011 48.3694 159.222 48.5301 159.435 48.681C159.832 48.9596 160.249 49.2087 160.682 49.4263C161.946 50.0631 163.312 50.4618 164.673 50.8567L167.34 51.6309C168.271 52.3355 171.386 54.6428 171.91 54.3544C172.528 54.0156 169.146 51.6213 169.146 51.6213L168.989 51.7393C169.485 51.4277 169.744 50.7057 169.857 50.0824C170.05 48.9656 170.147 47.8042 169.882 46.7009C169.617 45.5976 168.955 44.5466 167.946 44.0297C167.497 43.7994 166.953 43.6426 166.63 43.2884C166.581 43.236 166.538 43.1782 166.502 43.1161C166.484 43.0869 166.467 43.0565 166.452 43.0251C166.417 42.9278 166.369 42.8354 166.311 42.7503C166.117 42.5354 165.788 42.5993 165.507 42.6342L165.418 42.6438C165.368 42.6438 165.318 42.6438 165.267 42.6438C164.265 42.6671 163.293 42.1077 162.279 42.1077C161.166 42.1077 160.221 42.7503 159.242 43.1897C159.048 43.2787 158.855 43.36 158.68 43.4432C157.974 43.7723 157.442 44.1227 157.149 45.0595C156.987 45.6111 157.219 46.1996 157.517 46.6854Z" fill="#004DD1"/>
<path opacity="0.1" d="M165.273 42.6495C165.219 42.7429 165.199 42.8527 165.218 42.9591C165.238 43.0655 165.294 43.1616 165.378 43.2302C165.502 43.3182 165.648 43.3704 165.8 43.3811C165.908 43.3954 166.017 43.4038 166.127 43.4063C166.275 43.4174 166.424 43.3915 166.56 43.3308C166.587 43.3177 166.613 43.3014 166.636 43.2824C166.587 43.23 166.544 43.1722 166.508 43.1102C166.483 43.1295 166.458 43.1256 166.357 43.1102C166.174 43.1006 165.993 43.0694 165.817 43.0172C165.723 42.994 165.638 42.9457 165.57 42.8775C165.501 42.8093 165.453 42.7238 165.43 42.6301L165.273 42.6495Z" fill="#000029"/>
<path opacity="0.1" d="M169.086 51.5941C168.946 51.6817 168.789 51.7403 168.626 51.7664C168.508 51.7973 168.388 51.8167 168.267 51.8244C167.961 51.811 167.663 51.7269 167.395 51.5786L169.086 51.5941Z" fill="#000029"/>
<path d="M85.2429 72.0189L85.3435 71.9918L85.6048 72.5512L87.7592 77.1967C87.666 77.3135 87.5806 77.4363 87.5037 77.5644C87.4766 77.609 87.4495 77.6535 87.4243 77.7058C87.3992 77.758 87.372 77.8103 87.3488 77.8645C87.3391 77.8816 87.3313 77.8998 87.3256 77.9187C87.3198 77.9303 87.3217 77.9303 87.3101 77.9574C87.2985 77.9845 87.2888 78.0135 87.2791 78.0406C87.2645 78.0602 87.2567 78.0783 87.2407 78.0963L87.2385 78.1045L87.2288 78.1277L87.2075 78.204V78.2109V78.238L87.1959 78.2961C87.1958 78.2978 87.1957 78.2995 87.1957 78.3011C87.1957 78.302 87.1958 78.303 87.1959 78.3039C87.1958 78.3048 87.1956 78.3057 87.1955 78.3066C87.1956 78.3083 87.1958 78.3099 87.1959 78.3116V78.3135V78.3193V78.3213V78.329C87.1969 78.3341 87.1969 78.3394 87.1959 78.3445V78.36V78.3716V78.3968C87.1907 78.4612 87.1907 78.5259 87.1959 78.5903V78.6387C87.0875 78.6077 86.9675 78.4935 86.8707 78.2109C86.8392 78.118 86.8228 78.0207 86.8223 77.9225C86.8038 77.3175 87.3142 76.6788 87.3947 76.578C87.3984 76.5734 87.4012 76.5699 87.403 76.5676L85.5061 72.5705L85.2429 72.0189Z" fill="url(#paint22_linear)"/>
<path d="M87.6934 79.2426H87.705C87.741 79.2283 87.7744 79.208 87.8037 79.1826L87.7989 79.1904C87.8005 79.1891 87.8021 79.1878 87.8037 79.1865L87.7747 79.233L87.7572 79.2601C87.7477 79.2742 87.7393 79.2891 87.7321 79.3046C87.7164 79.3287 87.7029 79.354 87.6891 79.3802C87.6891 79.3802 87.6891 79.3803 87.6891 79.3803C87.6871 79.384 87.6852 79.3878 87.6832 79.3916C87.6802 79.3974 87.6771 79.4032 87.674 79.4091C87.6374 79.4824 87.6095 79.5597 87.5908 79.6394C87.5904 79.6414 87.5902 79.6433 87.5902 79.6452C87.5902 79.6472 87.5904 79.6491 87.5908 79.6511C87.5907 79.6514 87.5906 79.6517 87.5906 79.652C87.5906 79.6523 87.5907 79.6527 87.5908 79.653C87.5907 79.6533 87.5907 79.6537 87.5906 79.654C87.5907 79.6543 87.5907 79.6546 87.5908 79.6549C87.5901 79.6589 87.59 79.663 87.5903 79.667C87.5905 79.6681 87.5906 79.6693 87.5908 79.6704C87.5916 79.6722 87.5921 79.6742 87.5921 79.6762C87.5921 79.6782 87.5916 79.6802 87.5908 79.682C87.5421 79.6098 87.4796 79.548 87.4069 79.5001C87.3489 79.4656 87.3017 79.4157 87.2705 79.3558C87.2394 79.296 87.2256 79.2286 87.2308 79.1613C87.2325 79.084 87.2469 79.0075 87.2733 78.9349C87.306 79.0163 87.3533 79.091 87.4127 79.1555L87.4417 79.1826C87.4652 79.2032 87.4921 79.2195 87.5211 79.231C87.5324 79.2358 87.544 79.2396 87.5559 79.2426H87.5753C87.614 79.2525 87.6546 79.2525 87.6934 79.2426Z" fill="url(#paint23_linear)"/>
<path d="M95.1378 145.623C95.1378 145.623 98.0412 145.979 99.4407 145.495C100.84 145.011 99.0071 147.576 97.1044 148.184C95.7591 148.576 94.3731 148.811 92.9738 148.884L90.7362 146.78L88.3612 146.962L88.7754 149.285L88.0379 149.355L87.7515 146.308L95.1378 145.623Z" fill="#000029"/>
<path opacity="0.1" d="M95.1378 145.623C95.1378 145.623 98.0412 145.979 99.4407 145.495C100.84 145.011 99.0071 147.576 97.1044 148.184C95.7591 148.576 94.3731 148.811 92.9738 148.884L90.7362 146.78L88.3612 146.962L88.7754 149.285L88.0379 149.355L87.7515 146.308L95.1378 145.623Z" fill="#000029"/>
<path d="M99.3206 150.942C99.3206 150.942 102.795 151.703 104.547 151.275C106.298 150.847 103.786 153.75 101.405 154.273C99.0244 154.796 96.3107 154.66 96.3107 154.66L93.8466 151.844L90.9432 151.795L91.1813 154.67H90.2773V150.942H99.3206Z" fill="#000029"/>
<path opacity="0.1" d="M99.3206 150.942C99.3206 150.942 102.795 151.703 104.547 151.275C106.298 150.847 103.786 153.75 101.405 154.273C99.0244 154.796 96.3107 154.66 96.3107 154.66L93.8466 151.844L90.9432 151.795L91.1813 154.67H90.2773V150.942H99.3206Z" fill="#000029"/>
<path d="M86.4681 84.8228C86.4681 84.8228 80.518 91.4387 84.0873 98.9122C84.0873 98.9122 84.2809 100.246 84.1357 100.484C83.9905 100.722 84.7067 103.815 84.7067 103.815C84.7067 103.815 84.8035 109.428 84.7067 110.385C84.6099 111.341 84.5132 111.86 84.5132 111.86C84.5132 111.86 83.1834 122.229 83.6112 125.326C84.0389 128.423 84.2306 133.941 84.2306 133.941L85.992 148.793L95.132 147.08L90.9898 126.706L90.8465 123.088C90.8465 123.088 92.5615 118.661 91.7988 116.424C91.0362 114.186 91.9924 85.6725 91.9924 85.6725L86.4681 84.8228Z" fill="#000029"/>
<path opacity="0.05" d="M86.4681 84.8228C86.4681 84.8228 80.518 91.4387 84.0873 98.9122C84.0873 98.9122 84.2809 100.246 84.1357 100.484C83.9905 100.722 84.7067 103.815 84.7067 103.815C84.7067 103.815 84.8035 109.428 84.7067 110.385C84.6099 111.341 84.5132 111.86 84.5132 111.86C84.5132 111.86 83.1834 122.229 83.6112 125.326C84.0389 128.423 84.2306 133.941 84.2306 133.941L85.992 148.793L95.132 147.08L90.9898 126.706L90.8465 123.088C90.8465 123.088 92.5615 118.661 91.7988 116.424C91.0362 114.186 91.9924 85.6725 91.9924 85.6725L86.4681 84.8228Z" fill="#000029"/>
<path d="M90.8465 116.809C91.8937 118.808 91.2336 123.663 91.2336 123.663C89.8535 124.853 90.6142 135.23 90.6142 135.23C90.6142 135.23 89.6619 145.466 89.0444 146.65C88.427 147.835 88.5199 152.744 88.5199 152.744C95.5172 154.029 100.087 151.269 100.087 151.269C100.087 151.269 97.8496 146.174 97.8031 145.938C97.776 145.805 97.4799 146.167 97.3908 146.271C97.4373 146.207 97.5592 146.041 97.8031 145.69C98.7555 144.357 97.8031 141.786 97.8031 141.786C97.8031 141.786 98.9935 133.504 98.4225 132.741C97.8515 131.978 98.5174 129.172 98.8503 128.506C99.1832 127.84 99.611 126.268 99.611 125.603C99.6388 125.085 99.7351 124.573 99.8975 124.081C101.372 121.985 101.088 118.51 101.088 118.51C101.088 118.51 100.993 113.513 101.849 109.562C102.704 105.611 100.78 94.4235 100.78 94.4235C100.78 94.4235 101.421 92.2343 100.945 91.4252C100.73 91.0613 100.751 90.2039 100.852 89.3735C100.968 88.3573 101.183 87.3798 101.183 87.3798L88.1966 85.0745C87.9237 85.5293 87.674 85.9707 87.4437 86.3946C83.1485 94.3306 86.0442 97.2805 86.0442 97.2805L88.8005 105.776C88.8005 105.776 89.7955 114.811 90.8465 116.809Z" fill="#000029"/>
<path d="M111.459 54.6892L113.315 56.2648C113.315 56.2648 113.679 55.9744 114.167 55.5389C115.328 54.4898 117.21 52.591 116.505 51.7857C115.537 50.6863 114.57 51.3986 114.51 51.4489C114.614 51.3386 116.768 49.0294 115.886 49.2152C115.003 49.401 113.315 51.4063 113.315 51.4063L111.982 53.762L111.459 54.6892Z" fill="#EFB7B9"/>
<path d="M86.563 80.396L88.7521 81.0618L87.0875 83.9653L85.1829 81.4896L86.563 80.396Z" fill="#EFB7B9"/>
<path d="M91.7041 53.1191C95.1485 53.1191 97.9407 50.3269 97.9407 46.8826C97.9407 43.4382 95.1485 40.646 91.7041 40.646C88.2597 40.646 85.4675 43.4382 85.4675 46.8826C85.4675 50.3269 88.2597 53.1191 91.7041 53.1191Z" fill="#EFB7B9"/>
<path d="M95.3701 49.1687C95.3701 49.1687 89.7045 58.1596 95.0836 58.9339C100.463 59.7081 87.8482 65.1705 87.8482 65.1705L83.135 60.4108C83.135 60.4108 88.0379 51.9366 87.2772 48.7003C86.5165 45.4639 95.3701 49.1687 95.3701 49.1687Z" fill="#EFB7B9"/>
<path opacity="0.1" d="M87.438 86.408C88.6962 86.7894 89.9785 87.0862 91.2763 87.2964C91.2763 87.2964 98.291 90.4109 100.846 89.3869C100.962 88.3707 101.177 87.3932 101.177 87.3932L88.1909 85.0879C87.918 85.5428 87.6664 85.9841 87.438 86.408Z" fill="#000029"/>
<path d="M80.9941 62.8767L82.262 65.4995L83.6943 68.4532L83.8879 68.8752L85.5854 72.5529L87.7436 77.2139C87.7436 77.2139 86.981 78.1178 87.2191 78.832C87.4417 79.4998 87.7901 79.2095 87.8346 79.1688C87.794 79.225 87.3333 79.8444 87.7436 80.1173C88.154 80.3902 88.0282 81.0212 88.0282 81.0212C88.0282 81.0212 86.2668 83.9247 85.9338 84.9718C85.6009 86.019 91.2665 86.9249 91.2665 86.9249C91.2665 86.9249 99.3109 90.4942 101.31 88.7328C103.31 86.9713 101.31 78.6888 101.31 78.6888C101.31 78.6888 101.31 73.9291 100.786 73.5013C100.261 73.0736 100.511 69.7733 100.511 69.7733C101.891 67.257 100.939 65.8227 100.939 65.8227L101.326 59.35C101.326 59.35 100.707 58.6822 100.23 58.6358C99.9297 58.6071 99.627 58.6071 99.3264 58.6358C99.3264 58.6358 99.0748 58.5506 98.7128 58.4422C97.9502 58.2254 96.6843 57.9254 96.2314 58.1518C95.5655 58.4848 91.282 57.6273 91.282 57.6273C89.4357 57.354 87.5761 57.1795 85.7112 57.1047C85.0744 57.0632 84.4352 57.1326 83.8221 57.3098C82.2736 57.7879 81.9987 58.9125 81.9987 58.9125C81.9987 58.9125 82.1923 59.8649 81.4277 61.1017C80.6631 62.3386 80.9941 62.8767 80.9941 62.8767Z" fill="#004DD1"/>
<path opacity="0.1" d="M111.459 54.689L113.315 56.2646C113.315 56.2646 113.679 55.9743 114.167 55.5388C114.314 53.9322 112.946 53.7193 111.982 53.7619L111.459 54.689Z" fill="#000029"/>
<path d="M100.511 59.3076L101.32 59.356C101.32 59.356 103.223 59.5921 103.837 59.0211C104.45 58.4501 106.645 58.2604 106.645 58.2604C106.645 58.2604 107.265 57.0216 107.93 56.6422C108.596 56.2629 110.216 55.5467 110.253 55.1654C110.29 54.784 110.873 54.0717 110.873 54.0717C110.873 54.0717 114.442 53.2143 113.919 56.0228C113.397 58.8314 110.507 61.2568 110.507 61.2568C110.507 61.2568 110.174 62.8285 109.078 63.2098C107.983 63.5911 100.891 66.9223 99.7485 66.0649C98.6065 65.2074 100.511 59.3076 100.511 59.3076Z" fill="#004DD1"/>
<path opacity="0.1" d="M81.422 61.0998C82.1827 59.8629 81.993 58.9106 81.993 58.9106C81.993 58.9106 82.2679 57.786 83.8164 57.3079C84.1185 57.2163 84.4291 57.1554 84.7435 57.126C83.2183 57.6099 82.9453 58.7209 82.9453 58.7209C82.9453 58.7209 83.1389 59.6733 82.3743 60.9101C81.6098 62.147 81.9446 62.6715 81.9446 62.6715L83.2144 65.2943L84.6448 68.2461L84.85 68.67L86.5475 72.338L88.7057 76.999C88.7057 76.999 87.9431 77.9049 88.1812 78.6191C88.4038 79.2869 88.7522 78.9946 88.7967 78.9559C88.7561 79.0101 88.2954 79.6315 88.7057 79.9044C89.1161 80.1773 88.9903 80.8083 88.9903 80.8083C88.9903 80.8083 87.2289 83.7118 86.8959 84.7589C86.563 85.8061 92.2286 86.71 92.2286 86.71C92.2286 86.71 97.8148 89.1896 100.834 88.996C98.2677 90.0025 91.2762 86.9017 91.2762 86.9017C91.2762 86.9017 85.6107 85.9958 85.9436 84.9486C86.2765 83.9014 88.038 80.9999 88.038 80.9999C88.038 80.9999 88.1812 80.3805 87.7534 80.096C87.3256 79.8115 87.8037 79.2037 87.8444 79.1476C87.7999 79.1882 87.4573 79.4785 87.2289 78.8108C86.9908 78.0965 87.7534 77.1926 87.7534 77.1926L85.5952 72.5297L83.8977 68.852L83.7041 68.43L82.2717 65.4762L81.0039 62.8535C81.0039 62.8535 80.6594 62.3386 81.422 61.0998Z" fill="#000029"/>
<path d="M81.8595 62.1626L81.0039 62.8768C80.8488 63.3464 80.6065 63.7824 80.2897 64.1621C79.8135 64.6867 78.5283 69.8741 78.5283 69.8741C78.5825 69.9939 78.6105 70.1239 78.6105 70.2554C78.6105 70.3869 78.5825 70.5169 78.5283 70.6368C78.3347 71.0239 78.9154 71.5891 78.9154 71.5891C78.9154 71.5891 79.1999 71.4942 78.7218 72.0168C78.2437 72.5395 79.1515 73.1627 79.1515 73.1627C79.1515 73.1627 83.0538 79.8232 83.8628 80.5375C84.6719 81.2517 85.481 83.108 85.481 83.108C85.481 83.108 87.1766 80.4484 87.5754 80.3981L85.9107 76.6391C85.9107 76.6391 84.7668 71.4013 83.9112 70.4451C83.0557 69.4889 84.339 66.2061 84.339 66.2061L81.8595 62.1626Z" fill="#004DD1"/>
<path opacity="0.1" d="M81.302 71.8736C82.0182 72.733 83.2744 72.9149 84.3855 72.7891C84.5481 72.7698 84.7126 72.7446 84.8733 72.7136C85.1167 72.6701 85.3577 72.6139 85.5952 72.5452C86.4458 72.3002 87.2466 71.9071 87.9606 71.3838C88.1164 71.2492 88.2964 71.1455 88.4909 71.078C88.9361 70.9658 89.3774 71.2967 89.6194 71.6839C89.8614 72.071 89.9756 72.5278 90.2233 72.9111C90.7111 73.6718 91.6557 74.0376 92.5615 74.0589C93.4674 74.0802 94.3462 73.8092 95.2095 73.5401C94.5107 72.6807 93.7945 71.7865 93.51 70.7161C93.3518 70.018 93.3067 69.2992 93.3764 68.5869C93.5816 65.2189 94.7507 61.669 97.4974 59.7062C97.9735 59.3675 98.5484 58.9668 98.7071 58.452C97.9445 58.2352 96.6786 57.9351 96.2257 58.1616C95.5598 58.4945 91.2763 57.6371 91.2763 57.6371C89.43 57.3638 87.5705 57.1893 85.7056 57.1144C85.0687 57.073 84.4295 57.1424 83.8164 57.3196C84.0506 58.75 84.2539 60.1727 83.9732 61.578C83.7784 62.4537 83.4611 63.2976 83.0305 64.0846C82.7866 64.5588 82.5234 65.0253 82.2563 65.4938C81.5324 66.7964 80.8413 68.103 80.7078 69.5586C80.6517 70.3812 80.7833 71.2503 81.302 71.8736Z" fill="#000029"/>
<path opacity="0.1" d="M90.7148 78.5707C90.3432 78.5223 89.9676 78.3965 89.5999 78.474C89.2871 78.5672 89.0011 78.7338 88.7656 78.9598L91.2123 78.9733C91.8413 78.9733 92.7898 79.0121 93.2718 78.5669C92.8304 78.1294 91.3439 78.652 90.7148 78.5707Z" fill="#000029"/>
<path d="M99.1949 46.1589C99.5662 46.6703 99.8001 47.2684 99.8743 47.896C99.9486 48.5236 99.8606 49.1598 99.6188 49.7437C99.2316 50.6631 98.4709 51.3831 98.0083 52.2697C97.6583 52.9575 97.4888 53.723 97.5159 54.4943C97.543 55.2657 97.7657 56.0174 98.1632 56.679C98.3437 56.9145 98.4753 57.1836 98.5503 57.4707C98.6606 58.1965 97.9096 58.7172 97.3115 59.145C94.5629 61.1038 93.3957 64.6557 93.1906 68.0256C93.1201 68.7378 93.1645 69.4567 93.3222 70.1548C93.6067 71.2252 94.3248 72.1195 95.0236 72.9789C94.1603 73.2479 93.2815 73.5189 92.3737 73.4976C91.4659 73.4763 90.5252 73.1105 90.0355 72.3498C89.7877 71.9627 89.6716 71.5097 89.4316 71.1226C89.1916 70.7355 88.7483 70.4064 88.307 70.5168C88.1113 70.5822 87.9305 70.6854 87.7747 70.8207C86.7241 71.5912 85.4916 72.0761 84.1977 72.2279C83.0866 72.3556 81.8304 72.1717 81.1162 71.3123C80.5974 70.6871 80.4638 69.8199 80.5355 69.0109C80.7832 66.1287 83.224 63.8621 83.7892 61.0245C84.2461 58.725 83.4176 56.379 83.2666 54.0446C83.0402 50.5857 84.2964 47.2196 85.5332 43.9794C85.8026 43.1765 86.1665 42.4084 86.6172 41.6915C87.6527 40.1739 89.4432 39.2642 91.2627 39.0823C91.9377 38.9886 92.6253 39.0549 93.2699 39.2758C93.9203 39.5274 94.4623 39.9959 94.9907 40.4546C96.1714 41.4786 97.3851 42.5451 98.0645 43.9542C98.3412 44.5349 98.5232 45.1485 98.8387 45.7079L99.1949 46.1589Z" fill="#000029"/>
<g opacity="0.1">
<path opacity="0.1" d="M98.0722 44.8948C97.7625 44.3354 97.5825 43.716 97.298 43.1411C97.0335 42.605 96.7018 42.1048 96.3108 41.6526C97.0206 42.3129 97.6101 43.0916 98.0528 43.954C98.3219 44.5115 98.5019 45.1154 98.7942 45.6593L98.4187 45.3419C98.5169 45.4723 98.6049 45.6102 98.6819 45.7542C98.4439 45.494 98.2391 45.2054 98.0722 44.8948Z" fill="#000029"/>
<path opacity="0.1" d="M83.4312 71.403C84.7254 71.2532 85.9582 70.7688 87.0083 69.9977C87.1646 69.8633 87.3453 69.7601 87.5406 69.6938C87.9838 69.5816 88.4251 69.9125 88.6671 70.2997C88.7174 70.381 88.7619 70.4681 88.8045 70.5552C88.6475 70.4836 88.471 70.4666 88.3032 70.5068C88.1075 70.5722 87.9267 70.6754 87.7709 70.8107C86.7203 71.5812 85.4879 72.0661 84.1939 72.2179C83.0828 72.3456 81.8266 72.1617 81.1124 71.3023C81.0233 71.1915 80.9443 71.0729 80.8762 70.9481C81.5963 71.4107 82.5583 71.5036 83.4312 71.403Z" fill="#000029"/>
<path opacity="0.1" d="M91.6092 72.6767C92.5131 72.698 93.3938 72.427 94.2571 72.1579C93.5584 71.2985 92.8422 70.4043 92.5576 69.3339C92.3993 68.6359 92.3542 67.917 92.4241 67.2047C92.6293 63.8348 93.7984 60.2829 96.547 58.324C97.1451 57.8963 97.9019 57.3756 97.7858 56.6478C97.7095 56.3618 97.578 56.0935 97.3986 55.8581C97.0009 55.1966 96.7778 54.445 96.7504 53.6737C96.723 52.9023 96.8921 52.1367 97.2418 51.4487C97.7064 50.5622 98.4613 49.8421 98.8542 48.9208C99.0635 48.4132 99.1574 47.8655 99.1293 47.3172C99.1012 46.7689 98.9517 46.2337 98.6916 45.7502C98.8226 45.8881 98.9622 46.0174 99.1097 46.1374C99.2154 46.2852 99.3305 46.4262 99.4543 46.5593C99.7145 47.0432 99.8639 47.5788 99.8916 48.1275C99.9194 48.6762 99.8249 49.2242 99.6149 49.7318C99.2278 50.6512 98.4671 51.3713 98.0045 52.2578C97.6544 52.9456 97.485 53.7112 97.5121 54.4825C97.5392 55.2538 97.7619 56.0056 98.1593 56.6672C98.3398 56.9026 98.4715 57.1718 98.5465 57.4588C98.6568 58.1847 97.9058 58.7054 97.3077 59.1331C94.5591 61.092 93.3919 64.6439 93.1867 68.0138C93.1162 68.726 93.1607 69.4449 93.3183 70.143C93.6029 71.2134 94.321 72.1076 95.0197 72.967C94.1565 73.2361 93.2777 73.5071 92.3699 73.4858C91.4621 73.4645 90.5214 73.0987 90.0316 72.338C89.9987 72.2876 89.9697 72.2354 89.9407 72.1831C90.4416 72.4964 91.0185 72.6671 91.6092 72.6767Z" fill="#000029"/>
</g>
<path opacity="0.2" d="M62.962 28.655V32.7198H45.313C45.8511 31.974 46.4008 31.2384 46.9621 30.5132C47.0396 30.4126 47.117 30.3197 47.1983 30.2132L48.0248 29.1738L48.139 29.0325L48.439 28.6666L62.962 28.655Z" fill="#000029"/>
<path opacity="0.2" d="M99.4793 28.655H80.9341V32.716H99.4793V28.655Z" fill="#000029"/>
<path opacity="0.2" d="M142.073 28.655H123.528V32.716H142.073V28.655Z" fill="#000029"/>
<path opacity="0.2" d="M178.097 28.655H159.552V32.716H178.097V28.655Z" fill="#000029"/>
</g>
<defs>
<linearGradient id="paint0_linear" x1="42.8432" y1="50.4675" x2="42.8432" y2="41.823" gradientUnits="userSpaceOnUse">
<stop stop-color="#808080" stop-opacity="0.25"/>
<stop offset="0.54" stop-color="#808080" stop-opacity="0.12"/>
<stop offset="1" stop-color="#808080" stop-opacity="0.1"/>
</linearGradient>
<linearGradient id="paint1_linear" x1="3718.92" y1="2175.5" x2="3718.92" y2="1789.35" gradientUnits="userSpaceOnUse">
<stop stop-color="#808080" stop-opacity="0.25"/>
<stop offset="0.54" stop-color="#808080" stop-opacity="0.12"/>
<stop offset="1" stop-color="#808080" stop-opacity="0.1"/>
</linearGradient>
<linearGradient id="paint2_linear" x1="5619.62" y1="2941.85" x2="5619.62" y2="2555.7" gradientUnits="userSpaceOnUse">
<stop stop-color="#808080" stop-opacity="0.25"/>
<stop offset="0.54" stop-color="#808080" stop-opacity="0.12"/>
<stop offset="1" stop-color="#808080" stop-opacity="0.1"/>
</linearGradient>
<linearGradient id="paint3_linear" x1="7558.98" y1="3203.19" x2="7558.98" y2="2817.13" gradientUnits="userSpaceOnUse">
<stop stop-color="#808080" stop-opacity="0.25"/>
<stop offset="0.54" stop-color="#808080" stop-opacity="0.12"/>
<stop offset="1" stop-color="#808080" stop-opacity="0.1"/>
</linearGradient>
<linearGradient id="paint4_linear" x1="8078.69" y1="3458.7" x2="8078.69" y2="3072.64" gradientUnits="userSpaceOnUse">
<stop stop-color="#808080" stop-opacity="0.25"/>
<stop offset="0.54" stop-color="#808080" stop-opacity="0.12"/>
<stop offset="1" stop-color="#808080" stop-opacity="0.1"/>
</linearGradient>
<linearGradient id="paint5_linear" x1="8730.33" y1="2776.05" x2="8730.33" y2="2389.9" gradientUnits="userSpaceOnUse">
<stop stop-color="#808080" stop-opacity="0.25"/>
<stop offset="0.54" stop-color="#808080" stop-opacity="0.12"/>
<stop offset="1" stop-color="#808080" stop-opacity="0.1"/>
</linearGradient>
<linearGradient id="paint6_linear" x1="8598.42" y1="3329.75" x2="8598.42" y2="2943.69" gradientUnits="userSpaceOnUse">
<stop stop-color="#808080" stop-opacity="0.25"/>
<stop offset="0.54" stop-color="#808080" stop-opacity="0.12"/>
<stop offset="1" stop-color="#808080" stop-opacity="0.1"/>
</linearGradient>
<linearGradient id="paint7_linear" x1="4293" y1="2175.5" x2="4293" y2="1789.35" gradientUnits="userSpaceOnUse">
<stop stop-color="#808080" stop-opacity="0.25"/>
<stop offset="0.54" stop-color="#808080" stop-opacity="0.12"/>
<stop offset="1" stop-color="#808080" stop-opacity="0.1"/>
</linearGradient>
<linearGradient id="paint8_linear" x1="2326.63" y1="3132.4" x2="2326.63" y2="2746.25" gradientUnits="userSpaceOnUse">
<stop stop-color="#808080" stop-opacity="0.25"/>
<stop offset="0.54" stop-color="#808080" stop-opacity="0.12"/>
<stop offset="1" stop-color="#808080" stop-opacity="0.1"/>
</linearGradient>
<linearGradient id="paint9_linear" x1="4022.61" y1="2744.41" x2="4022.61" y2="2358.34" gradientUnits="userSpaceOnUse">
<stop stop-color="#808080" stop-opacity="0.25"/>
<stop offset="0.54" stop-color="#808080" stop-opacity="0.12"/>
<stop offset="1" stop-color="#808080" stop-opacity="0.1"/>
</linearGradient>
<linearGradient id="paint10_linear" x1="6215.95" y1="2508.52" x2="6215.95" y2="2122.46" gradientUnits="userSpaceOnUse">
<stop stop-color="#808080" stop-opacity="0.25"/>
<stop offset="0.54" stop-color="#808080" stop-opacity="0.12"/>
<stop offset="1" stop-color="#808080" stop-opacity="0.1"/>
</linearGradient>
<linearGradient id="paint11_linear" x1="8436.38" y1="2231.71" x2="8436.38" y2="1845.65" gradientUnits="userSpaceOnUse">
<stop stop-color="#808080" stop-opacity="0.25"/>
<stop offset="0.54" stop-color="#808080" stop-opacity="0.12"/>
<stop offset="1" stop-color="#808080" stop-opacity="0.1"/>
</linearGradient>
<linearGradient id="paint12_linear" x1="6771.15" y1="2175.5" x2="6771.15" y2="1789.35" gradientUnits="userSpaceOnUse">
<stop stop-color="#808080" stop-opacity="0.25"/>
<stop offset="0.54" stop-color="#808080" stop-opacity="0.12"/>
<stop offset="1" stop-color="#808080" stop-opacity="0.1"/>
</linearGradient>
<linearGradient id="paint13_linear" x1="6747.35" y1="2941.85" x2="6747.35" y2="2555.7" gradientUnits="userSpaceOnUse">
<stop stop-color="#808080" stop-opacity="0.25"/>
<stop offset="0.54" stop-color="#808080" stop-opacity="0.12"/>
<stop offset="1" stop-color="#808080" stop-opacity="0.1"/>
</linearGradient>
<linearGradient id="paint14_linear" x1="4858.06" y1="2366.05" x2="4858.06" y2="1979.99" gradientUnits="userSpaceOnUse">
<stop stop-color="#808080" stop-opacity="0.25"/>
<stop offset="0.54" stop-color="#808080" stop-opacity="0.12"/>
<stop offset="1" stop-color="#808080" stop-opacity="0.1"/>
</linearGradient>
<linearGradient id="paint15_linear" x1="2622.11" y1="2493.06" x2="2622.11" y2="2106.99" gradientUnits="userSpaceOnUse">
<stop stop-color="#808080" stop-opacity="0.25"/>
<stop offset="0.54" stop-color="#808080" stop-opacity="0.12"/>
<stop offset="1" stop-color="#808080" stop-opacity="0.1"/>
</linearGradient>
<linearGradient id="paint16_linear" x1="2832.48" y1="2941.85" x2="2832.48" y2="2555.7" gradientUnits="userSpaceOnUse">
<stop stop-color="#808080" stop-opacity="0.25"/>
<stop offset="0.54" stop-color="#808080" stop-opacity="0.12"/>
<stop offset="1" stop-color="#808080" stop-opacity="0.1"/>
</linearGradient>
<linearGradient id="paint17_linear" x1="4578" y1="3005.84" x2="4578" y2="2619.78" gradientUnits="userSpaceOnUse">
<stop stop-color="#808080" stop-opacity="0.25"/>
<stop offset="0.54" stop-color="#808080" stop-opacity="0.12"/>
<stop offset="1" stop-color="#808080" stop-opacity="0.1"/>
</linearGradient>
<linearGradient id="paint18_linear" x1="7657.88" y1="2231.71" x2="7657.88" y2="1845.65" gradientUnits="userSpaceOnUse">
<stop stop-color="#808080" stop-opacity="0.25"/>
<stop offset="0.54" stop-color="#808080" stop-opacity="0.12"/>
<stop offset="1" stop-color="#808080" stop-opacity="0.1"/>
</linearGradient>
<linearGradient id="paint19_linear" x1="8030.25" y1="2776.05" x2="8030.25" y2="2389.9" gradientUnits="userSpaceOnUse">
<stop stop-color="#808080" stop-opacity="0.25"/>
<stop offset="0.54" stop-color="#808080" stop-opacity="0.12"/>
<stop offset="1" stop-color="#808080" stop-opacity="0.1"/>
</linearGradient>
<linearGradient id="paint20_linear" x1="5656.37" y1="2175.5" x2="5656.37" y2="1789.35" gradientUnits="userSpaceOnUse">
<stop stop-color="#808080" stop-opacity="0.25"/>
<stop offset="0.54" stop-color="#808080" stop-opacity="0.12"/>
<stop offset="1" stop-color="#808080" stop-opacity="0.1"/>
</linearGradient>
<linearGradient id="paint21_linear" x1="6168.33" y1="3329.75" x2="6168.33" y2="2943.69" gradientUnits="userSpaceOnUse">
<stop stop-color="#808080" stop-opacity="0.25"/>
<stop offset="0.54" stop-color="#808080" stop-opacity="0.12"/>
<stop offset="1" stop-color="#808080" stop-opacity="0.1"/>
</linearGradient>
<linearGradient id="paint22_linear" x1="-18806.1" y1="96632.8" x2="-18806.1" y2="26608.8" gradientUnits="userSpaceOnUse">
<stop stop-color="#808080" stop-opacity="0.25"/>
<stop offset="0.54" stop-color="#808080" stop-opacity="0.12"/>
<stop offset="1" stop-color="#808080" stop-opacity="0.1"/>
</linearGradient>
<linearGradient id="paint23_linear" x1="-18806.1" y1="96632.8" x2="-18806.1" y2="26608.8" gradientUnits="userSpaceOnUse">
<stop stop-color="#808080" stop-opacity="0.25"/>
<stop offset="0.54" stop-color="#808080" stop-opacity="0.12"/>
<stop offset="1" stop-color="#808080" stop-opacity="0.1"/>
</linearGradient>
<clipPath id="clip0">
<rect width="227.982" height="162" fill="white"/>
</clipPath>
</defs>
</svg>
