<svg width="198" height="142" viewBox="0 0 198 142" fill="none" xmlns="http://www.w3.org/2000/svg">
<g clip-path="url(#clip0)" filter="url(#filter0_d)">
<path d="M173.435 138C185.667 138 195.584 135.581 195.584 132.598C195.584 129.614 185.667 127.196 173.435 127.196C161.202 127.196 151.286 129.614 151.286 132.598C151.286 135.581 161.202 138 173.435 138Z" fill="#000029"/>
<path d="M95.8784 18.5291V90.0197C95.878 90.8714 95.5394 91.6881 94.937 92.2902C94.3346 92.8923 93.5178 93.2305 92.6661 93.2306H63.6424C63.2205 93.2313 62.8026 93.1488 62.4126 92.9877C62.0226 92.8266 61.6683 92.5901 61.3699 92.2918C61.0715 91.9936 60.8349 91.6393 60.6736 91.2494C60.5123 90.8595 60.4296 90.4416 60.4302 90.0197V18.5291C60.4302 18.1073 60.5132 17.6896 60.6747 17.2999C60.8361 16.9101 61.0727 16.556 61.371 16.2577C61.6693 15.9594 62.0234 15.7228 62.4131 15.5614C62.8029 15.4 63.2206 15.3169 63.6424 15.3169H67.9864V15.8743C67.9864 16.5757 68.2651 17.2485 68.7611 17.7445C69.2571 18.2405 69.9299 18.5192 70.6314 18.5192H85.3921C86.0936 18.5192 86.7663 18.2405 87.2624 17.7445C87.7584 17.2485 88.0371 16.5757 88.0371 15.8743V15.3169H92.6661C93.088 15.3168 93.5058 15.3997 93.8955 15.5611C94.2853 15.7225 94.6395 15.9591 94.9378 16.2574C95.2361 16.5557 95.4727 16.9099 95.6341 17.2997C95.7955 17.6895 95.8785 18.1073 95.8784 18.5291Z" fill="#003A9E"/>
<path d="M94.6078 27.2651H61.7053V43.2909H94.6078V27.2651Z" fill="#000029"/>
<path d="M74.9525 38.2694C75.8138 41.4533 78.7639 43.4252 78.7639 43.4252C78.7639 43.4252 80.3176 40.2349 79.4563 37.051C78.595 33.8671 75.6449 31.8953 75.6449 31.8953C75.6449 31.8953 74.0912 35.0855 74.9525 38.2694Z" fill="white"/>
<path d="M76.2182 37.585C78.5816 39.8857 78.8703 43.4224 78.8703 43.4224C78.8703 43.4224 75.3271 43.2289 72.9636 40.9282C70.6002 38.6275 70.3115 35.0908 70.3115 35.0908C70.3115 35.0908 73.8547 35.2843 76.2182 37.585Z" fill="#003A9E"/>
<path d="M82.7881 38.2694C81.9268 41.4533 78.9767 43.4252 78.9767 43.4252C78.9767 43.4252 77.423 40.2349 78.2843 37.051C79.1456 33.8671 82.0957 31.8953 82.0957 31.8953C82.0957 31.8953 83.6494 35.0855 82.7881 38.2694Z" fill="white"/>
<path d="M81.5225 37.585C79.159 39.8857 78.8704 43.4224 78.8704 43.4224C78.8704 43.4224 82.4136 43.2289 84.777 40.9282C87.1404 38.6275 87.4291 35.0908 87.4291 35.0908C87.4291 35.0908 83.8859 35.2843 81.5225 37.585Z" fill="#003A9E"/>
<path d="M91.6649 52.2654H64.6479V53.7484H91.6649V52.2654Z" fill="white"/>
<path d="M91.6649 54.6548H64.6479V56.1378H91.6649V54.6548Z" fill="white"/>
<path d="M91.6649 57.0439H64.6479V58.527H91.6649V57.0439Z" fill="white"/>
<path d="M91.6649 59.4333H64.6479V60.9164H91.6649V59.4333Z" fill="white"/>
<path d="M83.2957 72.2136L77.2822 67.9446L73.0132 73.9581L79.0267 78.227L83.2957 72.2136Z" fill="white"/>
<path d="M78.9724 79.7777C78.6358 79.7777 78.3067 79.6779 78.0269 79.4909C77.747 79.3039 77.5289 79.0381 77.4001 78.7271C77.2712 78.4162 77.2375 78.074 77.3032 77.7439C77.3689 77.4137 77.531 77.1105 77.769 76.8725C78.007 76.6345 78.3102 76.4724 78.6404 76.4067C78.9705 76.3411 79.3127 76.3748 79.6236 76.5036C79.9346 76.6324 80.2004 76.8505 80.3874 77.1304C80.5744 77.4102 80.6742 77.7393 80.6742 78.0759C80.6737 78.5271 80.4942 78.9596 80.1752 79.2787C79.8562 79.5977 79.4236 79.7772 78.9724 79.7777ZM78.9724 76.6577C78.6919 76.6577 78.4177 76.7408 78.1844 76.8967C77.9512 77.0525 77.7694 77.274 77.6621 77.5332C77.5548 77.7923 77.5267 78.0775 77.5814 78.3526C77.6361 78.6277 77.7712 78.8804 77.9695 79.0787C78.1679 79.277 78.4206 79.4121 78.6957 79.4668C78.9708 79.5216 79.256 79.4935 79.5151 79.3861C79.7742 79.2788 79.9957 79.097 80.1516 78.8638C80.3074 78.6306 80.3906 78.3564 80.3906 78.0759C80.3902 77.6999 80.2406 77.3394 79.9747 77.0735C79.7089 76.8076 79.3484 76.6581 78.9724 76.6577Z" fill="#66667F"/>
<path d="M37.4482 3.21225V74.7029C37.4478 75.5545 37.1092 76.3712 36.5068 76.9733C35.9045 77.5754 35.0876 77.9137 34.2359 77.9137H5.21225C4.79032 77.9144 4.3724 77.8319 3.98243 77.6708C3.59247 77.5097 3.23812 77.2733 2.93971 76.975C2.6413 76.6767 2.40468 76.3225 2.24343 75.9326C2.08218 75.5427 1.99945 75.1248 2 74.7029V3.21225C1.99998 2.79041 2.08306 2.37269 2.24448 1.98296C2.40591 1.59322 2.64252 1.2391 2.94081 0.940809C3.23909 0.64252 3.59322 0.405908 3.98295 0.244483C4.37269 0.0830585 4.79041 -1.73306e-05 5.21225 1.69917e-07H9.55623V0.557366C9.55623 1.25885 9.8349 1.93161 10.3309 2.42763C10.827 2.92366 11.4997 3.20233 12.2012 3.20233H26.9619C27.6634 3.20233 28.3362 2.92366 28.8322 2.42763C29.3282 1.9316 29.6069 1.25885 29.6069 0.557366V1.69917e-07H34.2359C34.6578 -0.000137065 35.0756 0.0828564 35.4654 0.244239C35.8552 0.405621 36.2093 0.642229 36.5077 0.940541C36.806 1.23885 37.0426 1.59302 37.204 1.98281C37.3653 2.3726 37.4483 2.79037 37.4482 3.21225Z" fill="#F9F9F9"/>
<path d="M33.7666 39.0364H5.40234V13.6504H33.7666V39.0364ZM5.68598 38.7527H33.4829V13.934H5.68598V38.7527Z" fill="#66667F"/>
<path d="M5.63851 13.6865L5.44946 13.8979L33.5301 39.0003L33.7191 38.7888L5.63851 13.6865Z" fill="#66667F"/>
<path d="M33.5305 13.6867L5.44946 38.7886L5.63851 39.0001L33.7195 13.8982L33.5305 13.6867Z" fill="#66667F"/>
<path d="M33.6248 46.4111H5.54419V46.6948H33.6248V46.4111Z" fill="#66667F"/>
<path d="M33.6248 48.9639H5.54419V49.2475H33.6248V48.9639Z" fill="#66667F"/>
<path d="M33.6248 51.5166H5.54419V51.8002H33.6248V51.5166Z" fill="#66667F"/>
<path d="M19.5845 54.0693H5.54419V54.353H19.5845V54.0693Z" fill="#66667F"/>
<path d="M19.5845 56.6221H5.54419V56.9057H19.5845V56.6221Z" fill="#66667F"/>
<path d="M154.167 3.21225V74.7029C154.167 75.5545 153.828 76.3712 153.226 76.9733C152.623 77.5754 151.806 77.9137 150.955 77.9137H121.931C121.509 77.9144 121.091 77.8319 120.701 77.6708C120.311 77.5097 119.957 77.2733 119.658 76.975C119.36 76.6767 119.123 76.3225 118.962 75.9326C118.801 75.5427 118.718 75.1248 118.719 74.7029V3.21225C118.719 2.79041 118.802 2.37269 118.963 1.98296C119.125 1.59322 119.361 1.2391 119.66 0.940811C119.958 0.642522 120.312 0.405909 120.702 0.244484C121.091 0.0830597 121.509 -1.68564e-05 121.931 1.71088e-07H126.275V0.557366C126.275 1.25885 126.554 1.93161 127.05 2.42763C127.546 2.92366 128.218 3.20233 128.92 3.20233H143.681C144.382 3.20233 145.055 2.92366 145.551 2.42763C146.047 1.9316 146.326 1.25885 146.326 0.557366V1.71088e-07H150.955C151.377 -0.000137537 151.794 0.0828566 152.184 0.244239C152.574 0.40562 152.928 0.642227 153.226 0.94054C153.525 1.23885 153.761 1.59302 153.923 1.98281C154.084 2.3726 154.167 2.79037 154.167 3.21225Z" fill="#F9F9F9"/>
<path d="M150.627 36.6255H122.547V36.9091H150.627V36.6255Z" fill="#66667F"/>
<path d="M150.627 44H122.547V44.2836H150.627V44Z" fill="#66667F"/>
<path d="M150.627 51.3748H122.547V51.6584H150.627V51.3748Z" fill="#66667F"/>
<path d="M135.838 25.8582C138.384 25.8582 140.448 23.7941 140.448 21.2479C140.448 18.7018 138.384 16.6377 135.838 16.6377C133.292 16.6377 131.228 18.7018 131.228 21.2479C131.228 23.7941 133.292 25.8582 135.838 25.8582Z" fill="#003A9E"/>
<path d="M145.522 35.3491H143.536V39.8874H145.522V35.3491Z" fill="#003A9E"/>
<path d="M128.078 42.5818H126.092V47.12H128.078V42.5818Z" fill="#003A9E"/>
<path d="M139.707 49.8147H137.721V54.353H139.707V49.8147Z" fill="#003A9E"/>
<path d="M136.443 26.4143C135.321 26.4143 134.224 26.0816 133.291 25.4582C132.358 24.8349 131.631 23.9489 131.202 22.9124C130.772 21.8758 130.66 20.7352 130.879 19.6347C131.098 18.5343 131.638 17.5235 132.432 16.7301C133.225 15.9368 134.236 15.3965 135.336 15.1776C136.437 14.9587 137.577 15.0711 138.614 15.5004C139.65 15.9298 140.536 16.6569 141.16 17.5898C141.783 18.5227 142.116 19.6195 142.116 20.7415C142.114 22.2455 141.516 23.6874 140.452 24.7509C139.389 25.8144 137.947 26.4126 136.443 26.4143ZM136.443 15.3522C135.377 15.3522 134.335 15.6683 133.449 16.2605C132.563 16.8527 131.872 17.6943 131.464 18.6791C131.056 19.6638 130.949 20.7474 131.157 21.7928C131.365 22.8382 131.878 23.7985 132.632 24.5522C133.386 25.3059 134.346 25.8191 135.391 26.0271C136.437 26.235 137.52 26.1283 138.505 25.7204C139.49 25.3125 140.332 24.6218 140.924 23.7355C141.516 22.8493 141.832 21.8073 141.832 20.7414C141.83 19.3126 141.262 17.9428 140.252 16.9325C139.242 15.9222 137.872 15.3539 136.443 15.3522V15.3522Z" fill="#66667F"/>
<path d="M41.2801 37.5034L41.0024 37.7327L52.3825 51.5151L52.6602 51.2858L41.2801 37.5034Z" fill="#66667F"/>
<path d="M53.9052 53.0768C52.9614 52.5298 51.6542 51.9635 50.6245 51.7936L52.3397 51.1808L53.2658 49.6128C53.2377 50.656 53.5464 52.0468 53.9052 53.0768Z" fill="#66667F"/>
<path d="M114.748 37.5024L103.371 51.2874L103.649 51.5167L115.026 37.7317L114.748 37.5024Z" fill="#66667F"/>
<path d="M102.124 53.0768C102.483 52.0465 102.791 50.6558 102.763 49.6125L103.69 51.1808L105.405 51.7934C104.375 51.9633 103.068 52.5295 102.124 53.0768Z" fill="#66667F"/>
<path d="M185.05 68.0418C185.05 68.0418 185.05 94.3324 180.908 103.876L171.364 125.305C171.364 125.305 165.241 124.945 164.881 122.424L172.084 100.095L176.406 86.9494L177.486 66.4211L185.05 68.0418Z" fill="#000029"/>
<path d="M179.107 68.762L177.487 79.7465L178.567 103.876L179.107 117.202C179.107 117.202 181.268 123.144 180.548 123.684L179.107 124.765C179.107 124.765 173.345 124.044 173.165 123.684C172.985 123.324 169.563 96.1331 169.563 96.1331C169.563 96.1331 162.54 74.1642 162.901 73.8041C163.261 73.4439 164.881 68.0417 164.881 68.0417L179.107 68.762Z" fill="#000029"/>
<path d="M180.368 122.964L181.088 127.106C181.088 127.106 183.069 135.569 181.088 135.569C179.107 135.569 175.506 133.228 175.326 131.787C175.145 130.347 175.686 123.864 175.686 123.864L180.368 122.964Z" fill="#66667F"/>
<path d="M171.184 124.404C171.184 124.404 172.624 127.286 173.525 127.646C174.425 128.006 178.525 130.362 176.115 131.885C173.705 133.408 171.184 131.968 171.184 131.968L162.9 127.466C162.9 127.466 163.981 122.964 165.601 122.604C167.222 122.244 171.184 124.404 171.184 124.404Z" fill="#66667F"/>
<path d="M169.383 28.2455C172.963 28.2455 175.866 25.3432 175.866 21.7629C175.866 18.1826 172.963 15.2803 169.383 15.2803C165.803 15.2803 162.9 18.1826 162.9 21.7629C162.9 25.3432 165.803 28.2455 169.383 28.2455Z" fill="#FFB8B8"/>
<path d="M174.785 22.3032C174.785 22.3032 176.046 30.5866 177.306 31.667C178.567 32.7474 174.605 36.529 172.804 36.3489C171.004 36.1688 169.023 32.2072 169.023 32.2072C169.023 32.2072 169.563 26.9851 168.663 25.5445C167.762 24.104 174.785 22.3032 174.785 22.3032Z" fill="#FFB8B8"/>
<path d="M173.345 32.9275L176.403 30.1042C177.387 31.3408 178.614 32.3629 180.008 33.1075C182.349 34.3681 175.506 47.3333 175.506 47.3333L164.521 33.6478C164.521 33.6478 168.015 31.3254 169.149 30.4158L173.345 32.9275Z" fill="#66667F"/>
<path d="M175.145 43.9119C175.145 43.9119 179.971 35.4991 179.449 32.7727C179.449 32.7727 186.49 34.5481 186.85 36.8891C187.21 39.23 183.429 47.6935 183.429 47.6935C183.429 47.6935 186.49 69.1221 184.689 69.3022C182.889 69.4823 164.881 69.6624 164.521 68.762C164.161 67.8616 164.881 65.1605 163.801 64.2602C162.72 63.3598 161.46 63.9 162 62.4594C162.54 61.0189 164.881 59.2181 164.161 58.1377C163.441 57.0573 163.261 57.4174 163.441 56.6971C163.621 55.9768 163.081 46.433 163.081 46.433C163.081 46.433 159.299 35.9887 160.199 35.2684C161.1 34.5481 165.823 32.7727 165.823 32.7727L175.145 43.9119Z" fill="#66667F"/>
<path d="M189.551 72.0034C189.551 72.0034 189.011 79.2063 185.95 78.8462C182.889 78.486 186.49 70.7429 186.49 70.7429L189.551 72.0034Z" fill="#FFB8B8"/>
<path d="M162.72 71.8231C162.72 71.8231 163.801 76.1449 165.061 75.7847V70.7427L164.521 69.8423L162.72 71.8231Z" fill="#FFB8B8"/>
<path d="M174.67 22.6956C174.653 22.5091 174.59 22.3299 174.485 22.1743C174.38 22.0558 174.244 21.9692 174.091 21.9246C173.69 21.8002 173.257 21.8228 172.87 21.9885C172.483 22.1542 172.168 22.4521 171.981 22.8288C171.815 23.1914 171.735 23.6584 171.371 23.8199C170.947 24.0077 170.476 23.608 170.31 23.1753C170.143 22.7426 170.139 22.2522 169.917 21.8452C169.654 21.3626 169.121 21.0781 168.584 20.9641C168.138 20.8696 167.592 20.8201 167.391 20.4113C167.326 20.2551 167.299 20.0859 167.31 19.9171C167.315 19.3152 167.424 18.7187 167.632 18.1539C165.868 17.8016 164.298 19.5232 162.5 19.551C162.272 19.5643 162.044 19.5196 161.838 19.4213C161.439 19.2081 161.265 18.7355 161.145 18.2993C161.017 17.8359 160.912 17.3671 160.83 16.8929L161.406 17.1571C161.245 16.8503 161.157 16.5107 161.149 16.1645C161.446 16.1335 161.747 16.1588 162.035 16.2392L162.077 15.2067C162.522 15.771 163.409 15.5727 164.079 15.3114C165.371 14.8072 166.657 14.2615 168.013 13.9705C169.37 13.6795 170.823 13.6581 172.106 14.1867C173.454 14.7422 174.493 15.847 175.409 16.9817C175.916 17.6106 176.406 18.2717 176.68 19.0319C177.023 20.0613 177.019 21.1744 176.67 22.2014C176.374 23.1259 175.825 24.2441 175.087 24.8848C174.828 24.2304 174.793 23.3957 174.67 22.6956Z" fill="#000029"/>
<path d="M162.36 34.7283L160.019 35.2685C160.019 35.2685 157.318 38.1497 157.138 40.8507C156.958 43.5518 156.958 57.0573 156.958 57.0573L160.379 68.2218C160.379 68.2218 160.019 70.7428 160.379 70.7428C160.74 70.7428 160.92 70.2026 160.92 70.9229C160.92 71.6432 160.019 70.9229 160.92 71.6432L162.72 73.0838L165.73 69.0937C165.73 69.0937 165.962 67.5015 165.421 67.1414C164.881 66.7812 164.881 66.6012 165.061 66.0609C165.241 65.5207 165.602 65.3406 165.421 64.9805C165.241 64.6204 164.701 64.0801 164.701 63.72C164.701 63.3598 164.701 62.9997 164.521 62.8196C164.341 62.6396 163.08 58.3178 163.08 58.3178L163.801 44.2721L162.36 34.7283Z" fill="#66667F"/>
<path d="M185.05 35.6287L186.85 36.529C186.85 36.529 189.731 45.1725 189.731 52.7356C189.731 60.2986 190.272 65.3407 190.272 65.3407C190.272 65.3407 191.172 67.5016 190.812 67.5016C190.452 67.5016 190.092 67.5016 190.452 68.0418C190.812 68.582 190.992 68.4019 190.812 68.9421C190.632 69.4824 190.452 68.582 190.632 69.4824C190.812 70.3827 190.632 70.7429 190.272 70.7429C189.911 70.7429 189.911 73.0838 189.911 73.0838L185.59 71.4632C185.59 71.4632 186.31 70.5628 186.13 70.2027C186.02 69.9777 185.959 69.7324 185.95 69.4824C185.95 69.4824 186.85 69.3023 185.95 68.9421C185.05 68.582 185.41 68.582 185.59 67.5016C185.77 66.4211 186.31 66.6012 185.77 66.4211C185.23 66.2411 181.988 49.4943 181.988 49.4943L185.05 35.6287Z" fill="#66667F"/>
<path d="M173.342 33.5257C173.64 33.5257 173.882 33.2839 173.882 32.9855C173.882 32.6872 173.64 32.4453 173.342 32.4453C173.044 32.4453 172.802 32.6872 172.802 32.9855C172.802 33.2839 173.044 33.5257 173.342 33.5257Z" fill="#000029"/>
<path d="M173.342 35.3263C173.64 35.3263 173.882 35.0844 173.882 34.7861C173.882 34.4877 173.64 34.2458 173.342 34.2458C173.044 34.2458 172.802 34.4877 172.802 34.7861C172.802 35.0844 173.044 35.3263 173.342 35.3263Z" fill="#000029"/>
</g>
<defs>
<filter id="filter0_d" x="0" y="0" width="197.584" height="142" filterUnits="userSpaceOnUse" color-interpolation-filters="sRGB">
<feFlood flood-opacity="0" result="BackgroundImageFix"/>
<feColorMatrix in="SourceAlpha" type="matrix" values="0 0 0 0 0 0 0 0 0 0 0 0 0 0 0 0 0 0 127 0"/>
<feOffset dy="2"/>
<feGaussianBlur stdDeviation="1"/>
<feColorMatrix type="matrix" values="0 0 0 0 0 0 0 0 0 0 0 0 0 0 0 0 0 0 0.15 0"/>
<feBlend mode="normal" in2="BackgroundImageFix" result="effect1_dropShadow"/>
<feBlend mode="normal" in="SourceGraphic" in2="effect1_dropShadow" result="shape"/>
</filter>
<clipPath id="clip0">
<rect width="193.584" height="138" fill="white" transform="translate(2)"/>
</clipPath>
</defs>
</svg>
