<svg width="183" height="138" viewBox="0 0 183 138" fill="none" xmlns="http://www.w3.org/2000/svg">
<g clip-path="url(#clip0)">
<path d="M138.927 133.038C138.902 132.998 138.319 132.025 138.117 130.005C137.932 128.151 138.051 125.027 139.671 120.669C142.741 112.413 138.964 105.752 138.925 105.686L139.112 105.578C139.839 106.97 140.364 108.458 140.672 109.997C141.432 113.583 141.155 117.311 139.873 120.744C136.809 128.986 139.087 132.887 139.11 132.926L138.927 133.038Z" fill="#004DD1"/>
<path d="M137.726 105.201C138.499 105.201 139.126 104.575 139.126 103.801C139.126 103.028 138.499 102.402 137.726 102.402C136.953 102.402 136.326 103.028 136.326 103.801C136.326 104.575 136.953 105.201 137.726 105.201Z" fill="#000029"/>
<path d="M142.141 110.37C142.914 110.37 143.541 109.743 143.541 108.97C143.541 108.197 142.914 107.57 142.141 107.57C141.368 107.57 140.741 108.197 140.741 108.97C140.741 109.743 141.368 110.37 142.141 110.37Z" fill="#000029"/>
<path d="M139.126 113.815C139.899 113.815 140.526 113.189 140.526 112.416C140.526 111.643 139.899 111.016 139.126 111.016C138.353 111.016 137.726 111.643 137.726 112.416C137.726 113.189 138.353 113.815 139.126 113.815Z" fill="#004DD1"/>
<path d="M142.787 116.723C143.56 116.723 144.187 116.096 144.187 115.323C144.187 114.55 143.56 113.923 142.787 113.923C142.014 113.923 141.387 114.55 141.387 115.323C141.387 116.096 142.014 116.723 142.787 116.723Z" fill="#004DD1"/>
<path d="M138.049 121.245C138.822 121.245 139.449 120.618 139.449 119.845C139.449 119.072 138.822 118.446 138.049 118.446C137.276 118.446 136.649 119.072 136.649 119.845C136.649 120.618 137.276 121.245 138.049 121.245Z" fill="#000029"/>
<path d="M139.772 133.09C139.772 133.09 138.372 129.644 142.572 127.06L139.772 133.09Z" fill="#004DD1"/>
<path d="M138.051 133.027C138.051 133.027 137.414 129.363 132.483 129.394L138.051 133.027Z" fill="#004DD1"/>
<path d="M147.723 138C166.772 138 182.214 136.445 182.214 134.526C182.214 132.608 166.772 131.053 147.723 131.053C128.674 131.053 113.231 132.608 113.231 134.526C113.231 136.445 128.674 138 147.723 138Z" fill="#000029"/>
<path d="M144.771 0H0V92.718H144.771V0Z" fill="#003A9E"/>
<path d="M4.50858 4.20223C5.13815 4.20223 5.64852 3.69186 5.64852 3.0623C5.64852 2.43273 5.13815 1.92236 4.50858 1.92236C3.87902 1.92236 3.36865 2.43273 3.36865 3.0623C3.36865 3.69186 3.87902 4.20223 4.50858 4.20223Z" fill="#004DD1"/>
<path d="M8.83549 4.20223C9.46506 4.20223 9.97542 3.69186 9.97542 3.0623C9.97542 2.43273 9.46506 1.92236 8.83549 1.92236C8.20592 1.92236 7.69556 2.43273 7.69556 3.0623C7.69556 3.69186 8.20592 4.20223 8.83549 4.20223Z" fill="#004DD1"/>
<path d="M13.1624 4.20223C13.792 4.20223 14.3023 3.69186 14.3023 3.0623C14.3023 2.43273 13.792 1.92236 13.1624 1.92236C12.5328 1.92236 12.0225 2.43273 12.0225 3.0623C12.0225 3.69186 12.5328 4.20223 13.1624 4.20223Z" fill="#004DD1"/>
<path d="M112.083 38.0281H87.2883V39.4514H112.083V38.0281Z" fill="white"/>
<path d="M125.577 43.22H87.2883V44.6433H125.577V43.22Z" fill="#000029"/>
<path d="M118.493 48.1118H87.2883V49.5352H118.493V48.1118Z" fill="white"/>
<path d="M105.505 52.9849H87.2883V54.4082H105.505V52.9849Z" fill="white"/>
<path d="M114.782 57.8577H87.2883V59.281H114.782V57.8577Z" fill="white"/>
<path d="M79.0232 37.5222H75.9871V40.5583H79.0232V37.5222Z" fill="white"/>
<path d="M79.0232 42.4136H75.9871V45.4497H79.0232V42.4136Z" fill="#000029"/>
<path d="M79.0232 47.3054H75.9871V50.3416H79.0232V47.3054Z" fill="white"/>
<path d="M79.0232 52.1968H75.9871V55.2329H79.0232V52.1968Z" fill="white"/>
<path d="M79.0232 57.0884H75.9871V60.1245H79.0232V57.0884Z" fill="white"/>
<path d="M115.716 57.0153H108.864C108.396 54.3119 108.396 51.5483 108.864 48.845H115.716C114.944 51.5137 114.944 54.3465 115.716 57.0153Z" fill="#000029"/>
<path d="M37.8727 63.7262C48.0402 63.7262 56.2825 55.4838 56.2825 45.3163C56.2825 35.1489 48.0402 26.9065 37.8727 26.9065C27.7052 26.9065 19.4629 35.1489 19.4629 45.3163C19.4629 55.4838 27.7052 63.7262 37.8727 63.7262Z" fill="white"/>
<path d="M38.9014 27.9456H36.8438V25.8879H38.9014V27.9456ZM37.2553 27.5341H38.4899V26.2995H37.2553V27.5341Z" fill="white"/>
<path d="M49.4439 26.7109H38.5383V27.1225H49.4439V26.7109Z" fill="white"/>
<path d="M49.4439 27.3452C49.6806 27.3452 49.8725 27.1533 49.8725 26.9166C49.8725 26.6799 49.6806 26.488 49.4439 26.488C49.2073 26.488 49.0154 26.6799 49.0154 26.9166C49.0154 27.1533 49.2073 27.3452 49.4439 27.3452Z" fill="white"/>
<path d="M37.098 26.7109H26.3982V27.1225H37.098V26.7109Z" fill="white"/>
<path d="M26.3983 27.3452C26.635 27.3452 26.8268 27.1533 26.8268 26.9166C26.8268 26.6799 26.635 26.488 26.3983 26.488C26.1616 26.488 25.9697 26.6799 25.9697 26.9166C25.9697 27.1533 26.1616 27.3452 26.3983 27.3452Z" fill="white"/>
<path d="M57.263 46.2967H55.2053V44.239H57.263V46.2967ZM55.6169 45.8851H56.8515V44.6505H55.6169V45.8851Z" fill="white"/>
<path d="M56.4399 46.1394H56.0283V56.8392H56.4399V46.1394Z" fill="white"/>
<path d="M56.2342 57.2677C56.4709 57.2677 56.6628 57.0759 56.6628 56.8392C56.6628 56.6025 56.4709 56.4106 56.2342 56.4106C55.9975 56.4106 55.8057 56.6025 55.8057 56.8392C55.8057 57.0759 55.9975 57.2677 56.2342 57.2677Z" fill="white"/>
<path d="M56.4399 33.7935H56.0283V44.4932H56.4399V33.7935Z" fill="white"/>
<path d="M56.2342 34.2221C56.4709 34.2221 56.6628 34.0302 56.6628 33.7936C56.6628 33.5569 56.4709 33.365 56.2342 33.365C55.9975 33.365 55.8057 33.5569 55.8057 33.7936C55.8057 34.0302 55.9975 34.2221 56.2342 34.2221Z" fill="white"/>
<path d="M20.4309 46.2967H18.3733V44.239H20.4309V46.2967ZM18.7848 45.8851H20.0194V44.6505H18.7848V45.8851Z" fill="white"/>
<path d="M19.6081 46.1394H19.1965V56.8392H19.6081V46.1394Z" fill="white"/>
<path d="M19.4022 57.2677C19.6389 57.2677 19.8307 57.0759 19.8307 56.8392C19.8307 56.6025 19.6389 56.4106 19.4022 56.4106C19.1655 56.4106 18.9736 56.6025 18.9736 56.8392C18.9736 57.0759 19.1655 57.2677 19.4022 57.2677Z" fill="white"/>
<path d="M19.6081 33.3818H19.1965V44.4931H19.6081V33.3818Z" fill="white"/>
<path d="M19.4022 34.2221C19.6389 34.2221 19.8307 34.0302 19.8307 33.7936C19.8307 33.5569 19.6389 33.365 19.4022 33.365C19.1655 33.365 18.9736 33.5569 18.9736 33.7936C18.9736 34.0302 19.1655 34.2221 19.4022 34.2221Z" fill="white"/>
<path d="M38.9014 64.7774H36.8438V62.7197H38.9014V64.7774ZM37.2553 64.3658H38.4899V63.1313H37.2553V64.3658Z" fill="white"/>
<path d="M49.6497 63.5427H38.7441V63.9543H49.6497V63.5427Z" fill="white"/>
<path d="M49.4439 64.1772C49.6806 64.1772 49.8725 63.9853 49.8725 63.7486C49.8725 63.5119 49.6806 63.3201 49.4439 63.3201C49.2073 63.3201 49.0154 63.5119 49.0154 63.7486C49.0154 63.9853 49.2073 64.1772 49.4439 64.1772Z" fill="white"/>
<path d="M37.098 63.5427H26.3982V63.9543H37.098V63.5427Z" fill="white"/>
<path d="M26.3983 64.1772C26.635 64.1772 26.8268 63.9853 26.8268 63.7486C26.8268 63.5119 26.635 63.3201 26.3983 63.3201C26.1616 63.3201 25.9697 63.5119 25.9697 63.7486C25.9697 63.9853 26.1616 64.1772 26.3983 64.1772Z" fill="white"/>
<path d="M48.1002 73.182H40.1229C39.5785 70.0349 39.5785 66.8177 40.1229 63.6707H48.1002C47.2015 66.7774 47.2015 70.0752 48.1002 73.182Z" fill="white"/>
<path d="M153.684 71.2188L151.816 78.1565C151.816 78.1565 150.882 83.7601 152.483 83.8936C154.084 84.027 153.684 78.29 153.684 78.29L156.752 73.4869L153.684 71.2188Z" fill="#FBBEBE"/>
<path d="M167.559 74.8466V72.6731L154.887 71.8191L152.883 84.6277C152.883 84.6277 152.616 97.3973 153.55 103.918C154.484 110.439 156.352 125.654 156.352 125.654H164.891L162.756 94.0012L172.362 125.654L182.369 124.431L170.761 87.0729C170.761 87.0729 170.895 80.1447 167.559 74.8466Z" fill="#000029"/>
<path d="M157.419 124.186L156.885 128.322L156.085 131.257C156.085 131.257 152.349 132.058 154.617 133.392C156.885 134.726 159.02 133.392 159.02 133.392L160.755 130.99V135.126H163.423V129.256L161.422 124.853L157.419 124.186Z" fill="#000029"/>
<path d="M173.963 124.186L173.43 128.322L172.629 131.257C172.629 131.257 168.893 132.058 171.161 133.392C173.43 134.726 175.564 133.392 175.564 133.392L177.299 130.99V135.126H179.967V129.256L177.966 124.853L173.963 124.186Z" fill="#000029"/>
<path d="M162.289 49.5381C164.794 49.5381 166.825 47.5071 166.825 45.0018C166.825 42.4965 164.794 40.4656 162.289 40.4656C159.784 40.4656 157.753 42.4965 157.753 45.0018C157.753 47.5071 159.784 49.5381 162.289 49.5381Z" fill="#FBBEBE"/>
<path d="M165.291 46.9365L169.027 51.4726L164.491 53.2072L162.356 48.9378L165.291 46.9365Z" fill="#FBBEBE"/>
<path d="M163.023 51.7395L163.668 51.5621C163.668 51.5621 167.026 49.4713 167.959 49.6048C168.893 49.7382 171.829 52.6734 171.295 56.676C170.761 60.6785 171.829 75.6215 169.694 75.0878C167.559 74.5541 166.892 74.1539 166.892 74.1539L164.357 72.9531L161.956 73.6202C161.956 73.6202 160.488 72.6862 159.287 72.9531C158.086 73.2199 154.217 71.8857 154.217 71.8857L163.023 51.7395Z" fill="#004DD1"/>
<path d="M163.971 52.1671C163.971 52.1671 160.955 50.7387 159.621 52.8734C158.287 55.0081 154.551 66.3487 154.551 66.3487L152.816 71.5521L157.086 74.087L165.491 58.6104C165.491 58.6104 166.719 53.9958 163.971 52.1671Z" fill="#004DD1"/>
<path d="M161.815 45.7095C161.53 45.2706 161.674 44.6739 161.474 44.1903C161.16 43.4308 160.185 43.2529 159.366 43.1836C158.823 43.114 158.274 43.1155 157.732 43.188C157.492 43.2278 157.265 43.3228 157.069 43.4654C156.872 43.6079 156.711 43.7942 156.599 44.0096C156.478 44.2525 156.508 43.4913 156.586 42.514C156.664 41.5167 157.058 40.5702 157.709 39.8107C158.36 39.0512 159.235 38.518 160.209 38.2879C160.22 38.2852 160.232 38.2825 160.243 38.2799C161.24 38.0499 162.268 37.8807 163.284 38C164.3 38.1194 165.313 38.5581 165.947 39.361C166.237 39.728 166.442 40.1608 166.766 40.4984C167.334 41.0916 168.177 41.3075 168.951 41.5827C169.839 41.8689 170.656 42.3401 171.348 42.9652C172.042 43.5997 172.458 44.4822 172.506 45.4214C172.522 46.5052 171.833 47.6237 170.722 47.8374C170.529 47.8711 170.346 47.9498 170.189 48.0673C169.128 48.8897 170.339 49.7507 170.33 50.6766C170.323 51.4493 169.463 51.9528 168.691 51.9888C167.97 52.0018 167.266 51.7634 166.701 51.3145C166.136 50.8656 165.745 50.2341 165.594 49.5283C165.478 48.8943 165.568 48.243 165.643 47.6029C165.73 46.87 164.152 45.1445 165.194 46.4093C165.398 46.6497 165.535 46.9389 165.593 47.2485C165.766 48.2589 164.847 48.5987 164.267 49.1586C163.949 49.4753 163.725 49.8748 163.623 50.3119C163.52 50.749 163.542 51.2062 163.685 51.6316C163.207 51.1984 162.895 50.612 162.803 49.9734C162.712 49.3348 162.845 48.6842 163.182 48.1338C163.369 47.8473 163.609 47.5981 163.787 47.3056C164.063 46.8492 164.139 45.8563 163.366 45.8836C162.813 45.9031 162.24 46.3628 161.815 45.7095Z" fill="#000029"/>
<path opacity="0.2" d="M163.89 63.1467L157.753 72.8588L163.561 62.1633L163.89 63.1467Z" fill="#000029"/>
<path d="M123.819 124.259H113.734V134.344H123.819V124.259Z" fill="#004DD1"/>
<path d="M125.527 130.021H120.495V135.053H125.527V130.021Z" fill="#004DD1"/>
<path d="M140.494 87.8207H4.27759V6.54346H140.494V87.8207ZM4.68912 87.4091H140.083V6.95499H4.68912V87.4091Z" fill="white"/>
</g>
<defs>
<clipPath id="clip0">
<rect width="182.369" height="138" fill="white"/>
</clipPath>
</defs>
</svg>
