<svg width="222" height="142" viewBox="0 0 222 142" fill="none" xmlns="http://www.w3.org/2000/svg">
<g clip-path="url(#clip0)">
<path opacity="0.5" d="M208.123 121.539C207.723 119.887 206.408 118.642 205.44 117.243C204.277 115.519 203.597 113.514 203.471 111.438C203.345 109.361 203.779 107.289 204.726 105.437C205.657 103.666 207.116 101.835 206.587 99.9007C206.234 98.5998 205.058 97.7084 203.904 97.0103C199.519 94.3695 194.458 93.0679 189.343 93.2658C183.073 93.5218 176.825 96.0259 170.676 94.7855C164.688 93.573 159.615 90.5709 153.35 90.2148C148.67 89.9495 144.041 90.2474 139.352 89.7354C127.765 88.4785 116.093 88.1998 104.46 88.9022C92.827 88.1999 81.1558 88.4786 69.57 89.7354C64.8923 90.2474 60.2611 89.9495 55.5717 90.2148C49.2882 90.5685 44.2265 93.5753 38.2363 94.7855C32.0854 96.0282 25.8392 93.5218 19.5696 93.2658C14.4546 93.0679 9.39329 94.3695 5.00822 97.0103C3.84461 97.7084 2.681 98.5998 2.32494 99.9007C1.79899 101.832 3.25583 103.664 4.18672 105.437C5.13445 107.289 5.56849 109.361 5.44365 111.437C5.31882 113.513 4.63967 115.518 3.47691 117.243C2.50879 118.639 1.19391 119.887 0.793628 121.539C-0.0115899 124.862 3.21859 127.79 6.37896 129.11C15.0013 132.714 25.4878 130.971 33.3747 135.991C36.9098 138.244 40.0026 141.86 44.1916 141.995C47.0239 142.086 49.6001 140.513 52.0739 139.128C55.7759 137.056 59.6457 135.299 63.6425 133.876C67.1334 132.633 70.8313 131.637 74.5153 132.049C80.1402 132.67 104.455 144.418 115.416 137.476C122.924 132.717 128.779 132.677 134.418 132.047C138.102 131.635 141.798 132.631 145.291 133.873C149.288 135.296 153.157 137.054 156.859 139.126C159.331 140.511 161.909 142.084 164.742 141.993C168.931 141.858 172.024 138.242 175.559 135.989C183.441 130.967 193.925 132.712 202.554 129.107C205.698 127.783 208.931 124.865 208.123 121.539Z" fill="url(#paint0_linear)"/>
<path d="M206.983 121.472C206.587 119.843 205.286 118.605 204.33 117.222C203.182 115.516 202.511 113.533 202.388 111.48C202.266 109.426 202.695 107.378 203.632 105.547C204.563 103.794 205.996 101.984 205.475 100.073C205.124 98.7859 203.962 97.9039 202.822 97.2151C198.485 94.6028 193.48 93.315 188.421 93.5101C182.221 93.7615 176.043 96.24 169.959 95.0112C164.034 93.815 159.021 90.8408 152.815 90.4894C148.186 90.2288 143.599 90.522 138.972 90.024C127.513 88.7809 115.97 88.5054 104.464 89.2001C92.9589 88.5054 81.4154 88.7809 69.9563 90.024C65.3298 90.5313 60.7428 90.2357 56.114 90.4894C49.9096 90.8385 44.8944 93.8127 38.9693 95.0112C32.8883 96.24 26.7072 93.7615 20.5075 93.5101C15.4487 93.315 10.4432 94.6028 6.10665 97.2151C4.96631 97.9132 3.80503 98.7859 3.45362 100.073C2.93232 101.984 4.38451 103.796 5.29678 105.547C6.23359 107.378 6.66291 109.426 6.54013 111.48C6.41736 113.533 5.74696 115.516 4.59861 117.222C3.6398 118.605 2.34121 119.836 1.94558 121.472C1.12872 124.758 4.324 127.653 7.4448 128.947C15.9741 132.51 26.3442 130.785 34.138 135.752C37.6289 137.979 40.6938 141.558 44.8432 141.691C47.6359 141.781 50.1958 140.224 52.6394 138.854C56.3011 136.803 60.1289 135.065 64.0824 133.657C67.5383 132.426 71.192 131.441 74.8365 131.849C80.4218 132.472 104.462 144.083 115.293 137.218C122.719 132.512 128.509 132.472 134.085 131.849C137.73 131.441 141.386 132.426 144.839 133.657C148.793 135.065 152.621 136.803 156.282 138.854C158.728 140.222 161.276 141.779 164.078 141.691C168.221 141.558 171.281 137.981 174.784 135.752C182.58 130.785 192.95 132.51 201.477 128.947C204.586 127.653 207.781 124.758 206.983 121.472Z" fill="#003A9E"/>
<path opacity="0.6" d="M8.13136 51.0174C8.79695 50.7847 9.50442 50.5636 10.2003 50.6846C11.3639 50.8871 12.1807 51.9902 12.5275 53.1235C12.8742 54.2569 12.8626 55.4508 13.0837 56.6144C13.3048 57.778 13.8331 58.9812 14.8756 59.5374C15.9182 60.0936 17.1493 59.8748 18.306 59.7398C19.823 59.5649 21.3543 59.5508 22.8743 59.6979C24.1496 59.8213 25.6484 60.2518 26.023 61.4783C26.3302 62.479 25.7205 63.5006 25.3249 64.4664C24.5662 66.2723 24.5057 68.4064 25.3737 70.1611C26.2418 71.9158 28.0012 73.2237 28.7366 75.0762C28.9497 75.5395 29.0115 76.0582 28.9134 76.5586C28.8047 76.9091 28.6257 77.2337 28.3875 77.5128C27.8103 78.2552 27.1215 78.9091 26.5955 79.6911C25.4994 81.3201 25.1992 83.3448 25.0735 85.302C24.9482 87.2265 24.9591 89.1575 25.1061 91.0805C23.6772 90.615 22.0993 91.0293 20.6262 90.7244C17.4914 90.0775 15.5343 86.3679 12.3413 86.1421C10.8309 86.0351 9.20654 86.7472 7.85908 86.056C7.21534 85.6851 6.71157 85.1126 6.42551 84.427C5.85599 83.2133 5.72601 81.8394 6.05781 80.5405C6.29053 79.6422 6.75598 78.7625 6.66521 77.8386C6.58842 77.0474 6.11366 76.3492 5.5691 75.7697C4.01684 74.122 1.76409 73.1144 0.649349 71.1432C0.142349 70.2069 -0.069205 69.139 0.0425414 68.0801C0.154288 67.0212 0.584094 66.021 1.27537 65.2111C1.67323 64.8228 2.05001 64.4133 2.40407 63.9847C2.93933 63.2307 3.10224 62.2788 3.17438 61.3549C3.32798 59.1417 2.94166 56.7982 3.66543 54.6479C4.31472 52.7023 6.29751 51.669 8.13136 51.0174Z" fill="#003A9E"/>
<path opacity="0.6" d="M8.16382 51.0825C8.16382 51.0825 14.5195 86.3795 22.7718 90.5894" stroke="#66667F" stroke-width="0.263376" stroke-miterlimit="10"/>
<path opacity="0.6" d="M25.846 60.8521C25.846 60.8521 19.0389 61.7829 12.2388 68.7762" stroke="#66667F" stroke-width="0.263376" stroke-miterlimit="10"/>
<path opacity="0.6" d="M13.4351 72.8768C13.4351 72.8768 8.19655 67.7569 0.0117188 68.625" stroke="#66667F" stroke-width="0.263376" stroke-miterlimit="10"/>
<path opacity="0.6" d="M28.8436 75.104C28.8436 75.104 19.2834 75.9162 15.7437 79.5862" stroke="#66667F" stroke-width="0.263376" stroke-miterlimit="10"/>
<path opacity="0.6" d="M17.1749 83.0048C17.1749 83.0048 11.8223 82.0739 6.88159 85.2273" stroke="#66667F" stroke-width="0.263376" stroke-miterlimit="10"/>
<path opacity="0.6" d="M204.896 23.291C203.827 22.9117 202.694 22.5649 201.579 22.7581C199.717 23.0839 198.405 24.8526 197.856 26.6655C197.306 28.4784 197.318 30.4123 196.964 32.2741C196.611 34.1358 195.763 36.0651 194.093 36.9588C192.422 37.8524 190.448 37.4987 188.593 37.2846C186.164 37.0014 183.711 36.9756 181.277 37.2078C179.231 37.4056 176.832 38.0968 176.231 40.0609C175.74 41.6667 176.715 43.3004 177.367 44.848C178.584 47.7408 178.682 51.1641 177.288 53.9777C175.87 56.8402 173.075 58.8881 171.898 61.8554C171.6 62.6094 171.411 63.4448 171.614 64.2291C171.789 64.7916 172.076 65.3127 172.459 65.7604C173.39 66.952 174.488 68.0015 175.33 69.2513C177.088 71.8577 177.565 75.1065 177.769 78.2436C177.971 81.3277 177.953 84.422 177.718 87.5036C180.008 86.7496 182.54 87.4222 184.9 86.9358C189.924 85.9002 193.062 79.9541 198.179 79.5911C200.599 79.4212 203.204 80.5592 205.363 79.4515C206.415 78.9116 207.162 77.9039 207.663 76.831C208.561 74.8863 208.757 72.6906 208.219 70.6173C207.839 69.1768 207.102 67.7688 207.246 66.2864C207.369 65.018 208.128 63.8987 209.003 62.9724C211.491 60.331 215.103 58.7159 216.89 55.5579C218.566 52.5977 218.142 48.5925 215.887 46.0489C215.296 45.381 214.593 44.8085 214.076 44.0824C213.218 42.8745 212.943 41.3479 212.841 39.8678C212.596 36.3188 213.199 32.565 212.052 29.1183C211.004 25.9813 207.828 24.3219 204.896 23.291Z" fill="#003A9E"/>
<path opacity="0.6" d="M204.835 23.384C204.835 23.384 194.649 79.9611 181.418 86.7077" stroke="#66667F" stroke-width="0.263376" stroke-miterlimit="10"/>
<path opacity="0.6" d="M176.492 39.0439C176.492 39.0439 187.402 40.5427 198.302 51.7482" stroke="#66667F" stroke-width="0.263376" stroke-miterlimit="10"/>
<path opacity="0.6" d="M196.385 58.3178C196.385 58.3178 204.784 50.105 217.9 51.5014" stroke="#66667F" stroke-width="0.263376" stroke-miterlimit="10"/>
<path opacity="0.6" d="M171.7 61.8877C171.7 61.8877 187.022 63.1886 192.696 69.0741" stroke="#66667F" stroke-width="0.263376" stroke-miterlimit="10"/>
<path opacity="0.6" d="M190.392 74.5524C190.392 74.5524 198.977 73.049 206.892 78.1131" stroke="#66667F" stroke-width="0.263376" stroke-miterlimit="10"/>
<path d="M17.4331 0V5.81572V115.244H186.606V5.81572V0H17.4331Z" fill="url(#paint1_linear)"/>
<path d="M184.814 5.22925H19.9419V113.159H184.814V5.22925Z" fill="white"/>
<path d="M184.814 0.095459H19.9419V8.03593H184.814V0.095459Z" fill="#EEEEEE"/>
<path d="M26.2161 5.86924C27.279 5.86924 28.1407 5.00756 28.1407 3.94463C28.1407 2.8817 27.279 2.02002 26.2161 2.02002C25.1532 2.02002 24.2915 2.8817 24.2915 3.94463C24.2915 5.00756 25.1532 5.86924 26.2161 5.86924Z" fill="#FF5252"/>
<path d="M31.5105 5.86924C32.5735 5.86924 33.4352 5.00756 33.4352 3.94463C33.4352 2.8817 32.5735 2.02002 31.5105 2.02002C30.4476 2.02002 29.5859 2.8817 29.5859 3.94463C29.5859 5.00756 30.4476 5.86924 31.5105 5.86924Z" fill="#FFFF00"/>
<path d="M36.805 5.86924C37.8679 5.86924 38.7296 5.00756 38.7296 3.94463C38.7296 2.8817 37.8679 2.02002 36.805 2.02002C35.742 2.02002 34.8804 2.8817 34.8804 3.94463C34.8804 5.00756 35.742 5.86924 36.805 5.86924Z" fill="#69F0AE"/>
<path opacity="0.5" d="M87.6989 20.7542H26.2603V23.3141H87.6989V20.7542Z" fill="#003A9E"/>
<path opacity="0.5" d="M87.6989 25.874H26.2603V28.434H87.6989V25.874Z" fill="#003A9E"/>
<path opacity="0.5" d="M87.6989 30.9941H26.2603V33.5541H87.6989V30.9941Z" fill="#003A9E"/>
<path opacity="0.5" d="M87.6989 36.1138H47.438V38.6737H87.6989V36.1138Z" fill="#003A9E"/>
<path opacity="0.5" d="M58.6086 41.2336H26.2603V43.7936H58.6086V41.2336Z" fill="#003A9E"/>
<path opacity="0.5" d="M68.6159 46.3538H43.7146V48.9137H68.6159V46.3538Z" fill="#003A9E"/>
<path opacity="0.5" d="M168.221 38.6738H95.8442V80.3311H168.221V38.6738Z" fill="#003A9E"/>
<path d="M176.832 42.6301H104.455V84.2874H176.832V42.6301Z" fill="#EEEEEE"/>
<path opacity="0.5" d="M220.346 81.0617C220.496 80.8697 220.578 80.633 220.579 80.3892C220.579 80.3892 220.579 80.3752 220.579 80.3706C220.579 80.3659 220.593 80.3217 220.6 80.2984V80.2682C220.601 80.2457 220.601 80.2232 220.6 80.2007C220.6 80.2007 220.6 80.1821 220.6 80.1728C220.602 80.1449 220.602 80.1168 220.6 80.089C220.462 79.1581 214.93 73.0933 213.548 65.6951C213.395 64.8896 213.167 64.1004 212.866 63.3376C212.909 62.9561 212.884 62.57 212.792 62.1973C212.559 61.2501 212.094 60.289 212.326 59.3441C212.359 59.2205 212.402 59.0999 212.454 58.9834C212.744 58.5569 213.011 58.1149 213.253 57.6592C213.343 57.5106 213.42 57.355 213.485 57.1938C214.335 54.955 211.705 52.6441 212.189 50.3075C212.398 49.2952 213.183 48.4108 213.162 47.3799C213.136 46.2 212.052 45.2854 210.925 44.8479C209.799 44.4103 208.559 44.2847 207.453 43.796C205.03 42.7231 203.704 40.1329 201.493 38.6924C198.684 36.8655 195.019 37.1913 191.651 37.6637C191.54 37.68 191.435 37.7234 191.345 37.7899C191.255 37.8565 191.183 37.9442 191.135 38.0454H191.102C191.076 38.1199 191.046 38.192 191.014 38.2642C190.548 39.0577 189.764 39.6605 188.989 40.2167C188.044 40.8823 187.032 41.5386 186.455 42.5253C186.368 42.6719 186.296 42.8115 186.233 42.9465C184.977 45.1876 186.487 46.1558 188.328 46.6934C188.273 47.0139 188.245 47.3385 188.244 47.6638C188.244 50.9219 190.969 53.5819 194.328 53.5819C194.593 53.5816 194.858 53.5645 195.121 53.5307L195.317 53.6587H195.361C195.985 54.1079 196.524 54.6711 196.757 55.3413L194.807 56.8307C194.807 56.8307 194.886 57.0355 195.002 57.3613L187.337 60.894C184.432 61.029 179.731 51.8807 179.731 51.8807C179.731 51.8807 179.033 46.6352 176.55 45.6926C175.801 45.4087 175.503 46.0022 175.451 46.9703C174.341 48.1339 176.205 54.6687 176.205 54.6687L182.152 65.1622C182.705 66.2374 182.85 66.9099 185.47 67.3149C187.627 67.6453 194.348 65.2576 196.687 64.3919L196.797 65.3227C196.525 66.0324 196.404 66.791 196.443 67.5499C196.443 69.2651 197.209 71.7598 200.946 73.7473C200.946 73.7473 204.805 78.7345 204.376 83.4425C204.376 83.4425 204.563 83.638 204.861 83.894C204.819 85.2205 204.628 86.8565 203.96 87.4942C203.916 87.5358 203.883 87.588 203.865 87.6458C203.846 87.7037 203.843 87.7652 203.855 87.8246C203.841 87.8943 203.849 87.9666 203.878 88.0314C203.907 88.0962 203.956 88.1501 204.018 88.1854L199.147 96.7146C198.966 96.9474 198.782 97.1801 198.593 97.4128C197.689 98.5654 196.685 99.6361 195.594 100.613C194.781 101.336 193.937 102.128 193.769 102.423C193.511 102.889 192.861 104.39 193.136 105.63C193.491 107.134 193.637 108.68 193.569 110.224L192.938 121.258C192.727 122.489 192.435 123.706 192.065 124.9H191.97C191.97 124.9 189.62 127.725 185.887 128.39C182.154 129.056 182.291 130.95 183.397 131.216C184.502 131.481 197.916 130.946 197.916 130.946C197.916 130.946 198.423 129.957 198.284 129.054C202.566 128.642 208.498 127.944 208.498 127.944C208.498 127.944 209.31 125.991 208.13 125.139C207.686 124.798 207.357 124.33 207.185 123.796C207.116 123.499 207.039 123.159 206.964 122.803C206.946 122.628 206.946 122.521 206.946 122.521H206.906C206.699 121.481 206.534 120.366 206.629 119.782C206.976 118.234 207.874 109.289 205.661 106.733C204.656 105.57 204.793 104.248 205.24 103.145C207.895 101.406 211.609 97.6665 213.758 95.4044C213.879 95.5045 213.99 95.6045 214.095 95.7046L214.165 95.7721C214.165 95.7721 221.475 92.1533 221.505 85.7651C221.516 84.1252 221.118 82.5085 220.346 81.0617ZM196.932 126.126C196.919 125.893 196.927 125.659 196.957 125.428L196.725 125.402C196.86 124.388 197.19 123.252 197.93 122.468C199.201 120.166 200.099 117.678 200.592 115.095L201.935 120.175C201.935 120.175 202.07 121.227 202.107 122.34H202.084C202.084 122.34 200.211 125.014 196.932 126.126Z" fill="url(#paint2_linear)"/>
<path d="M203.001 60.3263C203.001 60.3263 199.717 61.5085 197.881 63.4797C197.881 63.4797 188.947 67.0263 186.45 66.633C183.953 66.2397 183.823 65.5811 183.297 64.5385L177.646 54.2988C177.646 54.2988 175.282 45.7579 177.646 46.6771C180.011 47.5964 180.671 52.7279 180.671 52.7279C180.671 52.7279 185.14 61.6621 187.897 61.5318L195.379 57.9665C195.379 57.9665 197.088 55.4694 197.877 55.602C198.666 55.7347 203.001 60.3263 203.001 60.3263Z" fill="#FDB797"/>
<g opacity="0.05">
<path opacity="0.05" d="M203.001 60.3263C203.001 60.3263 199.717 61.5085 197.881 63.4797C197.881 63.4797 188.947 67.0263 186.45 66.633C183.953 66.2397 183.823 65.5811 183.297 64.5385L177.646 54.2988C177.646 54.2988 175.282 45.7579 177.646 46.6771C180.011 47.5964 180.671 52.7279 180.671 52.7279C180.671 52.7279 185.14 61.6621 187.897 61.5318L195.379 57.9665C195.379 57.9665 197.088 55.4694 197.877 55.602C198.666 55.7347 203.001 60.3263 203.001 60.3263Z" fill="#000029"/>
</g>
<path d="M197.607 55.4832L194.986 57.5405C194.986 57.5405 196.296 60.9685 195.968 62.1693C195.64 63.3702 201.209 60.2843 201.209 60.2843L198.917 55.1411L197.607 55.4832Z" fill="#F9CE43"/>
<g opacity="0.05">
<path opacity="0.05" d="M197.607 55.4832L194.986 57.5405C194.986 57.5405 196.296 60.9685 195.968 62.1693C195.64 63.3702 201.209 60.2843 201.209 60.2843L198.917 55.1411L197.607 55.4832Z" fill="#000029"/>
</g>
<path d="M193.083 53.1933C193.083 53.1933 198.929 55.0993 196.236 58.4481L204.644 54.3755C204.644 54.3755 201.097 54.6385 198.863 49.2556L193.083 53.1933Z" fill="#FDB797"/>
<path d="M204.118 87.4873L196.892 100.494L201.756 119.405C201.756 119.405 202.282 123.61 201.493 124.004H207.011C207.011 124.004 205.947 120.28 206.222 119.012C206.55 117.501 207.404 108.772 205.291 106.268C203.178 103.764 206.343 100.487 206.343 100.487L212.65 90.5011L204.118 87.4873Z" fill="#FDB797"/>
<g opacity="0.05">
<path opacity="0.05" d="M204.118 87.4873L196.892 100.494L201.756 119.405C201.756 119.405 202.282 123.61 201.493 124.004H207.011C207.011 124.004 206.026 120.259 206.222 119.012C206.417 117.764 207.404 108.772 205.291 106.268C203.178 103.764 206.343 100.487 206.343 100.487L212.65 90.5011L204.118 87.4873Z" fill="#000029"/>
</g>
<path d="M201.896 121.528C201.896 121.528 199.894 124.476 196.404 125.412C192.913 126.347 193.197 128.172 194.265 128.349C195.333 128.526 207.995 126.992 207.995 126.992C207.995 126.992 208.766 125.086 207.646 124.253C206.527 123.42 206.52 121.693 206.52 121.693L201.896 121.528Z" fill="#0D134D"/>
<g opacity="0.1">
<path opacity="0.1" d="M204.514 82.23C204.514 82.23 204.826 86.5028 203.688 87.6245C203.648 87.6617 203.617 87.7078 203.599 87.759C203.58 87.8103 203.574 87.8652 203.581 87.9193C203.588 87.9733 203.607 88.025 203.638 88.07C203.669 88.1151 203.71 88.1522 203.758 88.1783L207.141 89.9819L210.167 84.2011L204.514 82.23Z" fill="#000029"/>
</g>
<path d="M204.514 82.0999C204.514 82.0999 204.826 86.3726 203.688 87.4943C203.648 87.5315 203.617 87.5777 203.599 87.6289C203.58 87.6801 203.574 87.7351 203.581 87.7891C203.588 87.8432 203.607 87.8949 203.638 87.9399C203.669 87.9849 203.71 88.0221 203.758 88.0482L207.141 89.8518L210.167 84.071L204.514 82.0999Z" fill="#E23553"/>
<g opacity="0.1">
<path opacity="0.1" d="M204.514 82.3323C204.514 82.3323 204.826 86.605 203.688 87.7268C203.648 87.764 203.617 87.8101 203.599 87.8613C203.58 87.9126 203.574 87.9675 203.581 88.0215C203.588 88.0756 203.607 88.1273 203.638 88.1723C203.669 88.2174 203.71 88.2545 203.758 88.2806L207.141 90.0842L210.167 84.3034L204.514 82.3323Z" fill="#000029"/>
</g>
<path d="M204.644 90.5081C204.644 90.5081 202.691 91.8113 198.593 97.1755C197.736 98.2988 196.782 99.3446 195.742 100.301C194.972 100.999 194.169 101.781 194.009 102.07C193.762 102.514 193.145 103.992 193.408 105.202C193.746 106.672 193.885 108.182 193.82 109.689L193.222 120.466C193.222 120.466 192.433 125.328 191.384 125.854L196.771 126.785C196.771 126.785 196.378 123.368 197.953 121.665C197.953 121.665 201.633 115.358 200.713 108.262C200.713 108.262 200.32 105.109 203.867 103.401C207.413 101.693 214.642 93.4148 214.642 93.4148L204.644 90.5081Z" fill="#FDB797"/>
<path d="M192.294 124.013C192.294 124.013 190.059 126.773 186.513 127.429C182.966 128.086 183.096 129.926 184.148 130.189C185.2 130.452 197.944 129.926 197.944 129.926C197.944 129.926 198.875 128.088 197.814 127.166C196.753 126.245 197.025 124.539 197.025 124.539L192.294 124.013Z" fill="#0D134D"/>
<g opacity="0.1">
<path opacity="0.1" d="M207.93 83.545C207.93 83.545 206.327 88.9302 204.295 90.4987C204.257 90.5269 204.228 90.5648 204.21 90.6083C204.192 90.6518 204.186 90.6993 204.193 90.7458C204.2 90.7923 204.22 90.8361 204.249 90.8725C204.279 90.9089 204.318 90.9366 204.362 90.9526C206.043 91.5646 211.442 93.6265 213.318 95.5023L213.383 95.5674C213.383 95.5674 224.616 89.8518 218.572 80.1287L207.93 83.545Z" fill="#000029"/>
</g>
<path d="M207.93 83.4146C207.93 83.4146 206.327 88.7998 204.295 90.3684C204.257 90.3965 204.228 90.4344 204.21 90.4779C204.192 90.5214 204.186 90.5689 204.193 90.6154C204.2 90.6619 204.22 90.7057 204.249 90.7421C204.279 90.7785 204.318 90.8062 204.362 90.8222C206.043 91.4342 211.442 93.4962 213.318 95.3719L213.383 95.4371C213.383 95.4371 224.616 89.7214 218.572 79.9983L207.93 83.4146Z" fill="#E23553"/>
<g opacity="0.1">
<path opacity="0.1" d="M198.705 56.712C197.87 57.2735 196.958 57.7095 195.996 58.0059L196.899 66.0418C196.899 66.0418 194.788 70.7661 200.825 74.066C200.825 74.066 204.49 78.9369 204.083 83.5355C204.083 83.5355 206.05 85.644 207.365 85.1203C208.679 84.5967 207.495 85.3833 207.758 85.253C208.021 85.1227 208.544 86.3072 212.619 85.2646C216.694 84.222 219.601 81.4736 219.464 80.552C219.326 79.6304 214.095 73.7053 212.799 66.4747C211.502 59.244 203.764 54.1008 203.764 54.1008C203.764 54.1008 203.508 54.2428 203.066 54.4313C201.554 55.0732 200.095 55.8359 198.705 56.712Z" fill="#000029"/>
</g>
<g opacity="0.1">
<path opacity="0.1" d="M204.193 90.5476C204.188 90.6041 204.202 90.6605 204.233 90.7081C204.263 90.7557 204.309 90.7917 204.362 90.8106C205.81 91.3389 210.018 92.9423 212.354 94.576C210.332 92.9423 206.029 91.2458 204.193 90.5476Z" fill="#000029"/>
<path opacity="0.1" d="M218.572 79.9983L218.34 80.0774C223.504 89.1047 213.778 94.5574 212.929 95.0112C213.076 95.1322 213.208 95.2439 213.329 95.3719L213.394 95.4371C213.394 95.4371 224.616 89.7214 218.572 79.9983Z" fill="#000029"/>
</g>
<path d="M212.659 84.99C208.586 86.0419 208.061 84.8597 207.798 84.99C207.535 85.1203 208.728 84.3337 207.404 84.8597C206.08 85.3856 204.121 83.2818 204.121 83.2818C204.139 83.0491 204.148 82.8327 204.148 82.6069C204.162 78.2132 200.825 73.8217 200.825 73.8217C194.774 70.538 196.883 65.8067 196.883 65.8067L196.636 63.6517L195.959 57.7732C196.919 57.475 197.83 57.0375 198.663 56.4746C200.051 55.5962 201.507 54.8305 203.017 54.1846C203.462 53.9938 203.716 53.8518 203.716 53.8518C203.716 53.8518 211.468 58.9717 212.792 66.2024C214.116 73.433 219.362 79.3418 219.492 80.2611C219.622 81.1804 216.732 83.9381 212.659 84.99Z" fill="#F9CE43"/>
<g opacity="0.1">
<path opacity="0.1" d="M198.994 49.3838L193.213 53.3261C194.01 53.6025 194.768 53.9803 195.468 54.4502C197.437 54.1732 198.642 52.7629 199.454 51.0268C199.138 50.5195 199.278 50.0657 198.994 49.3838Z" fill="#000029"/>
</g>
<path d="M194.528 54.3778C197.72 54.3778 200.308 51.7896 200.308 48.597C200.308 45.4043 197.72 42.8162 194.528 42.8162C191.335 42.8162 188.747 45.4043 188.747 48.597C188.747 51.7896 191.335 54.3778 194.528 54.3778Z" fill="#FDB797"/>
<g opacity="0.1">
<path opacity="0.1" d="M213.578 84.3337C209.506 85.3856 208.98 84.2034 208.717 84.3337C208.454 84.464 209.648 83.6774 208.324 84.2034C206.999 84.7293 205.04 82.6255 205.04 82.6255C205.058 82.3928 205.068 82.1764 205.068 81.9506C205.084 77.5638 201.754 73.1654 201.754 73.1654C195.703 69.8817 197.812 65.1504 197.812 65.1504L197.567 62.9931L196.927 57.4287C196.618 57.5681 196.298 57.6825 195.971 57.7708L196.636 63.6517L196.885 65.8067C196.885 65.8067 194.791 70.5379 200.828 73.8216C200.828 73.8216 204.158 78.2201 204.142 82.6069C204.142 82.8396 204.142 83.0561 204.114 83.2818C204.114 83.2818 206.085 85.3763 207.397 84.8597C208.71 84.343 207.528 85.1226 207.791 84.99C208.054 84.8573 208.58 86.0419 212.652 84.99C214.5 84.5119 216.231 83.664 217.742 82.4975C216.461 83.3275 215.055 83.9474 213.578 84.3337Z" fill="#000029"/>
</g>
<path d="M202.673 61.471C202.673 61.471 199.389 62.6533 197.553 64.6244C197.553 64.6244 188.619 68.1711 186.122 67.7778C183.625 67.3845 183.494 66.7259 182.968 65.6833L177.318 55.4435C177.318 55.4435 174.954 46.9026 177.318 47.8219C179.682 48.7412 180.343 53.8727 180.343 53.8727C180.343 53.8727 184.812 62.8069 187.569 62.6765L195.054 59.1066C195.054 59.1066 196.762 56.6095 197.551 56.7421C198.34 56.8748 202.673 61.471 202.673 61.471Z" fill="#FDB797"/>
<g opacity="0.1">
<path opacity="0.1" d="M198.237 56.661C198.237 56.661 195.512 56.412 194.723 59.8284C193.934 63.2447 200.774 65.3462 200.774 65.3462L204.453 60.2263L198.237 56.661Z" fill="#000029"/>
</g>
<path d="M198.37 56.661C198.37 56.661 195.645 56.412 194.856 59.8284C194.067 63.2447 200.907 65.3462 200.907 65.3462L204.586 60.2263L198.37 56.661Z" fill="#F9CE43"/>
<g opacity="0.1">
<path opacity="0.1" d="M197.258 57.2683C196.845 57.4761 196.413 57.6429 195.968 57.7663L195.992 57.9641C196.426 57.7548 196.848 57.5225 197.258 57.2683Z" fill="#000029"/>
<path opacity="0.1" d="M219.492 80.2611C219.362 79.3302 214.104 73.4284 212.792 66.2024C211.479 58.9763 203.716 53.8518 203.716 53.8518C203.716 53.8518 203.46 53.9938 203.018 54.1846C201.837 54.6919 200.688 55.2709 199.578 55.9184C200.315 55.5305 201.067 55.1721 201.835 54.8432C202.28 54.6524 202.533 54.5104 202.533 54.5104C202.533 54.5104 210.285 59.6303 211.61 66.861C212.934 74.0916 218.179 80.0005 218.31 80.9197C218.393 81.4992 217.274 82.8094 215.415 83.9637C217.968 82.6954 219.592 80.9546 219.492 80.2611Z" fill="#000029"/>
</g>
<path opacity="0.1" d="M199.932 56.7141C199.932 56.7141 203.329 58.3967 203.969 61.6315" stroke="#000029" stroke-width="0.263376" stroke-miterlimit="10"/>
<g opacity="0.1">
<path opacity="0.1" d="M191.623 48.2712C192.166 48.3922 192.771 48.5621 193.038 49.0485C193.232 49.4022 193.197 49.8467 193.385 50.2121C193.869 51.1244 195.289 50.8102 196.178 51.3455C197.807 52.3276 196.743 55.3902 198.365 56.3769C198.67 56.5631 199.031 56.6376 199.345 56.8075C200.716 57.5568 200.523 59.5396 200.276 61.0826C200.029 62.6255 200.323 64.7363 201.87 64.9551C202.722 65.0737 203.678 64.5106 204.395 64.983C204.77 65.2297 204.94 65.6811 205.254 66.0093C205.47 66.2245 205.744 66.372 206.042 66.4336C206.341 66.4953 206.651 66.4683 206.934 66.356C207.46 66.1373 207.84 65.6369 208.386 65.4764C209.266 65.218 210.248 65.9302 211.095 65.602C211.942 65.2739 212.136 64.0498 211.917 63.1259C211.698 62.202 211.251 61.2641 211.484 60.3332C211.677 59.5652 212.305 58.9788 212.58 58.2387C213.385 56.0534 210.888 53.796 211.349 51.513C211.549 50.524 212.294 49.6513 212.28 48.6529C212.257 47.4893 211.226 46.6073 210.153 46.1791C209.08 45.7508 207.902 45.6298 206.853 45.1527C204.551 44.1055 203.292 41.5735 201.188 40.1678C200.246 39.5529 199.184 39.1452 198.072 38.9717C196.638 38.7407 195.17 38.8185 193.768 39.1997C192.366 39.581 191.061 40.2569 189.941 41.1825C189.734 41.3501 189.522 41.5083 189.308 41.6619C188.41 42.3112 187.446 42.9512 186.899 43.9147C184.902 47.3915 189.489 47.7895 191.623 48.2712Z" fill="#000029"/>
</g>
<path d="M191.786 47.9431C192.328 48.0641 192.933 48.234 193.201 48.7204C193.394 49.0742 193.359 49.5187 193.548 49.884C194.032 50.7963 195.452 50.4821 196.341 51.0174C197.97 51.9995 196.906 55.0621 198.528 56.0488C198.833 56.235 199.194 56.3095 199.508 56.4794C200.879 57.2287 200.685 59.2115 200.439 60.7545C200.192 62.2974 200.485 64.4082 202.033 64.627C202.885 64.7457 203.841 64.1825 204.558 64.6549C204.933 64.9016 205.103 65.3531 205.417 65.6812C205.632 65.8964 205.906 66.0439 206.205 66.1056C206.504 66.1672 206.814 66.1402 207.097 66.028C207.623 65.8092 208.002 65.3088 208.549 65.1483C209.429 64.8899 210.411 65.6021 211.258 65.2739C212.105 64.9458 212.298 63.7217 212.08 62.7978C211.861 61.8739 211.414 60.936 211.647 60.0051C211.84 59.2371 212.468 58.6507 212.743 57.9106C213.548 55.7254 211.051 53.4679 211.512 51.1849C211.712 50.1959 212.457 49.3232 212.443 48.3248C212.419 47.1612 211.388 46.2792 210.315 45.851C209.243 45.4227 208.065 45.3017 207.015 44.8247C204.714 43.7774 203.455 41.2454 201.351 39.8397C200.496 39.2787 199.539 38.8912 198.535 38.6994C197.056 38.4157 195.533 38.4622 194.074 38.8356C192.616 39.2089 191.257 39.8999 190.097 40.8591C189.892 41.0243 189.68 41.1826 189.471 41.3245C188.572 41.9738 187.609 42.6138 187.062 43.5773C185.065 47.0634 189.654 47.4637 191.786 47.9431Z" fill="#003A9E"/>
<path d="M144.949 84.2872H104.455V76.6562C114.348 72.032 129.57 69.4348 144.949 84.2872Z" fill="#003A9E"/>
<g opacity="0.1">
<path opacity="0.1" d="M176.366 83.1959V84.2873H125.865V84.0546C125.865 84.0546 150.716 59.8585 176.366 83.1959Z" fill="#000029"/>
</g>
<path d="M176.831 83.1959V84.2873H126.331V84.0546C126.331 84.0546 151.181 59.8585 176.831 83.1959Z" fill="#003A9E"/>
<path d="M112.833 53.8009C114.889 53.8009 116.556 52.1338 116.556 50.0773C116.556 48.0209 114.889 46.3538 112.833 46.3538C110.776 46.3538 109.109 48.0209 109.109 50.0773C109.109 52.1338 110.776 53.8009 112.833 53.8009Z" fill="#003A9E"/>
<path d="M144.534 47.2612C144.108 47.2612 143.634 47.2612 143.31 47.2868C143.166 47.2947 143.023 47.3237 142.887 47.3729L140.697 48.1595C142.465 48.2037 144.311 48.1897 146.124 48.1758L156.289 48.0967C157.327 48.0967 158.416 48.078 159.28 48.0175C159.859 47.9756 160.285 47.9151 160.82 47.8686C162.745 47.6964 165.549 47.729 168.056 47.7383C170.562 47.7476 173.587 47.6824 174.469 47.4311H169.089C168.509 47.4311 167.9 47.4311 167.388 47.4031C166.79 47.3682 166.424 47.3031 165.898 47.2565C165.028 47.1821 163.827 47.1728 162.71 47.1681C156.578 47.1425 150.522 47.2868 144.534 47.2612Z" fill="#F4F4F4"/>
<path d="M150.557 51.7713C150.464 51.7713 150.362 51.7713 150.292 51.7713C150.26 51.7729 150.229 51.7792 150.199 51.7899L149.733 51.9598C150.117 51.9598 150.515 51.9598 150.909 51.9598L153.11 51.9435C153.343 51.9435 153.576 51.9435 153.757 51.9272C153.883 51.9272 153.976 51.904 154.09 51.8947C154.507 51.8574 155.114 51.8644 155.658 51.8667C156.125 51.8824 156.592 51.8598 157.055 51.7992H155.891C155.766 51.7992 155.633 51.7992 155.524 51.7992C155.414 51.7992 155.314 51.7783 155.2 51.7667C155.012 51.7504 154.751 51.748 154.502 51.748C153.175 51.748 151.863 51.7783 150.557 51.7713Z" fill="#F4F4F4"/>
<path d="M134.965 58.2874C134.872 58.2874 134.769 58.2874 134.7 58.2874C134.668 58.289 134.637 58.2953 134.607 58.306L134.141 58.4759C134.525 58.4759 134.923 58.4759 135.316 58.4759L137.518 58.4596C137.751 58.4596 137.983 58.4596 138.165 58.4434C138.291 58.4434 138.384 58.4201 138.498 58.4108C138.914 58.3735 139.522 58.3805 140.066 58.3829C140.533 58.3985 141 58.376 141.463 58.3154H140.299C140.173 58.3154 140.041 58.3154 139.931 58.3154C139.822 58.3154 139.722 58.2944 139.608 58.2828C139.419 58.2665 139.159 58.2642 138.91 58.2642C137.583 58.2642 136.271 58.2944 134.965 58.2874Z" fill="#F4F4F4"/>
<path d="M126.217 82.223H124.467C124.467 82.223 123.92 63.084 126.217 57.1775H126.654C126.654 57.1775 125.123 78.8323 126.217 82.223Z" fill="#003A9E"/>
<path d="M125.014 56.1931C125.014 56.1931 123.592 60.1308 124.248 61.8808C124.248 61.8808 125.232 58.2713 126.38 57.7244C127.527 57.1775 128.73 61.8808 128.73 61.8808C128.73 61.8808 129.386 58.9276 128.183 56.5282C128.183 56.5282 130.59 57.8408 131.793 60.3565C131.793 60.3565 132.012 58.7275 129.168 55.3251C129.168 55.3251 131.683 55.9813 133.324 57.5126C133.324 57.5126 133.871 56.3095 130.48 54.3406C130.48 54.3406 130.918 52.9187 133.543 53.575C133.543 53.575 133.543 51.7132 129.386 52.0437C129.386 52.0437 129.386 50.8405 132.121 51.0593C132.121 51.0593 132.121 49.528 128.949 50.0748C128.949 50.0748 129.605 49.0904 130.043 48.8717C129.495 48.8211 128.949 48.9772 128.511 49.3092C128.511 49.3092 128.621 47.3404 126.98 46.5747L126.761 49.3092C126.761 49.3092 124.923 47.1426 125.339 47.5591C125.449 47.6685 125.777 48.9811 125.667 49.6373C125.667 49.6373 123.806 48.106 121.511 49.7467C121.511 49.7467 124.355 49.9655 124.792 50.9499C124.792 50.9499 122.386 50.5124 121.839 50.8405C121.839 50.8405 123.701 51.4968 123.589 51.9343C123.589 51.9343 120.308 51.9343 119.866 53.1375C119.866 53.1375 123.257 53.575 123.475 53.9031C123.475 53.9031 119.538 56.747 119.319 57.5126C119.319 57.5126 123.366 55.1063 124.022 55.1063C124.678 55.1063 121.069 58.5971 121.288 59.4815C121.297 59.4745 124.26 55.9744 125.014 56.1931Z" fill="#003A9E"/>
<path d="M147.802 81.5062H149.138C149.138 81.5062 149.556 66.8843 147.802 62.3718H147.467C147.467 62.3718 148.639 78.9114 147.802 81.5062Z" fill="#003A9E"/>
<path d="M148.721 61.6201C148.721 61.6201 149.808 64.6292 149.305 65.965C149.305 65.965 148.553 63.2073 147.676 62.7907C146.799 62.3741 145.879 65.965 145.879 65.965C145.879 65.965 145.379 63.71 146.298 61.8715C145.122 62.5677 144.166 63.5816 143.541 64.7968C143.541 64.7968 143.373 63.5424 145.547 60.9522C145.547 60.9522 143.624 61.4526 142.372 62.6231C142.372 62.6231 141.953 61.7039 144.546 60.2005C144.546 60.2005 144.211 59.1137 142.207 59.6164C142.207 59.6164 142.207 58.1968 145.381 58.4528C145.381 58.4528 145.381 57.5335 143.287 57.7011C143.287 57.7011 143.287 56.5375 145.709 56.9494C145.709 56.9494 145.209 56.1977 144.874 56.0301C145.29 55.9933 145.705 56.1128 146.038 56.3652C146.038 56.3652 145.954 54.8619 147.201 54.2708L147.369 56.3652C147.369 56.3652 148.765 54.7106 148.456 55.0294C148.255 55.5334 148.17 56.0755 148.204 56.6166C148.204 56.6166 149.624 55.453 151.379 56.7004C151.379 56.7004 149.205 56.8679 148.872 57.6196C148.872 57.6196 150.711 57.2845 151.127 57.5358C151.127 57.5358 149.708 58.0362 149.791 58.3713C149.791 58.3713 152.298 58.3713 152.633 59.2906C152.633 59.2906 150.043 59.6257 149.875 59.8747C149.875 59.8747 152.884 62.0483 153.05 62.6324C153.05 62.6324 149.959 60.7939 149.456 60.7939C148.954 60.7939 151.711 63.4679 151.551 64.1358C151.562 64.1265 149.307 61.4572 148.721 61.6201Z" fill="#003A9E"/>
<path d="M163.797 78.6483H164.625C164.625 78.6483 164.884 69.5931 163.797 66.7981H163.59C163.59 66.7981 164.313 77.0495 163.797 78.6483Z" fill="#003A9E"/>
<path d="M164.367 66.3326C164.367 66.3326 165.039 68.1944 164.73 69.0228C164.73 69.0228 164.264 67.3147 163.72 67.0563C163.175 66.798 162.607 69.0228 162.607 69.0228C162.607 69.0228 162.298 67.6265 162.866 66.4862C162.137 66.917 161.545 67.5446 161.158 68.2968C161.158 68.2968 161.055 67.5195 162.4 65.916C161.678 66.1169 161.008 66.47 160.434 66.9516C160.434 66.9516 160.176 66.3814 161.779 65.4506C161.779 65.4506 161.572 64.778 160.329 65.0875C160.329 65.0875 160.329 64.2078 162.296 64.3637C162.296 64.3637 162.296 63.7936 161.002 63.8983C161.002 63.8983 161.002 63.1745 162.503 63.4329C162.364 63.2148 162.189 63.022 161.986 62.8627C162.245 62.839 162.503 62.9128 162.71 63.0698C162.71 63.0698 162.659 62.1389 163.434 61.7759L163.536 63.0698C163.536 63.0698 164.406 62.0458 164.209 62.2413C164.085 62.5531 164.031 62.8885 164.053 63.2234C164.34 63.0138 164.689 62.9052 165.045 62.9145C165.4 62.9237 165.743 63.0503 166.019 63.2746C166.019 63.2746 164.674 63.377 164.467 63.8448C164.467 63.8448 165.605 63.6377 165.863 63.7936C165.863 63.7936 164.984 64.1031 165.035 64.3102C165.035 64.3102 166.587 64.3102 166.794 64.8804C166.794 64.8804 165.191 65.0875 165.086 65.2434C165.086 65.2434 166.948 66.5886 167.052 66.9516C167.052 66.9516 165.137 65.8136 164.828 65.8136C164.518 65.8136 166.224 67.4706 166.122 67.8825C166.126 67.8848 164.728 66.2279 164.367 66.3326Z" fill="#003A9E"/>
<path d="M133.543 68.4087L133.368 67.4778C133.368 67.4093 133.354 67.3417 133.327 67.2788C133.3 67.216 133.26 67.1594 133.21 67.1124L132.403 66.7168C132.343 66.6469 132.294 66.5684 132.258 66.4841L132.272 66.4631C132.317 66.4079 132.348 66.3435 132.365 66.2746C132.367 66.2568 132.367 66.2389 132.365 66.2211H132.377C132.451 66.231 132.527 66.2126 132.589 66.1695C132.65 66.1264 132.693 66.0618 132.71 65.9884V65.9674C132.695 66.0303 132.661 66.0869 132.612 66.1288C132.563 66.1708 132.502 66.1958 132.437 66.2001C132.55 66.1249 132.642 66.0231 132.706 65.9037C132.769 65.7844 132.803 65.6512 132.803 65.5159C132.803 65.5159 132.803 65.4927 132.803 65.481C132.838 65.4592 132.869 65.4301 132.893 65.3956C132.916 65.3611 132.933 65.322 132.94 65.2809V65.2599C132.93 65.299 132.913 65.3356 132.888 65.3676C132.864 65.3996 132.833 65.4263 132.798 65.4461C132.793 65.3665 132.775 65.2881 132.747 65.2134H132.768C132.848 65.2134 132.924 65.1818 132.98 65.1255C133.036 65.0692 133.068 64.9928 133.068 64.9132C133.068 64.9132 133.068 64.8992 133.068 64.8922C133.063 64.9678 133.029 65.0385 132.974 65.0903C132.919 65.1421 132.846 65.1711 132.77 65.1715H132.733V65.1575C132.822 65.1307 132.902 65.0791 132.963 65.0086C133.024 64.9381 133.064 64.8518 133.077 64.7596C133.077 64.7596 133.077 64.7456 133.077 64.7386C133.073 64.797 133.052 64.8528 133.017 64.8992C133.021 64.8247 132.997 64.7513 132.95 64.6935C132.902 64.6356 132.835 64.5974 132.762 64.5864C132.688 64.5753 132.612 64.5922 132.55 64.6337C132.488 64.6752 132.444 64.7383 132.426 64.8108L132.372 64.7805C132.389 64.7206 132.424 64.6673 132.472 64.6281C132.521 64.5889 132.58 64.5658 132.642 64.5618H132.621C132.558 64.5613 132.497 64.5806 132.446 64.6169C132.394 64.6532 132.356 64.7048 132.335 64.7642C132.155 64.6806 131.951 64.6647 131.76 64.7194C131.57 64.7741 131.405 64.8958 131.297 65.0621C131.234 65.1087 131.153 65.1762 131.155 65.2343C131.128 65.2613 131.104 65.291 131.083 65.3228C130.994 65.5171 130.962 65.7324 130.99 65.9441C131.003 66.0494 130.99 66.1562 130.953 66.2555C130.915 66.3547 130.855 66.4435 130.776 66.5143C130.81 66.5288 130.848 66.5362 130.885 66.5362C130.923 66.5362 130.96 66.5288 130.995 66.5143C131.064 66.4851 131.129 66.4467 131.188 66.4003C131.243 66.3668 131.29 66.3215 131.325 66.2676V66.256C131.364 66.2819 131.405 66.3037 131.448 66.3212C131.465 66.4608 131.469 66.6214 131.406 66.6749L131.418 66.6493C131.268 66.7622 131.081 66.8153 130.894 66.7982C130.782 66.8046 130.672 66.8401 130.577 66.9013C130.482 66.9625 130.405 67.0472 130.352 67.1473L130.099 68.2062V68.2248V68.2434C130.102 68.2577 130.11 68.2707 130.121 68.2809C130.131 68.2912 130.145 68.2983 130.159 68.3016L130.238 68.3226C130.25 68.5035 130.232 68.6851 130.185 68.8602C130.132 69.1208 130.101 69.3855 130.094 69.6514C130.113 69.7841 130.145 70.4752 130.161 70.8034C130.133 70.9154 130.111 71.0288 130.094 71.1432L129.719 73.3913C129.719 73.3913 129.44 75.1902 129.454 75.7348L129.405 76.0489C129.405 76.0489 128.644 77.0031 128.867 77.1381C129.091 77.2731 129.435 77.3312 129.763 76.8239C129.808 76.7043 129.88 76.5968 129.973 76.5097C130.01 76.4775 130.039 76.4368 130.057 76.391C130.076 76.3453 130.083 76.2958 130.078 76.2468L130.054 76.014L130.094 76.028H130.117C130.117 76.028 130.492 74.7969 130.45 73.9335C130.45 73.9335 131.148 71.462 131.672 71.0733V71.0571L131.721 71.0338L131.832 73.4285L131.718 76.0676L131.693 76.2258C131.693 76.2258 130.932 77.18 131.155 77.315C131.379 77.4499 131.723 77.5081 132.051 77.0008C132.096 76.8812 132.167 76.7736 132.261 76.6866C132.298 76.6544 132.327 76.6137 132.345 76.5679C132.363 76.5221 132.37 76.4726 132.365 76.4236L132.33 76.0745C132.461 75.63 132.796 74.3501 132.659 73.6077L132.891 72.0298C133.124 71.7669 133.094 71.0989 133.094 71.0989C133.278 70.7149 133.326 69.2092 133.326 69.2092L133.373 68.4645C133.408 68.4616 133.443 68.4616 133.478 68.4645H133.501H133.515V68.4506C133.522 68.4447 133.527 68.4376 133.531 68.4296H133.545V68.411L133.543 68.4087ZM132.891 69.9214C132.87 69.8702 132.847 69.819 132.821 69.7678H132.803V69.7492C132.802 69.743 132.802 69.7367 132.803 69.7305V69.7119C132.814 69.6869 132.823 69.6613 132.831 69.6351C132.861 69.5871 132.876 69.5312 132.875 69.4745C132.902 69.6219 132.908 69.7724 132.891 69.9214ZM132.821 69.2837L132.775 68.7857L132.789 68.7461L132.852 69.3791L132.821 69.2837ZM130.615 69.3512C130.599 69.3695 130.587 69.391 130.58 69.4143C130.573 69.4375 130.571 69.462 130.573 69.4862C130.573 69.4862 130.573 69.4862 130.573 69.5025C130.574 69.5528 130.581 69.6029 130.594 69.6514L130.522 69.9633V69.3675C130.57 69.3047 130.612 69.2377 130.648 69.1673C130.655 69.2305 130.644 69.2944 130.615 69.3512Z" fill="url(#paint3_linear)"/>
<path d="M131.085 65.5067C131 65.6936 130.968 65.9009 130.995 66.1048C131.007 66.2062 130.994 66.3091 130.958 66.4048C130.922 66.5004 130.864 66.5859 130.788 66.654C130.821 66.668 130.857 66.6753 130.893 66.6753C130.93 66.6753 130.966 66.668 130.999 66.654C131.066 66.626 131.129 66.5892 131.186 66.5446C131.239 66.5124 131.284 66.4687 131.318 66.4166C131.35 66.3362 131.361 66.2487 131.348 66.163C131.349 66.0109 131.362 65.859 131.388 65.7092C131.402 65.6161 131.49 65.3624 131.388 65.3135C131.286 65.2647 131.13 65.4369 131.085 65.5067Z" fill="#72351C"/>
<path d="M129.547 75.3997L129.475 75.8652C129.475 75.8652 128.742 76.7961 128.958 76.9148C129.175 77.0334 129.505 77.1009 129.822 76.6122C129.864 76.4972 129.932 76.3937 130.022 76.3097C130.058 76.2785 130.085 76.2392 130.103 76.1951C130.12 76.1509 130.127 76.1032 130.122 76.056L130.05 75.3462L129.547 75.3997Z" fill="#333333"/>
<path d="M131.753 75.5836L131.681 76.049C131.681 76.049 130.948 76.9799 131.164 77.0986C131.381 77.2173 131.711 77.2847 132.028 76.796C132.07 76.681 132.139 76.5775 132.228 76.4935C132.264 76.4624 132.292 76.423 132.309 76.3789C132.326 76.3347 132.333 76.287 132.328 76.2398L132.256 75.53L131.753 75.5836Z" fill="#333333"/>
<path d="M130.611 70.0191C130.611 70.0191 130.266 70.2681 130.145 71.1338L129.784 73.3004C129.784 73.3004 129.48 75.2646 129.535 75.6416L130.145 75.8511C130.145 75.8511 130.506 74.6642 130.466 73.838C130.466 73.838 131.199 71.2269 131.714 71.0454L131.823 73.3516L131.707 75.9465L132.228 76.0512C132.228 76.0512 132.756 74.3989 132.589 73.5238L132.861 71.6621C132.861 71.6621 133.173 70.6683 132.74 69.8003L130.611 70.0191Z" fill="#4D8AF0"/>
<g opacity="0.1">
<path opacity="0.1" d="M131.66 71.0803V71.0408C131.146 71.2246 130.413 73.8334 130.413 73.8334C130.4 74.5088 130.295 75.1791 130.099 75.8255L130.164 75.8488C130.164 75.8488 130.525 74.6619 130.485 73.8358C130.483 73.8381 131.153 71.4643 131.66 71.0803Z" fill="#000029"/>
<path opacity="0.1" d="M132.761 69.812H132.691C132.941 70.3954 132.982 71.0473 132.808 71.6575L132.535 73.5193C132.696 74.3478 132.228 75.8721 132.179 76.0327L132.247 76.0466C132.247 76.0466 132.775 74.3943 132.607 73.5193L132.88 71.6575C132.88 71.6575 133.194 70.6684 132.761 69.812Z" fill="#000029"/>
</g>
<path d="M130.143 68.3225C130.142 68.3403 130.148 68.3577 130.159 68.3717C130.17 68.3857 130.186 68.3955 130.203 68.3992C130.374 68.442 130.532 68.5214 130.669 68.632C130.925 68.8321 130.397 68.2317 130.397 68.2317L130.22 68.2713L130.147 68.3364L130.143 68.3225Z" fill="#F55F44"/>
<path opacity="0.1" d="M130.143 68.3225C130.142 68.3403 130.148 68.3577 130.159 68.3717C130.17 68.3857 130.186 68.3955 130.203 68.3992C130.374 68.442 130.532 68.5214 130.669 68.632C130.925 68.8321 130.397 68.2317 130.397 68.2317L130.22 68.2713L130.147 68.3364L130.143 68.3225Z" fill="#000029"/>
<path d="M132.661 68.853C132.876 68.7002 133.125 68.6019 133.387 68.5668C133.405 68.5668 133.422 68.5597 133.435 68.547C133.447 68.5343 133.454 68.5172 133.454 68.4993C133.454 68.4993 132.845 68.2596 132.661 68.853Z" fill="#F55F44"/>
<path opacity="0.1" d="M133.454 68.497C133.454 68.497 132.845 68.2643 132.661 68.8507C132.661 68.8507 133.11 68.5063 133.422 68.5621" fill="#000029"/>
<path d="M131.953 66.4866C132.392 66.4866 132.747 66.1313 132.747 65.693C132.747 65.2547 132.392 64.8994 131.953 64.8994C131.515 64.8994 131.16 65.2547 131.16 65.693C131.16 66.1313 131.515 66.4866 131.953 66.4866Z" fill="#72351C"/>
<path d="M131.407 66.2491C131.407 66.2491 131.518 66.7146 131.407 66.81C131.295 66.9054 131.069 67.0823 131.239 67.2196C131.409 67.3569 132.016 67.5896 132.219 67.4756C132.421 67.3615 132.652 67.3964 132.596 67.1637C132.54 66.931 132.098 66.9799 132.091 65.8232L131.407 66.2491Z" fill="#FDB797"/>
<path opacity="0.1" d="M130.283 68.1829C130.299 68.4353 130.283 68.6887 130.234 68.9369C130.182 69.1875 130.153 69.4421 130.145 69.6979C130.169 69.8654 130.217 70.9732 130.217 70.9732C130.217 70.9732 130.129 71.9437 130.601 71.8552C131.074 71.7668 130.529 70.7475 130.529 70.7475L130.553 69.4233C130.681 69.2492 130.761 69.0446 130.785 68.8298C130.82 68.511 130.283 68.1829 130.283 68.1829Z" fill="#000029"/>
<path d="M130.275 68.1829C130.292 68.4353 130.276 68.6887 130.227 68.9369C130.175 69.1875 130.146 69.4421 130.138 69.6979C130.161 69.8654 130.21 70.9732 130.21 70.9732C130.21 70.9732 130.122 71.9437 130.594 71.8552C131.067 71.7668 130.522 70.7475 130.522 70.7475L130.545 69.4233C130.674 69.2492 130.754 69.0446 130.778 68.8298C130.811 68.511 130.275 68.1829 130.275 68.1829Z" fill="#FDB797"/>
<path opacity="0.1" d="M133.298 68.2551L133.233 69.2907C133.233 69.2907 133.194 70.7429 133.017 71.1106C133.017 71.1106 133.066 72.13 132.591 72.1044C132.116 72.0788 132.67 70.9896 132.67 70.9896C132.67 70.9896 132.924 69.8563 132.793 69.4979L132.67 68.2551H133.298Z" fill="#000029"/>
<path d="M133.305 68.2551L133.24 69.2907C133.24 69.2907 133.201 70.7429 133.024 71.1106C133.024 71.1106 133.073 72.13 132.598 72.1044C132.123 72.0788 132.677 70.9896 132.677 70.9896C132.677 70.9896 132.931 69.8563 132.801 69.4979L132.677 68.2551H133.305Z" fill="#FDB797"/>
<path opacity="0.1" d="M131.767 67.2522C131.767 67.2522 132.151 67.4291 132.361 66.9031L133.14 67.2848C133.188 67.3304 133.226 67.3853 133.252 67.4461C133.278 67.5069 133.292 67.5724 133.292 67.6385L133.459 68.5368C133.459 68.5368 132.889 68.3437 132.712 68.8743L132.761 69.3793C132.798 69.504 132.789 69.6377 132.735 69.7563C132.731 69.7669 132.728 69.7784 132.728 69.79C132.728 69.8017 132.731 69.8132 132.735 69.8238C132.747 69.8606 132.75 69.8995 132.744 69.9376C132.738 69.9757 132.723 70.0118 132.7 70.043C132.677 70.0742 132.648 70.0997 132.613 70.1174C132.579 70.1351 132.541 70.1446 132.503 70.1449C132.293 70.1473 132.084 70.1637 131.877 70.1938C131.709 70.2427 131.202 70.0984 131.034 70.1938C130.867 70.2892 130.513 70.1217 130.513 70.1217L130.608 69.7121C130.608 69.7121 130.543 69.5119 130.625 69.4398C130.706 69.3677 130.657 68.7416 130.585 68.5648C130.585 68.5648 130.296 68.2925 130.12 68.332L130.352 67.2964C130.403 67.1998 130.477 67.118 130.568 67.0588C130.66 66.9997 130.765 66.9653 130.874 66.959C131.054 66.9751 131.234 66.9237 131.379 66.8147C131.379 66.8147 131.204 67.1964 131.767 67.2522Z" fill="#000029"/>
<path opacity="0.1" d="M131.807 67.2335C131.912 67.2614 132.191 67.2916 132.358 66.8704L133.138 67.2521C133.186 67.2976 133.224 67.3525 133.25 67.4133C133.276 67.4742 133.289 67.5397 133.289 67.6058L133.457 68.5041C133.457 68.5041 132.887 68.311 132.71 68.8416L132.759 69.3466L132.791 69.4466C132.805 69.4894 132.809 69.5349 132.802 69.5794C132.795 69.6238 132.778 69.6661 132.752 69.7026C132.741 69.7152 132.733 69.7305 132.73 69.7469C132.728 69.7633 132.729 69.7802 132.735 69.7957C132.747 69.8325 132.75 69.8715 132.744 69.9096C132.738 69.9476 132.723 69.9837 132.7 70.015C132.677 70.0462 132.648 70.0717 132.613 70.0894C132.579 70.1071 132.541 70.1165 132.503 70.1169C132.293 70.1193 132.084 70.1356 131.877 70.1658C131.709 70.2146 131.202 70.0703 131.034 70.1658C130.867 70.2612 130.513 70.0936 130.513 70.0936L130.608 69.684C130.608 69.684 130.543 69.4839 130.625 69.4117C130.706 69.3396 130.657 68.7136 130.585 68.5367C130.585 68.5367 130.296 68.2644 130.12 68.304L130.352 67.2684C130.403 67.1718 130.477 67.0899 130.568 67.0307C130.66 66.9716 130.765 66.9372 130.874 66.9309C131.054 66.9471 131.234 66.8956 131.379 66.7866C131.379 66.7866 131.19 67.1311 131.686 67.2055L131.807 67.2335Z" fill="#000029"/>
<path d="M131.807 67.2496C131.911 67.2775 132.191 67.3078 132.358 66.8865L133.138 67.2682C133.186 67.3138 133.224 67.3686 133.25 67.4295C133.276 67.4903 133.289 67.5558 133.289 67.6219L133.457 68.5202C133.457 68.5202 132.887 68.3271 132.71 68.8577L132.759 69.3627C132.795 69.4874 132.786 69.6211 132.733 69.7397C132.728 69.7503 132.726 69.7618 132.726 69.7734C132.726 69.7851 132.728 69.7966 132.733 69.8072C132.745 69.844 132.748 69.8829 132.741 69.921C132.735 69.9591 132.72 69.9952 132.698 70.0264C132.675 70.0576 132.645 70.0831 132.611 70.1008C132.577 70.1185 132.539 70.128 132.5 70.1283C132.291 70.1308 132.082 70.1471 131.874 70.1772C131.707 70.2261 131.199 70.0818 131.032 70.1772C130.864 70.2726 130.51 70.1051 130.51 70.1051L130.606 69.6955C130.606 69.6955 130.541 69.4953 130.622 69.4232C130.704 69.3511 130.655 68.725 130.583 68.5482C130.583 68.5482 130.294 68.2759 130.117 68.3154L130.35 67.2798C130.4 67.1832 130.475 67.1014 130.566 67.0422C130.657 66.9831 130.763 66.9487 130.871 66.9424C131.052 66.9585 131.232 66.9071 131.376 66.7981C131.376 66.7981 131.188 67.1425 131.683 67.217L131.807 67.2496Z" fill="#F55F44"/>
<path opacity="0.1" d="M132.102 65.865L131.42 66.2909C131.438 66.3677 131.451 66.4454 131.46 66.5236C131.538 66.5545 131.621 66.5703 131.704 66.5701C131.871 66.5585 132.028 66.4874 132.147 66.37C132.116 66.2035 132.101 66.0344 132.102 65.865Z" fill="#000029"/>
<path d="M131.69 66.5189C132.054 66.5189 132.349 66.224 132.349 65.8603C132.349 65.4965 132.054 65.2017 131.69 65.2017C131.327 65.2017 131.032 65.4965 131.032 65.8603C131.032 66.224 131.327 66.5189 131.69 66.5189Z" fill="#FDB797"/>
<path d="M132.661 65.3552C132.82 65.3552 132.949 65.226 132.949 65.0666C132.949 64.9073 132.82 64.7781 132.661 64.7781C132.502 64.7781 132.372 64.9073 132.372 65.0666C132.372 65.226 132.502 65.3552 132.661 65.3552Z" fill="#72351C"/>
<path d="M132.717 65.3714C132.644 65.3716 132.573 65.3441 132.52 65.2944C132.466 65.2447 132.434 65.1766 132.428 65.1038C132.428 65.1038 132.428 65.1177 132.428 65.1247C132.428 65.2012 132.459 65.2746 132.513 65.3287C132.567 65.3829 132.64 65.4133 132.717 65.4133C132.793 65.4133 132.867 65.3829 132.921 65.3287C132.975 65.2746 133.005 65.2012 133.005 65.1247C133.005 65.1247 133.005 65.1107 133.005 65.1038C133 65.1766 132.967 65.2447 132.914 65.2944C132.86 65.3441 132.79 65.3716 132.717 65.3714Z" fill="#72351C"/>
<path d="M132.551 65.6461C132.48 65.6325 132.416 65.5923 132.373 65.5336C132.33 65.4748 132.31 65.402 132.319 65.3296V65.3482C132.305 65.4235 132.321 65.5012 132.365 65.5643C132.408 65.6274 132.475 65.6706 132.55 65.6845C132.626 65.6984 132.703 65.6818 132.766 65.6384C132.829 65.5949 132.873 65.5282 132.887 65.4529V65.432C132.869 65.5038 132.824 65.5661 132.762 65.606C132.699 65.6458 132.624 65.6602 132.551 65.6461Z" fill="#72351C"/>
<path d="M132.328 66.3443C132.257 66.3307 132.193 66.2905 132.15 66.2318C132.106 66.1731 132.087 66.1002 132.095 66.0278V66.0464C132.081 66.1217 132.098 66.1995 132.142 66.2625C132.185 66.3256 132.252 66.3688 132.327 66.3827C132.402 66.3966 132.48 66.38 132.543 66.3366C132.606 66.2932 132.649 66.2265 132.663 66.1512V66.1302C132.645 66.2021 132.601 66.2644 132.538 66.3042C132.476 66.3441 132.401 66.3584 132.328 66.3443Z" fill="#72351C"/>
<path d="M132.717 65.218C132.643 65.2181 132.573 65.1903 132.519 65.1401C132.465 65.09 132.433 65.0213 132.428 64.948C132.428 64.948 132.428 64.962 132.428 64.9689C132.428 65.0455 132.459 65.1189 132.513 65.173C132.567 65.2271 132.64 65.2575 132.717 65.2575C132.793 65.2575 132.867 65.2271 132.921 65.173C132.975 65.1189 133.005 65.0455 133.005 64.9689C133.005 64.9689 133.005 64.955 133.005 64.948C133.001 65.0213 132.968 65.09 132.915 65.1401C132.861 65.1903 132.79 65.2181 132.717 65.218Z" fill="#72351C"/>
<path d="M132.314 65.0621C132.315 64.9887 132.343 64.9183 132.394 64.8651C132.444 64.8119 132.513 64.78 132.586 64.7759H132.565C132.489 64.7759 132.415 64.8063 132.361 64.8604C132.307 64.9145 132.277 64.9879 132.277 65.0645C132.277 65.141 132.307 65.2144 132.361 65.2685C132.415 65.3226 132.489 65.353 132.565 65.353H132.586C132.512 65.3488 132.443 65.3163 132.392 65.2621C132.341 65.2079 132.313 65.1363 132.314 65.0621Z" fill="#72351C"/>
<path opacity="0.1" d="M132.605 67.7849C132.635 67.9276 132.635 68.0751 132.605 68.2178C132.605 68.2178 132.566 68.5948 132.628 68.66" fill="#000029"/>
<path opacity="0.1" d="M130.655 67.8735C130.685 68.0162 130.685 68.1637 130.655 68.3064C130.655 68.3064 130.615 68.6834 130.678 68.7486" fill="#000029"/>
<path opacity="0.1" d="M130.638 69.4209C130.701 69.4433 130.769 69.4433 130.832 69.4209C130.908 69.3978 130.989 69.3978 131.065 69.4209" fill="#000029"/>
<path opacity="0.1" d="M130.736 68.853C130.963 68.8639 131.19 68.8282 131.402 68.7483C131.402 68.7483 132.221 68.9484 132.454 68.8042" fill="#000029"/>
<path d="M130.49 72.3113H130.297C130.21 72.3113 130.141 72.3811 130.141 72.4672C130.141 72.5533 130.21 72.6231 130.297 72.6231H130.49C130.576 72.6231 130.646 72.5533 130.646 72.4672C130.646 72.3811 130.576 72.3113 130.49 72.3113Z" fill="#FDB797"/>
<path d="M130.143 72.3952L130.413 72.3835L130.645 72.4208H130.564L130.143 72.3952Z" fill="#F0E4E4"/>
<path d="M131.963 71.0896H132.233L132.465 71.1129H132.384L131.963 71.0896Z" fill="#F0E4E4"/>
<path d="M131.963 71.1455H132.233L132.465 71.1688H132.384L131.963 71.1455Z" fill="#F0E4E4"/>
<path d="M131.963 71.2036H132.233L132.465 71.2269H132.384L131.963 71.2036Z" fill="#F0E4E4"/>
<path d="M131.963 71.2593H132.233L132.465 71.2825H132.384L131.963 71.2593Z" fill="#F0E4E4"/>
<path d="M130.143 72.6116H130.413L130.645 72.6395H130.564L130.143 72.6116Z" fill="#F0E4E4"/>
<path d="M130.143 72.5835H130.413L130.645 72.6114H130.564L130.143 72.5835Z" fill="#F0E4E4"/>
<path d="M130.143 72.5557H130.413L130.645 72.5836H130.564L130.143 72.5557Z" fill="#F0E4E4"/>
<path d="M130.143 72.5278H130.413L130.645 72.5558H130.564L130.143 72.5278Z" fill="#F0E4E4"/>
<path d="M130.143 72.3534L130.413 72.3418L130.645 72.379H130.564L130.143 72.3534Z" fill="#F0E4E4"/>
<path d="M130.143 72.3044L130.413 72.2927L130.645 72.3299H130.564L130.143 72.3044Z" fill="#F0E4E4"/>
<path opacity="0.1" d="M131.802 65.4391C131.776 65.6851 131.808 65.9337 131.895 66.1652C131.938 66.2776 131.958 66.3977 131.952 66.518C131.946 66.6382 131.914 66.7559 131.86 66.8634C131.896 66.8716 131.933 66.8712 131.969 66.8623C132.004 66.8534 132.037 66.8362 132.065 66.8122C132.123 66.7615 132.173 66.7027 132.214 66.6376C132.257 66.5845 132.288 66.5226 132.305 66.4561C132.312 66.3515 132.296 66.2467 132.258 66.1489C132.213 65.9707 132.18 65.7895 132.161 65.6067C132.147 65.495 132.161 65.1738 132.035 65.1412C131.909 65.1086 131.825 65.346 131.802 65.4391Z" fill="#000029"/>
<path d="M131.818 65.4321C131.793 65.678 131.825 65.9266 131.912 66.1582C131.955 66.2705 131.974 66.3907 131.968 66.5109C131.962 66.6312 131.931 66.7488 131.877 66.8563C131.912 66.8645 131.95 66.8642 131.985 66.8553C132.021 66.8464 132.054 66.8292 132.081 66.8051C132.139 66.7545 132.189 66.6957 132.23 66.6306C132.274 66.5775 132.305 66.5155 132.321 66.4491C132.328 66.3445 132.312 66.2397 132.275 66.1419C132.23 65.9636 132.197 65.7824 132.177 65.5996C132.163 65.4879 132.177 65.1668 132.051 65.1342C131.926 65.1016 131.842 65.3366 131.818 65.4321Z" fill="#72351C"/>
<path opacity="0.1" d="M131.534 65.6042C131.59 65.6623 131.602 65.7484 131.648 65.8136C131.69 65.858 131.74 65.8927 131.797 65.9152C131.853 65.9377 131.914 65.9475 131.974 65.9439C132.007 65.9422 132.04 65.9494 132.07 65.9649C132.121 65.9974 132.123 66.0719 132.156 66.1231C132.173 66.1418 132.194 66.1567 132.218 66.1669C132.241 66.177 132.266 66.1823 132.292 66.1823C132.317 66.1823 132.343 66.177 132.366 66.1669C132.39 66.1567 132.411 66.1418 132.428 66.1231C132.495 66.0428 132.532 65.9416 132.533 65.8369C132.544 65.7216 132.544 65.6054 132.533 65.4901C132.53 65.3581 132.477 65.2319 132.386 65.1364C132.31 65.0798 132.221 65.0416 132.128 65.0247C132 64.9796 131.863 64.9691 131.73 64.9944C131.665 65.0159 131.604 65.0465 131.548 65.0852C131.469 65.1364 131.392 65.1884 131.316 65.2411C131.23 65.3016 131.067 65.4226 131.225 65.4878C131.325 65.5343 131.451 65.5134 131.534 65.6042Z" fill="#000029"/>
<path d="M131.551 65.5951C131.607 65.6533 131.618 65.7394 131.665 65.8046C131.706 65.8489 131.757 65.8836 131.813 65.9062C131.869 65.9287 131.93 65.9385 131.991 65.9349C132.024 65.9331 132.057 65.9404 132.086 65.9558C132.137 65.9884 132.14 66.0629 132.172 66.1141C132.19 66.1328 132.211 66.1477 132.234 66.1578C132.257 66.168 132.283 66.1733 132.308 66.1733C132.334 66.1733 132.359 66.168 132.383 66.1578C132.406 66.1477 132.427 66.1328 132.444 66.1141C132.512 66.0338 132.549 65.9326 132.549 65.8278C132.56 65.7125 132.56 65.5964 132.549 65.4811C132.546 65.349 132.494 65.2229 132.403 65.1273C132.326 65.0708 132.238 65.0325 132.144 65.0156C132.017 64.9706 131.879 64.9601 131.746 64.9854C131.682 65.0069 131.621 65.0374 131.565 65.0761C131.486 65.1273 131.408 65.1793 131.332 65.2321C131.246 65.2926 131.083 65.4136 131.241 65.4788C131.341 65.5253 131.474 65.5067 131.551 65.5951Z" fill="#72351C"/>
<path d="M131.979 71.0896H132.249L132.482 71.1129H132.405L131.979 71.0896Z" fill="#F0E4E4"/>
<path d="M131.979 71.1455H132.249L132.482 71.1688H132.405L131.979 71.1455Z" fill="#F0E4E4"/>
<path d="M131.979 71.2036H132.249L132.482 71.2269H132.405L131.979 71.2036Z" fill="#F0E4E4"/>
<path d="M131.979 71.2593H132.249L132.482 71.2825H132.405L131.979 71.2593Z" fill="#F0E4E4"/>
<path d="M131.863 74.3479H132.133L132.365 74.3712H132.284L131.863 74.3479Z" fill="#F0E4E4"/>
<path d="M131.863 74.4058H132.133L132.365 74.429H132.284L131.863 74.4058Z" fill="#F0E4E4"/>
<path d="M131.863 74.4617H132.133L132.365 74.4849H132.284L131.863 74.4617Z" fill="#F0E4E4"/>
<path d="M131.863 74.5176H132.133L132.365 74.5409H132.284L131.863 74.5176Z" fill="#F0E4E4"/>
</g>
<defs>
<linearGradient id="paint0_linear" x1="104.455" y1="141.998" x2="104.455" y2="88.5322" gradientUnits="userSpaceOnUse">
<stop stop-color="#808080" stop-opacity="0.25"/>
<stop offset="0.54" stop-color="#808080" stop-opacity="0.12"/>
<stop offset="1" stop-color="#808080" stop-opacity="0.1"/>
</linearGradient>
<linearGradient id="paint1_linear" x1="74177.7" y1="57068.8" x2="74177.7" y2="0" gradientUnits="userSpaceOnUse">
<stop stop-color="#808080" stop-opacity="0.25"/>
<stop offset="0.54" stop-color="#808080" stop-opacity="0.12"/>
<stop offset="1" stop-color="#808080" stop-opacity="0.1"/>
</linearGradient>
<linearGradient id="paint2_linear" x1="45477.1" y1="66682.4" x2="45477.1" y2="28720.8" gradientUnits="userSpaceOnUse">
<stop stop-color="#808080" stop-opacity="0.25"/>
<stop offset="0.54" stop-color="#808080" stop-opacity="0.12"/>
<stop offset="1" stop-color="#808080" stop-opacity="0.1"/>
</linearGradient>
<linearGradient id="paint3_linear" x1="3374.26" y1="6200.2" x2="3374.26" y2="5489.24" gradientUnits="userSpaceOnUse">
<stop stop-color="#808080" stop-opacity="0.25"/>
<stop offset="0.54" stop-color="#808080" stop-opacity="0.12"/>
<stop offset="1" stop-color="#808080" stop-opacity="0.1"/>
</linearGradient>
<clipPath id="clip0">
<rect width="221.514" height="142" fill="white"/>
</clipPath>
</defs>
</svg>
